<mxfile modified="2019-12-12T06:01:20.483Z" host="www.draw.io" agent="Mozilla/5.0 (Windows NT 10.0; Win64; x64) AppleWebKit/537.36 (KHTML, like Gecko) Chrome/69.0.3497.100 Safari/537.36" etag="1wiLaLCPLGWL_nZtxiYE" version="12.3.6" type="github" pages="14">
  <diagram id="8WeKBrH2OZSk2AMbdLbP" name="Page-1">
    <mxGraphModel dx="1422" dy="794" grid="1" gridSize="10" guides="1" tooltips="1" connect="1" arrows="1" fold="1" page="1" pageScale="1" pageWidth="827" pageHeight="1169" math="0" shadow="0">
      <root>
        <mxCell id="0"/>
        <mxCell id="1" parent="0"/>
        <mxCell id="CLk5Blm6c0726313Sfja-10" style="edgeStyle=orthogonalEdgeStyle;rounded=0;orthogonalLoop=1;jettySize=auto;html=1;entryX=0.142;entryY=0.483;entryDx=0;entryDy=0;entryPerimeter=0;" parent="1" source="CLk5Blm6c0726313Sfja-2" target="CLk5Blm6c0726313Sfja-5" edge="1">
          <mxGeometry relative="1" as="geometry">
            <mxPoint x="330" y="300" as="targetPoint"/>
          </mxGeometry>
        </mxCell>
        <mxCell id="CLk5Blm6c0726313Sfja-2" value="desginer" style="shape=component;align=left;spacingLeft=36;" parent="1" vertex="1">
          <mxGeometry x="130" y="270" width="120" height="60" as="geometry"/>
        </mxCell>
        <mxCell id="CLk5Blm6c0726313Sfja-6" style="edgeStyle=orthogonalEdgeStyle;rounded=0;orthogonalLoop=1;jettySize=auto;html=1;entryX=0.583;entryY=1;entryDx=0;entryDy=0;entryPerimeter=0;" parent="1" source="CLk5Blm6c0726313Sfja-3" target="CLk5Blm6c0726313Sfja-2" edge="1">
          <mxGeometry relative="1" as="geometry"/>
        </mxCell>
        <mxCell id="CLk5Blm6c0726313Sfja-3" value="manager" style="shape=component;align=left;spacingLeft=36;" parent="1" vertex="1">
          <mxGeometry x="540" y="390" width="120" height="60" as="geometry"/>
        </mxCell>
        <mxCell id="CLk5Blm6c0726313Sfja-4" value="render" style="shape=component;align=left;spacingLeft=36;" parent="1" vertex="1">
          <mxGeometry x="540" y="269" width="120" height="60" as="geometry"/>
        </mxCell>
        <mxCell id="CLk5Blm6c0726313Sfja-11" style="edgeStyle=orthogonalEdgeStyle;rounded=0;orthogonalLoop=1;jettySize=auto;html=1;entryX=0.125;entryY=0.533;entryDx=0;entryDy=0;entryPerimeter=0;" parent="1" source="CLk5Blm6c0726313Sfja-5" target="CLk5Blm6c0726313Sfja-4" edge="1">
          <mxGeometry relative="1" as="geometry"/>
        </mxCell>
        <mxCell id="CLk5Blm6c0726313Sfja-5" value="api" style="shape=component;align=left;spacingLeft=36;" parent="1" vertex="1">
          <mxGeometry x="330" y="271" width="120" height="60" as="geometry"/>
        </mxCell>
        <mxCell id="CLk5Blm6c0726313Sfja-8" style="edgeStyle=orthogonalEdgeStyle;rounded=0;orthogonalLoop=1;jettySize=auto;html=1;entryX=0.583;entryY=0;entryDx=0;entryDy=0;entryPerimeter=0;" parent="1" source="CLk5Blm6c0726313Sfja-7" target="CLk5Blm6c0726313Sfja-2" edge="1">
          <mxGeometry relative="1" as="geometry"/>
        </mxCell>
        <mxCell id="CLk5Blm6c0726313Sfja-9" style="edgeStyle=orthogonalEdgeStyle;rounded=0;orthogonalLoop=1;jettySize=auto;html=1;entryX=0.567;entryY=0.017;entryDx=0;entryDy=0;entryPerimeter=0;" parent="1" source="CLk5Blm6c0726313Sfja-7" target="CLk5Blm6c0726313Sfja-5" edge="1">
          <mxGeometry relative="1" as="geometry"/>
        </mxCell>
        <mxCell id="CLk5Blm6c0726313Sfja-7" value="ERP" style="shape=component;align=left;spacingLeft=36;" parent="1" vertex="1">
          <mxGeometry x="140" y="120" width="120" height="60" as="geometry"/>
        </mxCell>
        <mxCell id="CLk5Blm6c0726313Sfja-25" style="edgeStyle=orthogonalEdgeStyle;rounded=0;orthogonalLoop=1;jettySize=auto;html=1;entryX=1;entryY=0.5;entryDx=0;entryDy=0;" parent="1" source="CLk5Blm6c0726313Sfja-16" target="CLk5Blm6c0726313Sfja-23" edge="1">
          <mxGeometry relative="1" as="geometry"/>
        </mxCell>
        <mxCell id="CLk5Blm6c0726313Sfja-16" value="manager" style="shape=component;align=left;spacingLeft=36;" parent="1" vertex="1">
          <mxGeometry x="555" y="781" width="120" height="60" as="geometry"/>
        </mxCell>
        <mxCell id="CLk5Blm6c0726313Sfja-17" value="render" style="shape=component;align=left;spacingLeft=36;" parent="1" vertex="1">
          <mxGeometry x="545" y="670" width="120" height="60" as="geometry"/>
        </mxCell>
        <mxCell id="CLk5Blm6c0726313Sfja-18" style="edgeStyle=orthogonalEdgeStyle;rounded=0;orthogonalLoop=1;jettySize=auto;html=1;entryX=0.125;entryY=0.533;entryDx=0;entryDy=0;entryPerimeter=0;" parent="1" source="CLk5Blm6c0726313Sfja-19" target="CLk5Blm6c0726313Sfja-17" edge="1">
          <mxGeometry relative="1" as="geometry"/>
        </mxCell>
        <mxCell id="CLk5Blm6c0726313Sfja-24" style="edgeStyle=orthogonalEdgeStyle;rounded=0;orthogonalLoop=1;jettySize=auto;html=1;entryX=0.5;entryY=0;entryDx=0;entryDy=0;" parent="1" source="CLk5Blm6c0726313Sfja-19" target="CLk5Blm6c0726313Sfja-23" edge="1">
          <mxGeometry relative="1" as="geometry"/>
        </mxCell>
        <mxCell id="QLiTG6M94rN8V7D73Ydz-2" style="edgeStyle=orthogonalEdgeStyle;rounded=0;orthogonalLoop=1;jettySize=auto;html=1;entryX=0.408;entryY=0.983;entryDx=0;entryDy=0;entryPerimeter=0;" parent="1" source="CLk5Blm6c0726313Sfja-19" target="QLiTG6M94rN8V7D73Ydz-1" edge="1">
          <mxGeometry relative="1" as="geometry"/>
        </mxCell>
        <mxCell id="CLk5Blm6c0726313Sfja-19" value="api" style="shape=component;align=left;spacingLeft=36;" parent="1" vertex="1">
          <mxGeometry x="335" y="672" width="120" height="60" as="geometry"/>
        </mxCell>
        <mxCell id="CLk5Blm6c0726313Sfja-21" style="edgeStyle=orthogonalEdgeStyle;rounded=0;orthogonalLoop=1;jettySize=auto;html=1;entryX=0.15;entryY=0.533;entryDx=0;entryDy=0;entryPerimeter=0;" parent="1" source="CLk5Blm6c0726313Sfja-22" target="CLk5Blm6c0726313Sfja-19" edge="1">
          <mxGeometry relative="1" as="geometry"/>
        </mxCell>
        <mxCell id="QLiTG6M94rN8V7D73Ydz-3" style="edgeStyle=orthogonalEdgeStyle;rounded=0;orthogonalLoop=1;jettySize=auto;html=1;entryX=0;entryY=0.7;entryDx=0;entryDy=0;" parent="1" source="CLk5Blm6c0726313Sfja-22" target="QLiTG6M94rN8V7D73Ydz-1" edge="1">
          <mxGeometry relative="1" as="geometry">
            <Array as="points">
              <mxPoint x="190" y="660"/>
              <mxPoint x="298" y="660"/>
              <mxPoint x="298" y="568"/>
            </Array>
          </mxGeometry>
        </mxCell>
        <mxCell id="CLk5Blm6c0726313Sfja-22" value="ERP" style="shape=component;align=left;spacingLeft=36;" parent="1" vertex="1">
          <mxGeometry x="130" y="674" width="120" height="60" as="geometry"/>
        </mxCell>
        <mxCell id="QLiTG6M94rN8V7D73Ydz-5" style="edgeStyle=orthogonalEdgeStyle;rounded=0;orthogonalLoop=1;jettySize=auto;html=1;entryX=0;entryY=0.3;entryDx=0;entryDy=0;" parent="1" source="CLk5Blm6c0726313Sfja-23" target="QLiTG6M94rN8V7D73Ydz-1" edge="1">
          <mxGeometry relative="1" as="geometry">
            <Array as="points">
              <mxPoint x="70" y="830"/>
              <mxPoint x="70" y="544"/>
            </Array>
          </mxGeometry>
        </mxCell>
        <mxCell id="CLk5Blm6c0726313Sfja-23" value="desginer" style="shape=component;align=left;spacingLeft=36;" parent="1" vertex="1">
          <mxGeometry x="335" y="781" width="120" height="60" as="geometry"/>
        </mxCell>
        <mxCell id="QLiTG6M94rN8V7D73Ydz-1" value="printClient" style="shape=component;align=left;spacingLeft=36;" parent="1" vertex="1">
          <mxGeometry x="346" y="526" width="120" height="60" as="geometry"/>
        </mxCell>
        <mxCell id="g3KlrW-sXEBFiRhngZiP-1" value="" style="endArrow=none;html=1;" parent="1" edge="1">
          <mxGeometry width="50" height="50" relative="1" as="geometry">
            <mxPoint x="480" y="240" as="sourcePoint"/>
            <mxPoint x="650" y="240" as="targetPoint"/>
          </mxGeometry>
        </mxCell>
      </root>
    </mxGraphModel>
  </diagram>
  <diagram id="B3FyoPloalDEsmBR6PtU" name="Page-2">
    <mxGraphModel dx="1422" dy="796" grid="1" gridSize="10" guides="1" tooltips="1" connect="1" arrows="1" fold="1" page="1" pageScale="1" pageWidth="827" pageHeight="1169" math="0" shadow="0">
      <root>
        <mxCell id="fVUSy1wS9ZmYaahi_EEB-0"/>
        <mxCell id="fVUSy1wS9ZmYaahi_EEB-1" parent="fVUSy1wS9ZmYaahi_EEB-0"/>
        <mxCell id="fVUSy1wS9ZmYaahi_EEB-6" value="&lt;p style=&quot;margin: 0px ; margin-top: 4px ; text-align: center&quot;&gt;tableElement&lt;/p&gt;" style="verticalAlign=top;align=left;overflow=fill;fontSize=12;fontFamily=Helvetica;html=1;" vertex="1" parent="fVUSy1wS9ZmYaahi_EEB-1">
          <mxGeometry x="348" y="70" width="130" height="50" as="geometry"/>
        </mxCell>
        <mxCell id="fVUSy1wS9ZmYaahi_EEB-7" value="&lt;p style=&quot;margin: 0px ; margin-top: 4px ; text-align: center&quot;&gt;&lt;b&gt;textElement&lt;/b&gt;&lt;/p&gt;&lt;hr size=&quot;1&quot;&gt;&lt;div style=&quot;height: 2px&quot;&gt;&lt;/div&gt;&lt;hr size=&quot;1&quot;&gt;&lt;div style=&quot;height: 2px&quot;&gt;&lt;/div&gt;" style="verticalAlign=top;align=left;overflow=fill;fontSize=12;fontFamily=Helvetica;html=1;" vertex="1" parent="fVUSy1wS9ZmYaahi_EEB-1">
          <mxGeometry x="460" y="180" width="140" height="60" as="geometry"/>
        </mxCell>
        <mxCell id="fVUSy1wS9ZmYaahi_EEB-9" value="&lt;p style=&quot;margin: 0px ; margin-top: 4px ; text-align: center&quot;&gt;&lt;b&gt;designer&lt;/b&gt;&lt;/p&gt;&lt;hr size=&quot;1&quot;&gt;&lt;div style=&quot;height: 2px&quot;&gt;&lt;/div&gt;&lt;hr size=&quot;1&quot;&gt;&lt;div style=&quot;height: 2px&quot;&gt;&lt;/div&gt;" style="verticalAlign=top;align=left;overflow=fill;fontSize=12;fontFamily=Helvetica;html=1;" vertex="1" parent="fVUSy1wS9ZmYaahi_EEB-1">
          <mxGeometry x="260" y="180" width="140" height="60" as="geometry"/>
        </mxCell>
        <mxCell id="fVUSy1wS9ZmYaahi_EEB-10" value="&lt;p style=&quot;margin: 0px ; margin-top: 4px ; text-align: center&quot;&gt;&lt;b&gt;designer&lt;/b&gt;&lt;/p&gt;&lt;hr size=&quot;1&quot;&gt;&lt;div style=&quot;height: 2px&quot;&gt;&lt;/div&gt;&lt;hr size=&quot;1&quot;&gt;&lt;div style=&quot;height: 2px&quot;&gt;&lt;/div&gt;" style="verticalAlign=top;align=left;overflow=fill;fontSize=12;fontFamily=Helvetica;html=1;" vertex="1" parent="fVUSy1wS9ZmYaahi_EEB-1">
          <mxGeometry x="430" y="300" width="140" height="60" as="geometry"/>
        </mxCell>
      </root>
    </mxGraphModel>
  </diagram>
  <diagram id="4g-3BaJ1nfAESFMzbrD5" name="Page-3">
    <mxGraphModel dx="1422" dy="794" grid="1" gridSize="10" guides="1" tooltips="1" connect="1" arrows="1" fold="1" page="1" pageScale="1" pageWidth="827" pageHeight="1169" math="0" shadow="0">
      <root>
        <mxCell id="RHPfG9bbSnmFqtGS209j-0"/>
        <mxCell id="RHPfG9bbSnmFqtGS209j-1" parent="RHPfG9bbSnmFqtGS209j-0"/>
        <mxCell id="RHPfG9bbSnmFqtGS209j-33" value="" style="rounded=1;arcSize=10;dashed=1;strokeColor=#000000;fillColor=none;gradientColor=none;dashPattern=8 3 1 3;strokeWidth=2;" parent="RHPfG9bbSnmFqtGS209j-1" vertex="1">
          <mxGeometry x="110" y="110" width="490" height="200" as="geometry"/>
        </mxCell>
        <mxCell id="RHPfG9bbSnmFqtGS209j-3" value="ERP" style="html=1;" parent="RHPfG9bbSnmFqtGS209j-1" vertex="1">
          <mxGeometry x="240" y="190" width="110" height="50" as="geometry"/>
        </mxCell>
        <mxCell id="RHPfG9bbSnmFqtGS209j-4" value="PrintClient" style="html=1;" parent="RHPfG9bbSnmFqtGS209j-1" vertex="1">
          <mxGeometry x="390" y="240" width="110" height="50" as="geometry"/>
        </mxCell>
        <mxCell id="RHPfG9bbSnmFqtGS209j-18" style="edgeStyle=orthogonalEdgeStyle;rounded=0;orthogonalLoop=1;jettySize=auto;html=1;entryX=0.5;entryY=0;entryDx=0;entryDy=0;" parent="RHPfG9bbSnmFqtGS209j-1" source="RHPfG9bbSnmFqtGS209j-6" edge="1">
          <mxGeometry relative="1" as="geometry">
            <mxPoint x="295" y="465" as="targetPoint"/>
          </mxGeometry>
        </mxCell>
        <mxCell id="RHPfG9bbSnmFqtGS209j-20" style="edgeStyle=orthogonalEdgeStyle;rounded=0;orthogonalLoop=1;jettySize=auto;html=1;" parent="RHPfG9bbSnmFqtGS209j-1" source="RHPfG9bbSnmFqtGS209j-6" target="RHPfG9bbSnmFqtGS209j-13" edge="1">
          <mxGeometry relative="1" as="geometry"/>
        </mxCell>
        <mxCell id="RHPfG9bbSnmFqtGS209j-21" style="edgeStyle=orthogonalEdgeStyle;rounded=0;orthogonalLoop=1;jettySize=auto;html=1;entryX=1;entryY=0.5;entryDx=0;entryDy=0;" parent="RHPfG9bbSnmFqtGS209j-1" source="RHPfG9bbSnmFqtGS209j-6" target="RHPfG9bbSnmFqtGS209j-7" edge="1">
          <mxGeometry relative="1" as="geometry"/>
        </mxCell>
        <mxCell id="RHPfG9bbSnmFqtGS209j-6" value="API" style="html=1;" parent="RHPfG9bbSnmFqtGS209j-1" vertex="1">
          <mxGeometry x="240" y="360" width="110" height="50" as="geometry"/>
        </mxCell>
        <mxCell id="RHPfG9bbSnmFqtGS209j-42" style="edgeStyle=orthogonalEdgeStyle;rounded=0;orthogonalLoop=1;jettySize=auto;html=1;entryX=0;entryY=0.5;entryDx=0;entryDy=0;" parent="RHPfG9bbSnmFqtGS209j-1" source="RHPfG9bbSnmFqtGS209j-7" target="RHPfG9bbSnmFqtGS209j-9" edge="1">
          <mxGeometry relative="1" as="geometry">
            <Array as="points">
              <mxPoint x="160" y="495"/>
            </Array>
          </mxGeometry>
        </mxCell>
        <mxCell id="RHPfG9bbSnmFqtGS209j-7" value="render(pdf)" style="html=1;" parent="RHPfG9bbSnmFqtGS209j-1" vertex="1">
          <mxGeometry x="120" y="360" width="95" height="50" as="geometry"/>
        </mxCell>
        <mxCell id="RHPfG9bbSnmFqtGS209j-24" style="edgeStyle=orthogonalEdgeStyle;rounded=0;orthogonalLoop=1;jettySize=auto;html=1;" parent="RHPfG9bbSnmFqtGS209j-1" source="RHPfG9bbSnmFqtGS209j-8" edge="1">
          <mxGeometry relative="1" as="geometry">
            <mxPoint x="295" y="530" as="targetPoint"/>
          </mxGeometry>
        </mxCell>
        <mxCell id="RHPfG9bbSnmFqtGS209j-26" style="edgeStyle=orthogonalEdgeStyle;rounded=0;orthogonalLoop=1;jettySize=auto;html=1;entryX=1;entryY=0.5;entryDx=0;entryDy=0;" parent="RHPfG9bbSnmFqtGS209j-1" source="RHPfG9bbSnmFqtGS209j-8" target="RHPfG9bbSnmFqtGS209j-13" edge="1">
          <mxGeometry relative="1" as="geometry">
            <mxPoint x="445" y="412" as="targetPoint"/>
          </mxGeometry>
        </mxCell>
        <mxCell id="RHPfG9bbSnmFqtGS209j-8" value="Manager" style="html=1;" parent="RHPfG9bbSnmFqtGS209j-1" vertex="1">
          <mxGeometry x="240" y="580" width="110" height="50" as="geometry"/>
        </mxCell>
        <mxCell id="RHPfG9bbSnmFqtGS209j-9" value="" style="shape=datastore;whiteSpace=wrap;html=1;" parent="RHPfG9bbSnmFqtGS209j-1" vertex="1">
          <mxGeometry x="265" y="465" width="60" height="60" as="geometry"/>
        </mxCell>
        <mxCell id="RHPfG9bbSnmFqtGS209j-22" style="edgeStyle=orthogonalEdgeStyle;rounded=0;orthogonalLoop=1;jettySize=auto;html=1;entryX=0.5;entryY=0;entryDx=0;entryDy=0;" parent="RHPfG9bbSnmFqtGS209j-1" source="RHPfG9bbSnmFqtGS209j-12" target="RHPfG9bbSnmFqtGS209j-6" edge="1">
          <mxGeometry relative="1" as="geometry"/>
        </mxCell>
        <mxCell id="RHPfG9bbSnmFqtGS209j-30" style="edgeStyle=orthogonalEdgeStyle;rounded=0;orthogonalLoop=1;jettySize=auto;html=1;entryX=1;entryY=0.25;entryDx=0;entryDy=0;exitX=0;exitY=0.5;exitDx=0;exitDy=0;" parent="RHPfG9bbSnmFqtGS209j-1" source="RHPfG9bbSnmFqtGS209j-12" target="RHPfG9bbSnmFqtGS209j-13" edge="1">
          <mxGeometry relative="1" as="geometry">
            <Array as="points">
              <mxPoint x="200" y="265"/>
              <mxPoint x="200" y="140"/>
              <mxPoint x="540" y="140"/>
              <mxPoint x="540" y="373"/>
            </Array>
          </mxGeometry>
        </mxCell>
        <mxCell id="RHPfG9bbSnmFqtGS209j-12" value="Carpa3" style="html=1;" parent="RHPfG9bbSnmFqtGS209j-1" vertex="1">
          <mxGeometry x="240" y="240" width="110" height="50" as="geometry"/>
        </mxCell>
        <mxCell id="RHPfG9bbSnmFqtGS209j-29" style="edgeStyle=orthogonalEdgeStyle;rounded=0;orthogonalLoop=1;jettySize=auto;html=1;entryX=0.5;entryY=1;entryDx=0;entryDy=0;" parent="RHPfG9bbSnmFqtGS209j-1" source="RHPfG9bbSnmFqtGS209j-13" target="RHPfG9bbSnmFqtGS209j-4" edge="1">
          <mxGeometry relative="1" as="geometry"/>
        </mxCell>
        <mxCell id="RHPfG9bbSnmFqtGS209j-39" style="edgeStyle=orthogonalEdgeStyle;rounded=0;orthogonalLoop=1;jettySize=auto;html=1;entryX=1;entryY=0.5;entryDx=0;entryDy=0;" parent="RHPfG9bbSnmFqtGS209j-1" source="RHPfG9bbSnmFqtGS209j-13" target="RHPfG9bbSnmFqtGS209j-9" edge="1">
          <mxGeometry relative="1" as="geometry">
            <Array as="points">
              <mxPoint x="430" y="495"/>
            </Array>
          </mxGeometry>
        </mxCell>
        <mxCell id="RHPfG9bbSnmFqtGS209j-13" value="designer" style="html=1;" parent="RHPfG9bbSnmFqtGS209j-1" vertex="1">
          <mxGeometry x="390" y="360" width="110" height="50" as="geometry"/>
        </mxCell>
        <mxCell id="RHPfG9bbSnmFqtGS209j-15" value="" style="endArrow=block;endFill=1;endSize=6;html=1;entryX=0;entryY=0.5;entryDx=0;entryDy=0;exitX=1;exitY=0.5;exitDx=0;exitDy=0;" parent="RHPfG9bbSnmFqtGS209j-1" source="RHPfG9bbSnmFqtGS209j-12" target="RHPfG9bbSnmFqtGS209j-4" edge="1">
          <mxGeometry width="100" relative="1" as="geometry">
            <mxPoint x="388" y="229.2193308550186" as="sourcePoint"/>
            <mxPoint x="680" y="510" as="targetPoint"/>
          </mxGeometry>
        </mxCell>
        <mxCell id="RHPfG9bbSnmFqtGS209j-43" value="" style="rounded=1;arcSize=10;dashed=1;strokeColor=#000000;fillColor=none;gradientColor=none;dashPattern=8 3 1 3;strokeWidth=2;" parent="RHPfG9bbSnmFqtGS209j-1" vertex="1">
          <mxGeometry x="100" y="330" width="510" height="340" as="geometry"/>
        </mxCell>
      </root>
    </mxGraphModel>
  </diagram>
  <diagram id="2RAc1FToBZxkx6g56VeS" name="Page-4">
    <mxGraphModel dx="1422" dy="794" grid="1" gridSize="10" guides="1" tooltips="1" connect="1" arrows="1" fold="1" page="1" pageScale="1" pageWidth="827" pageHeight="1169" math="0" shadow="0">
      <root>
        <mxCell id="eQsvFzjqt90aGZnp6RCj-0"/>
        <mxCell id="eQsvFzjqt90aGZnp6RCj-1" parent="eQsvFzjqt90aGZnp6RCj-0"/>
        <mxCell id="eQsvFzjqt90aGZnp6RCj-3" value="PrintClient" style="html=1;" parent="eQsvFzjqt90aGZnp6RCj-1" vertex="1">
          <mxGeometry x="400" y="240" width="110" height="50" as="geometry"/>
        </mxCell>
        <mxCell id="eQsvFzjqt90aGZnp6RCj-6" style="edgeStyle=orthogonalEdgeStyle;rounded=0;orthogonalLoop=1;jettySize=auto;html=1;entryX=1;entryY=0.5;entryDx=0;entryDy=0;" parent="eQsvFzjqt90aGZnp6RCj-1" source="eQsvFzjqt90aGZnp6RCj-7" target="eQsvFzjqt90aGZnp6RCj-9" edge="1">
          <mxGeometry relative="1" as="geometry"/>
        </mxCell>
        <mxCell id="eQsvFzjqt90aGZnp6RCj-7" value="API" style="html=1;" parent="eQsvFzjqt90aGZnp6RCj-1" vertex="1">
          <mxGeometry x="240" y="360" width="110" height="50" as="geometry"/>
        </mxCell>
        <mxCell id="eQsvFzjqt90aGZnp6RCj-9" value="render(pdf)" style="html=1;" parent="eQsvFzjqt90aGZnp6RCj-1" vertex="1">
          <mxGeometry x="120" y="360" width="95" height="50" as="geometry"/>
        </mxCell>
        <mxCell id="eQsvFzjqt90aGZnp6RCj-12" value="Manager" style="html=1;" parent="eQsvFzjqt90aGZnp6RCj-1" vertex="1">
          <mxGeometry x="240" y="580" width="110" height="50" as="geometry"/>
        </mxCell>
        <mxCell id="eQsvFzjqt90aGZnp6RCj-13" value="" style="shape=datastore;whiteSpace=wrap;html=1;" parent="eQsvFzjqt90aGZnp6RCj-1" vertex="1">
          <mxGeometry x="265" y="465" width="60" height="60" as="geometry"/>
        </mxCell>
        <mxCell id="eQsvFzjqt90aGZnp6RCj-16" value="Carpa3" style="html=1;" parent="eQsvFzjqt90aGZnp6RCj-1" vertex="1">
          <mxGeometry x="240" y="215" width="110" height="50" as="geometry"/>
        </mxCell>
        <mxCell id="eQsvFzjqt90aGZnp6RCj-19" value="designer" style="html=1;" parent="eQsvFzjqt90aGZnp6RCj-1" vertex="1">
          <mxGeometry x="240" y="265" width="110" height="50" as="geometry"/>
        </mxCell>
      </root>
    </mxGraphModel>
  </diagram>
  <diagram id="zPoORe4KRgJn9RjFVXxD" name="oldprint">
    <mxGraphModel dx="1662" dy="794" grid="1" gridSize="10" guides="1" tooltips="1" connect="1" arrows="1" fold="1" page="1" pageScale="1" pageWidth="827" pageHeight="1169" math="0" shadow="0">
      <root>
        <mxCell id="7W_P4amZgrFeNrBbQ7yq-0"/>
        <mxCell id="7W_P4amZgrFeNrBbQ7yq-1" parent="7W_P4amZgrFeNrBbQ7yq-0"/>
        <mxCell id="7W_P4amZgrFeNrBbQ7yq-20" value="打印服务端" style="verticalAlign=top;align=left;spacingTop=8;spacingLeft=2;spacingRight=12;shape=cube;size=10;direction=south;fontStyle=4;html=1;" parent="7W_P4amZgrFeNrBbQ7yq-1" vertex="1">
          <mxGeometry x="770" y="380" width="280" height="411" as="geometry"/>
        </mxCell>
        <mxCell id="7W_P4amZgrFeNrBbQ7yq-17" value="GraspReportSvr打印客户端" style="verticalAlign=top;align=left;spacingTop=8;spacingLeft=2;spacingRight=12;shape=cube;size=10;direction=south;fontStyle=4;html=1;" parent="7W_P4amZgrFeNrBbQ7yq-1" vertex="1">
          <mxGeometry x="107" y="377" width="540" height="420" as="geometry"/>
        </mxCell>
        <mxCell id="7W_P4amZgrFeNrBbQ7yq-12" style="edgeStyle=orthogonalEdgeStyle;rounded=0;orthogonalLoop=1;jettySize=auto;html=1;entryX=0.017;entryY=0.588;entryDx=0;entryDy=0;entryPerimeter=0;" parent="7W_P4amZgrFeNrBbQ7yq-1" source="7W_P4amZgrFeNrBbQ7yq-2" target="7W_P4amZgrFeNrBbQ7yq-8" edge="1">
          <mxGeometry relative="1" as="geometry"/>
        </mxCell>
        <mxCell id="7W_P4amZgrFeNrBbQ7yq-22" value="升级安装" style="text;html=1;resizable=0;points=[];align=center;verticalAlign=middle;labelBackgroundColor=#ffffff;" parent="7W_P4amZgrFeNrBbQ7yq-12" vertex="1" connectable="0">
          <mxGeometry x="-0.1068" y="-1" relative="1" as="geometry">
            <mxPoint as="offset"/>
          </mxGeometry>
        </mxCell>
        <mxCell id="7W_P4amZgrFeNrBbQ7yq-13" style="rounded=0;orthogonalLoop=1;jettySize=auto;html=1;entryX=0.558;entryY=0.025;entryDx=0;entryDy=0;entryPerimeter=0;" parent="7W_P4amZgrFeNrBbQ7yq-1" source="7W_P4amZgrFeNrBbQ7yq-2" target="7W_P4amZgrFeNrBbQ7yq-3" edge="1">
          <mxGeometry relative="1" as="geometry"/>
        </mxCell>
        <mxCell id="7W_P4amZgrFeNrBbQ7yq-14" style="rounded=0;orthogonalLoop=1;jettySize=auto;html=1;" parent="7W_P4amZgrFeNrBbQ7yq-1" source="7W_P4amZgrFeNrBbQ7yq-2" target="7W_P4amZgrFeNrBbQ7yq-4" edge="1">
          <mxGeometry relative="1" as="geometry"/>
        </mxCell>
        <mxCell id="7W_P4amZgrFeNrBbQ7yq-15" style="rounded=0;orthogonalLoop=1;jettySize=auto;html=1;entryX=0.442;entryY=-0.062;entryDx=0;entryDy=0;entryPerimeter=0;" parent="7W_P4amZgrFeNrBbQ7yq-1" source="7W_P4amZgrFeNrBbQ7yq-2" target="7W_P4amZgrFeNrBbQ7yq-5" edge="1">
          <mxGeometry relative="1" as="geometry"/>
        </mxCell>
        <mxCell id="7W_P4amZgrFeNrBbQ7yq-16" style="rounded=0;orthogonalLoop=1;jettySize=auto;html=1;" parent="7W_P4amZgrFeNrBbQ7yq-1" source="7W_P4amZgrFeNrBbQ7yq-2" target="7W_P4amZgrFeNrBbQ7yq-6" edge="1">
          <mxGeometry relative="1" as="geometry"/>
        </mxCell>
        <mxCell id="7W_P4amZgrFeNrBbQ7yq-2" value="GraspReportSrv.exe" style="shape=ext;rounded=1;html=1;whiteSpace=wrap;" parent="7W_P4amZgrFeNrBbQ7yq-1" vertex="1">
          <mxGeometry x="300" y="424" width="120" height="80" as="geometry"/>
        </mxCell>
        <mxCell id="7W_P4amZgrFeNrBbQ7yq-23" style="edgeStyle=none;rounded=0;orthogonalLoop=1;jettySize=auto;html=1;exitX=0.858;exitY=0;exitDx=0;exitDy=0;exitPerimeter=0;" parent="7W_P4amZgrFeNrBbQ7yq-1" source="7W_P4amZgrFeNrBbQ7yq-3" target="7W_P4amZgrFeNrBbQ7yq-8" edge="1">
          <mxGeometry relative="1" as="geometry"/>
        </mxCell>
        <mxCell id="FvczVwc3U7X9nAuYHHl1-0" value="云样式" style="text;html=1;resizable=0;points=[];align=center;verticalAlign=middle;labelBackgroundColor=#ffffff;" parent="7W_P4amZgrFeNrBbQ7yq-23" vertex="1" connectable="0">
          <mxGeometry x="0.0724" y="-1" relative="1" as="geometry">
            <mxPoint as="offset"/>
          </mxGeometry>
        </mxCell>
        <mxCell id="7W_P4amZgrFeNrBbQ7yq-3" value="cprint.dll" style="shape=ext;rounded=1;html=1;whiteSpace=wrap;" parent="7W_P4amZgrFeNrBbQ7yq-1" vertex="1">
          <mxGeometry x="140" y="654" width="120" height="80" as="geometry"/>
        </mxCell>
        <mxCell id="7W_P4amZgrFeNrBbQ7yq-24" style="edgeStyle=none;rounded=0;orthogonalLoop=1;jettySize=auto;html=1;exitX=0.75;exitY=0;exitDx=0;exitDy=0;" parent="7W_P4amZgrFeNrBbQ7yq-1" source="7W_P4amZgrFeNrBbQ7yq-4" target="7W_P4amZgrFeNrBbQ7yq-8" edge="1">
          <mxGeometry relative="1" as="geometry"/>
        </mxCell>
        <mxCell id="7W_P4amZgrFeNrBbQ7yq-4" value="report.dll" style="shape=ext;rounded=1;html=1;whiteSpace=wrap;" parent="7W_P4amZgrFeNrBbQ7yq-1" vertex="1">
          <mxGeometry x="260" y="654" width="120" height="80" as="geometry"/>
        </mxCell>
        <mxCell id="7W_P4amZgrFeNrBbQ7yq-5" value="barcode.dll" style="shape=ext;rounded=1;html=1;whiteSpace=wrap;" parent="7W_P4amZgrFeNrBbQ7yq-1" vertex="1">
          <mxGeometry x="380" y="654" width="120" height="80" as="geometry"/>
        </mxCell>
        <mxCell id="7W_P4amZgrFeNrBbQ7yq-6" value="billprint.dll" style="shape=ext;rounded=1;html=1;whiteSpace=wrap;" parent="7W_P4amZgrFeNrBbQ7yq-1" vertex="1">
          <mxGeometry x="493" y="654" width="120" height="80" as="geometry"/>
        </mxCell>
        <mxCell id="7W_P4amZgrFeNrBbQ7yq-11" style="edgeStyle=orthogonalEdgeStyle;rounded=0;orthogonalLoop=1;jettySize=auto;html=1;" parent="7W_P4amZgrFeNrBbQ7yq-1" source="7W_P4amZgrFeNrBbQ7yq-7" target="7W_P4amZgrFeNrBbQ7yq-9" edge="1">
          <mxGeometry relative="1" as="geometry"/>
        </mxCell>
        <mxCell id="7W_P4amZgrFeNrBbQ7yq-7" value="Manager(.Net)" style="shape=ext;rounded=1;html=1;whiteSpace=wrap;" parent="7W_P4amZgrFeNrBbQ7yq-1" vertex="1">
          <mxGeometry x="830" y="677" width="120" height="80" as="geometry"/>
        </mxCell>
        <mxCell id="7W_P4amZgrFeNrBbQ7yq-10" style="edgeStyle=orthogonalEdgeStyle;rounded=0;orthogonalLoop=1;jettySize=auto;html=1;entryX=0.5;entryY=0;entryDx=0;entryDy=0;" parent="7W_P4amZgrFeNrBbQ7yq-1" source="7W_P4amZgrFeNrBbQ7yq-8" target="7W_P4amZgrFeNrBbQ7yq-9" edge="1">
          <mxGeometry relative="1" as="geometry"/>
        </mxCell>
        <mxCell id="7W_P4amZgrFeNrBbQ7yq-8" value="ApI（.Net）" style="shape=ext;rounded=1;html=1;whiteSpace=wrap;" parent="7W_P4amZgrFeNrBbQ7yq-1" vertex="1">
          <mxGeometry x="830" y="417" width="120" height="80" as="geometry"/>
        </mxCell>
        <mxCell id="7W_P4amZgrFeNrBbQ7yq-9" value="database" style="shape=datastore;whiteSpace=wrap;html=1;" parent="7W_P4amZgrFeNrBbQ7yq-1" vertex="1">
          <mxGeometry x="860" y="557" width="60" height="60" as="geometry"/>
        </mxCell>
        <mxCell id="7W_P4amZgrFeNrBbQ7yq-18" value="产品web端" style="verticalAlign=top;align=left;spacingTop=8;spacingLeft=2;spacingRight=12;shape=cube;size=10;direction=south;fontStyle=4;html=1;" parent="7W_P4amZgrFeNrBbQ7yq-1" vertex="1">
          <mxGeometry x="107" y="200" width="520" height="120" as="geometry"/>
        </mxCell>
        <mxCell id="7W_P4amZgrFeNrBbQ7yq-25" value="云样式" style="text;html=1;resizable=0;points=[];autosize=1;align=left;verticalAlign=top;spacingTop=-4;" parent="7W_P4amZgrFeNrBbQ7yq-1" vertex="1">
          <mxGeometry x="602" y="538" width="50" height="20" as="geometry"/>
        </mxCell>
        <mxCell id="guIqVMI_MzQHFYZH1WRR-0" value="carpa3" style="html=1;" parent="7W_P4amZgrFeNrBbQ7yq-1" vertex="1">
          <mxGeometry x="305" y="260" width="110" height="50" as="geometry"/>
        </mxCell>
        <mxCell id="7W_P4amZgrFeNrBbQ7yq-19" style="edgeStyle=none;rounded=0;orthogonalLoop=1;jettySize=auto;html=1;exitX=0.5;exitY=1;exitDx=0;exitDy=0;" parent="7W_P4amZgrFeNrBbQ7yq-1" source="guIqVMI_MzQHFYZH1WRR-0" edge="1">
          <mxGeometry relative="1" as="geometry">
            <mxPoint x="360" y="420" as="targetPoint"/>
          </mxGeometry>
        </mxCell>
        <mxCell id="7W_P4amZgrFeNrBbQ7yq-21" value="http" style="text;html=1;resizable=0;points=[];align=center;verticalAlign=middle;labelBackgroundColor=#ffffff;" parent="7W_P4amZgrFeNrBbQ7yq-19" vertex="1" connectable="0">
          <mxGeometry x="-0.2706" y="-3" relative="1" as="geometry">
            <mxPoint as="offset"/>
          </mxGeometry>
        </mxCell>
        <mxCell id="exvond_ArearRX20bD5K-0" value="&lt;b&gt;&lt;font style=&quot;font-size: 24px&quot;&gt;GraspReportSvr打印模式&lt;/font&gt;&lt;/b&gt;" style="text;html=1;strokeColor=none;fillColor=none;align=center;verticalAlign=middle;whiteSpace=wrap;rounded=0;" parent="7W_P4amZgrFeNrBbQ7yq-1" vertex="1">
          <mxGeometry x="80" y="150" width="290" height="20" as="geometry"/>
        </mxCell>
      </root>
    </mxGraphModel>
  </diagram>
  <diagram id="nRLl6bzKFLuZPRJvylD4" name="newprint local">
    <mxGraphModel dx="782" dy="579" grid="1" gridSize="10" guides="1" tooltips="1" connect="1" arrows="1" fold="1" page="1" pageScale="1" pageWidth="827" pageHeight="1169" math="0" shadow="0">
      <root>
        <mxCell id="c_YST7R3yj25FNf7m_A6-0"/>
        <mxCell id="c_YST7R3yj25FNf7m_A6-1" parent="c_YST7R3yj25FNf7m_A6-0"/>
        <mxCell id="wVXVZlJPEzaspN99SlVb-6" value="打印服务端" style="verticalAlign=top;align=left;spacingTop=8;spacingLeft=2;spacingRight=12;shape=cube;size=10;direction=south;fontStyle=4;html=1;" parent="c_YST7R3yj25FNf7m_A6-1" vertex="1">
          <mxGeometry x="645" y="380" width="420" height="350" as="geometry"/>
        </mxCell>
        <mxCell id="wVXVZlJPEzaspN99SlVb-5" value="Teemo打印客户端" style="verticalAlign=top;align=left;spacingTop=8;spacingLeft=2;spacingRight=12;shape=cube;size=10;direction=south;fontStyle=4;html=1;" parent="c_YST7R3yj25FNf7m_A6-1" vertex="1">
          <mxGeometry x="55" y="380" width="530" height="350" as="geometry"/>
        </mxCell>
        <mxCell id="ELb1Hus1aQVM730MEKDy-5" style="edgeStyle=none;rounded=0;orthogonalLoop=1;jettySize=auto;html=1;entryX=0.5;entryY=0;entryDx=0;entryDy=0;" parent="c_YST7R3yj25FNf7m_A6-1" source="ELb1Hus1aQVM730MEKDy-0" target="ELb1Hus1aQVM730MEKDy-1" edge="1">
          <mxGeometry relative="1" as="geometry"/>
        </mxCell>
        <mxCell id="wVXVZlJPEzaspN99SlVb-0" style="edgeStyle=none;rounded=0;orthogonalLoop=1;jettySize=auto;html=1;entryX=0;entryY=0.5;entryDx=0;entryDy=0;startArrow=classic;startFill=1;" parent="c_YST7R3yj25FNf7m_A6-1" source="ELb1Hus1aQVM730MEKDy-0" target="ELb1Hus1aQVM730MEKDy-11" edge="1">
          <mxGeometry relative="1" as="geometry"/>
        </mxCell>
        <mxCell id="lueIL5sHKjoFeUX91_Q8-1" value="socket.io 升级安装" style="text;html=1;resizable=0;points=[];align=center;verticalAlign=middle;labelBackgroundColor=#ffffff;" parent="wVXVZlJPEzaspN99SlVb-0" vertex="1" connectable="0">
          <mxGeometry x="-0.1318" y="-2" relative="1" as="geometry">
            <mxPoint as="offset"/>
          </mxGeometry>
        </mxCell>
        <mxCell id="ELb1Hus1aQVM730MEKDy-0" value="TeemoClient.exe" style="html=1;" parent="c_YST7R3yj25FNf7m_A6-1" vertex="1">
          <mxGeometry x="235" y="420" width="110" height="50" as="geometry"/>
        </mxCell>
        <mxCell id="ELb1Hus1aQVM730MEKDy-6" style="edgeStyle=none;rounded=0;orthogonalLoop=1;jettySize=auto;html=1;entryX=0.5;entryY=0;entryDx=0;entryDy=0;" parent="c_YST7R3yj25FNf7m_A6-1" source="ELb1Hus1aQVM730MEKDy-1" target="ELb1Hus1aQVM730MEKDy-2" edge="1">
          <mxGeometry relative="1" as="geometry"/>
        </mxCell>
        <mxCell id="ELb1Hus1aQVM730MEKDy-7" style="edgeStyle=none;rounded=0;orthogonalLoop=1;jettySize=auto;html=1;entryX=0.591;entryY=0;entryDx=0;entryDy=0;entryPerimeter=0;" parent="c_YST7R3yj25FNf7m_A6-1" source="ELb1Hus1aQVM730MEKDy-1" target="ELb1Hus1aQVM730MEKDy-3" edge="1">
          <mxGeometry relative="1" as="geometry"/>
        </mxCell>
        <mxCell id="ELb1Hus1aQVM730MEKDy-8" style="edgeStyle=none;rounded=0;orthogonalLoop=1;jettySize=auto;html=1;entryX=0.5;entryY=0;entryDx=0;entryDy=0;" parent="c_YST7R3yj25FNf7m_A6-1" source="ELb1Hus1aQVM730MEKDy-1" target="ELb1Hus1aQVM730MEKDy-4" edge="1">
          <mxGeometry relative="1" as="geometry"/>
        </mxCell>
        <mxCell id="ELb1Hus1aQVM730MEKDy-10" style="edgeStyle=none;rounded=0;orthogonalLoop=1;jettySize=auto;html=1;entryX=0.382;entryY=0;entryDx=0;entryDy=0;entryPerimeter=0;" parent="c_YST7R3yj25FNf7m_A6-1" source="ELb1Hus1aQVM730MEKDy-1" target="ELb1Hus1aQVM730MEKDy-9" edge="1">
          <mxGeometry relative="1" as="geometry"/>
        </mxCell>
        <mxCell id="wVXVZlJPEzaspN99SlVb-1" style="edgeStyle=none;rounded=0;orthogonalLoop=1;jettySize=auto;html=1;entryX=0;entryY=0.75;entryDx=0;entryDy=0;" parent="c_YST7R3yj25FNf7m_A6-1" source="ELb1Hus1aQVM730MEKDy-1" target="ELb1Hus1aQVM730MEKDy-11" edge="1">
          <mxGeometry relative="1" as="geometry"/>
        </mxCell>
        <mxCell id="lueIL5sHKjoFeUX91_Q8-0" value="云样式" style="text;html=1;resizable=0;points=[];align=center;verticalAlign=middle;labelBackgroundColor=#ffffff;" parent="wVXVZlJPEzaspN99SlVb-1" vertex="1" connectable="0">
          <mxGeometry x="-0.1018" y="-1" relative="1" as="geometry">
            <mxPoint as="offset"/>
          </mxGeometry>
        </mxCell>
        <mxCell id="ELb1Hus1aQVM730MEKDy-1" value="Invoke.dll" style="html=1;" parent="c_YST7R3yj25FNf7m_A6-1" vertex="1">
          <mxGeometry x="235" y="510" width="110" height="50" as="geometry"/>
        </mxCell>
        <mxCell id="ELb1Hus1aQVM730MEKDy-2" value="cprint.dll" style="html=1;" parent="c_YST7R3yj25FNf7m_A6-1" vertex="1">
          <mxGeometry x="70" y="620" width="110" height="50" as="geometry"/>
        </mxCell>
        <mxCell id="ELb1Hus1aQVM730MEKDy-3" value="report.dll" style="html=1;" parent="c_YST7R3yj25FNf7m_A6-1" vertex="1">
          <mxGeometry x="180" y="620" width="110" height="50" as="geometry"/>
        </mxCell>
        <mxCell id="ELb1Hus1aQVM730MEKDy-4" value="barcode.dll" style="html=1;" parent="c_YST7R3yj25FNf7m_A6-1" vertex="1">
          <mxGeometry x="290" y="620" width="110" height="50" as="geometry"/>
        </mxCell>
        <mxCell id="ELb1Hus1aQVM730MEKDy-9" value="billprint.dll" style="html=1;" parent="c_YST7R3yj25FNf7m_A6-1" vertex="1">
          <mxGeometry x="400" y="620" width="110" height="50" as="geometry"/>
        </mxCell>
        <mxCell id="7OXuG-GzCOp89bP3kd3g-3" style="edgeStyle=none;rounded=0;orthogonalLoop=1;jettySize=auto;html=1;" parent="c_YST7R3yj25FNf7m_A6-1" source="ELb1Hus1aQVM730MEKDy-11" target="7OXuG-GzCOp89bP3kd3g-1" edge="1">
          <mxGeometry relative="1" as="geometry"/>
        </mxCell>
        <mxCell id="7OXuG-GzCOp89bP3kd3g-4" style="edgeStyle=none;rounded=0;orthogonalLoop=1;jettySize=auto;html=1;" parent="c_YST7R3yj25FNf7m_A6-1" source="ELb1Hus1aQVM730MEKDy-11" target="ELb1Hus1aQVM730MEKDy-12" edge="1">
          <mxGeometry relative="1" as="geometry"/>
        </mxCell>
        <mxCell id="ELb1Hus1aQVM730MEKDy-11" value="api（nodejs）" style="html=1;" parent="c_YST7R3yj25FNf7m_A6-1" vertex="1">
          <mxGeometry x="732" y="420" width="110" height="50" as="geometry"/>
        </mxCell>
        <mxCell id="7OXuG-GzCOp89bP3kd3g-5" style="edgeStyle=none;rounded=0;orthogonalLoop=1;jettySize=auto;html=1;entryX=0.85;entryY=0.05;entryDx=0;entryDy=0;entryPerimeter=0;" parent="c_YST7R3yj25FNf7m_A6-1" source="ELb1Hus1aQVM730MEKDy-12" target="7OXuG-GzCOp89bP3kd3g-1" edge="1">
          <mxGeometry relative="1" as="geometry"/>
        </mxCell>
        <mxCell id="ELb1Hus1aQVM730MEKDy-12" value="render(pdf/excel)" style="html=1;" parent="c_YST7R3yj25FNf7m_A6-1" vertex="1">
          <mxGeometry x="905" y="420" width="110" height="50" as="geometry"/>
        </mxCell>
        <mxCell id="7OXuG-GzCOp89bP3kd3g-2" style="edgeStyle=none;rounded=0;orthogonalLoop=1;jettySize=auto;html=1;entryX=0.5;entryY=1;entryDx=0;entryDy=0;" parent="c_YST7R3yj25FNf7m_A6-1" source="7OXuG-GzCOp89bP3kd3g-0" target="7OXuG-GzCOp89bP3kd3g-1" edge="1">
          <mxGeometry relative="1" as="geometry"/>
        </mxCell>
        <mxCell id="7OXuG-GzCOp89bP3kd3g-0" value="manager（nodejs）" style="html=1;" parent="c_YST7R3yj25FNf7m_A6-1" vertex="1">
          <mxGeometry x="800" y="620" width="110" height="50" as="geometry"/>
        </mxCell>
        <mxCell id="7OXuG-GzCOp89bP3kd3g-1" value="database" style="shape=datastore;whiteSpace=wrap;html=1;" parent="c_YST7R3yj25FNf7m_A6-1" vertex="1">
          <mxGeometry x="825" y="510" width="60" height="60" as="geometry"/>
        </mxCell>
        <mxCell id="wVXVZlJPEzaspN99SlVb-2" value="产品web端" style="verticalAlign=top;align=left;spacingTop=8;spacingLeft=2;spacingRight=12;shape=cube;size=10;direction=south;fontStyle=4;html=1;" parent="c_YST7R3yj25FNf7m_A6-1" vertex="1">
          <mxGeometry x="55" y="220" width="530" height="120" as="geometry"/>
        </mxCell>
        <mxCell id="Ahp-o08RelP8LjvlRv9d-0" value="capra3" style="html=1;" parent="c_YST7R3yj25FNf7m_A6-1" vertex="1">
          <mxGeometry x="234" y="280" width="110" height="50" as="geometry"/>
        </mxCell>
        <mxCell id="wVXVZlJPEzaspN99SlVb-3" style="edgeStyle=none;rounded=0;orthogonalLoop=1;jettySize=auto;html=1;" parent="c_YST7R3yj25FNf7m_A6-1" source="Ahp-o08RelP8LjvlRv9d-0" target="ELb1Hus1aQVM730MEKDy-0" edge="1">
          <mxGeometry relative="1" as="geometry">
            <mxPoint x="291" y="343" as="sourcePoint"/>
          </mxGeometry>
        </mxCell>
        <mxCell id="Dmi2TvApH2iOahHvYNBw-1" value="&lt;font style=&quot;font-size: 24px&quot;&gt;&lt;b&gt;Teemo-本地打印模式&lt;/b&gt;&lt;/font&gt;" style="text;html=1;strokeColor=none;fillColor=none;align=center;verticalAlign=middle;whiteSpace=wrap;rounded=0;" parent="c_YST7R3yj25FNf7m_A6-1" vertex="1">
          <mxGeometry x="70" y="160" width="240" height="20" as="geometry"/>
        </mxCell>
      </root>
    </mxGraphModel>
  </diagram>
  <diagram id="2bSIBwlVYYN8tphBPkcS" name="newprintremote">
    <mxGraphModel dx="1422" dy="828" grid="1" gridSize="10" guides="1" tooltips="1" connect="1" arrows="1" fold="1" page="1" pageScale="1" pageWidth="827" pageHeight="1169" math="0" shadow="0">
      <root>
        <mxCell id="Ck8itT5Yb6rJNxxNIPB3-0"/>
        <mxCell id="Ck8itT5Yb6rJNxxNIPB3-1" parent="Ck8itT5Yb6rJNxxNIPB3-0"/>
        <mxCell id="Ck8itT5Yb6rJNxxNIPB3-2" value="打印服务端" style="verticalAlign=top;align=left;spacingTop=8;spacingLeft=2;spacingRight=12;shape=cube;size=10;direction=south;fontStyle=4;html=1;" parent="Ck8itT5Yb6rJNxxNIPB3-1" vertex="1">
          <mxGeometry x="700" y="340" width="420" height="350" as="geometry"/>
        </mxCell>
        <mxCell id="Ck8itT5Yb6rJNxxNIPB3-3" value="Teemo打印客户端" style="verticalAlign=top;align=left;spacingTop=8;spacingLeft=2;spacingRight=12;shape=cube;size=10;direction=south;fontStyle=4;html=1;" parent="Ck8itT5Yb6rJNxxNIPB3-1" vertex="1">
          <mxGeometry x="110" y="340" width="530" height="350" as="geometry"/>
        </mxCell>
        <mxCell id="Ck8itT5Yb6rJNxxNIPB3-4" style="edgeStyle=none;rounded=0;orthogonalLoop=1;jettySize=auto;html=1;entryX=0.5;entryY=0;entryDx=0;entryDy=0;" parent="Ck8itT5Yb6rJNxxNIPB3-1" source="Ck8itT5Yb6rJNxxNIPB3-6" target="Ck8itT5Yb6rJNxxNIPB3-12" edge="1">
          <mxGeometry relative="1" as="geometry"/>
        </mxCell>
        <mxCell id="Ck8itT5Yb6rJNxxNIPB3-6" value="TeemoClient.exe" style="html=1;" parent="Ck8itT5Yb6rJNxxNIPB3-1" vertex="1">
          <mxGeometry x="290" y="380" width="110" height="50" as="geometry"/>
        </mxCell>
        <mxCell id="Ck8itT5Yb6rJNxxNIPB3-7" style="edgeStyle=none;rounded=0;orthogonalLoop=1;jettySize=auto;html=1;entryX=0.5;entryY=0;entryDx=0;entryDy=0;" parent="Ck8itT5Yb6rJNxxNIPB3-1" source="Ck8itT5Yb6rJNxxNIPB3-12" target="Ck8itT5Yb6rJNxxNIPB3-13" edge="1">
          <mxGeometry relative="1" as="geometry"/>
        </mxCell>
        <mxCell id="Ck8itT5Yb6rJNxxNIPB3-8" style="edgeStyle=none;rounded=0;orthogonalLoop=1;jettySize=auto;html=1;entryX=0.591;entryY=0;entryDx=0;entryDy=0;entryPerimeter=0;" parent="Ck8itT5Yb6rJNxxNIPB3-1" source="Ck8itT5Yb6rJNxxNIPB3-12" target="Ck8itT5Yb6rJNxxNIPB3-14" edge="1">
          <mxGeometry relative="1" as="geometry"/>
        </mxCell>
        <mxCell id="Ck8itT5Yb6rJNxxNIPB3-9" style="edgeStyle=none;rounded=0;orthogonalLoop=1;jettySize=auto;html=1;entryX=0.5;entryY=0;entryDx=0;entryDy=0;" parent="Ck8itT5Yb6rJNxxNIPB3-1" source="Ck8itT5Yb6rJNxxNIPB3-12" target="Ck8itT5Yb6rJNxxNIPB3-15" edge="1">
          <mxGeometry relative="1" as="geometry"/>
        </mxCell>
        <mxCell id="Ck8itT5Yb6rJNxxNIPB3-10" style="edgeStyle=none;rounded=0;orthogonalLoop=1;jettySize=auto;html=1;entryX=0.382;entryY=0;entryDx=0;entryDy=0;entryPerimeter=0;" parent="Ck8itT5Yb6rJNxxNIPB3-1" source="Ck8itT5Yb6rJNxxNIPB3-12" target="Ck8itT5Yb6rJNxxNIPB3-16" edge="1">
          <mxGeometry relative="1" as="geometry"/>
        </mxCell>
        <mxCell id="Ck8itT5Yb6rJNxxNIPB3-11" style="edgeStyle=none;rounded=0;orthogonalLoop=1;jettySize=auto;html=1;entryX=0;entryY=0.75;entryDx=0;entryDy=0;" parent="Ck8itT5Yb6rJNxxNIPB3-1" source="Ck8itT5Yb6rJNxxNIPB3-12" target="Ck8itT5Yb6rJNxxNIPB3-19" edge="1">
          <mxGeometry relative="1" as="geometry"/>
        </mxCell>
        <mxCell id="OIK_fzuuG9Jip0N0s3FQ-0" value="云样式" style="text;html=1;resizable=0;points=[];align=center;verticalAlign=middle;labelBackgroundColor=#ffffff;" parent="Ck8itT5Yb6rJNxxNIPB3-11" vertex="1" connectable="0">
          <mxGeometry x="-0.1646" y="-2" relative="1" as="geometry">
            <mxPoint as="offset"/>
          </mxGeometry>
        </mxCell>
        <mxCell id="Ck8itT5Yb6rJNxxNIPB3-12" value="Invoke.dll" style="html=1;" parent="Ck8itT5Yb6rJNxxNIPB3-1" vertex="1">
          <mxGeometry x="290" y="470" width="110" height="50" as="geometry"/>
        </mxCell>
        <mxCell id="Ck8itT5Yb6rJNxxNIPB3-13" value="cprint.dll" style="html=1;" parent="Ck8itT5Yb6rJNxxNIPB3-1" vertex="1">
          <mxGeometry x="125" y="580" width="110" height="50" as="geometry"/>
        </mxCell>
        <mxCell id="Ck8itT5Yb6rJNxxNIPB3-14" value="report.dll" style="html=1;" parent="Ck8itT5Yb6rJNxxNIPB3-1" vertex="1">
          <mxGeometry x="235" y="580" width="110" height="50" as="geometry"/>
        </mxCell>
        <mxCell id="Ck8itT5Yb6rJNxxNIPB3-15" value="barcode.dll" style="html=1;" parent="Ck8itT5Yb6rJNxxNIPB3-1" vertex="1">
          <mxGeometry x="345" y="580" width="110" height="50" as="geometry"/>
        </mxCell>
        <mxCell id="Ck8itT5Yb6rJNxxNIPB3-16" value="billprint.dll" style="html=1;" parent="Ck8itT5Yb6rJNxxNIPB3-1" vertex="1">
          <mxGeometry x="455" y="580" width="110" height="50" as="geometry"/>
        </mxCell>
        <mxCell id="Ck8itT5Yb6rJNxxNIPB3-17" style="edgeStyle=none;rounded=0;orthogonalLoop=1;jettySize=auto;html=1;" parent="Ck8itT5Yb6rJNxxNIPB3-1" source="Ck8itT5Yb6rJNxxNIPB3-19" target="Ck8itT5Yb6rJNxxNIPB3-24" edge="1">
          <mxGeometry relative="1" as="geometry"/>
        </mxCell>
        <mxCell id="Ck8itT5Yb6rJNxxNIPB3-18" style="edgeStyle=none;rounded=0;orthogonalLoop=1;jettySize=auto;html=1;" parent="Ck8itT5Yb6rJNxxNIPB3-1" source="Ck8itT5Yb6rJNxxNIPB3-19" target="Ck8itT5Yb6rJNxxNIPB3-21" edge="1">
          <mxGeometry relative="1" as="geometry"/>
        </mxCell>
        <mxCell id="Ck8itT5Yb6rJNxxNIPB3-28" style="edgeStyle=none;rounded=0;orthogonalLoop=1;jettySize=auto;html=1;entryX=1;entryY=0.5;entryDx=0;entryDy=0;startArrow=classic;startFill=1;exitX=0;exitY=0.5;exitDx=0;exitDy=0;" parent="Ck8itT5Yb6rJNxxNIPB3-1" source="Ck8itT5Yb6rJNxxNIPB3-19" edge="1">
          <mxGeometry relative="1" as="geometry">
            <mxPoint x="787" y="410" as="sourcePoint"/>
            <mxPoint x="400" y="410" as="targetPoint"/>
          </mxGeometry>
        </mxCell>
        <mxCell id="Ck8itT5Yb6rJNxxNIPB3-19" value="api（nodejs）" style="html=1;" parent="Ck8itT5Yb6rJNxxNIPB3-1" vertex="1">
          <mxGeometry x="787" y="380" width="110" height="50" as="geometry"/>
        </mxCell>
        <mxCell id="Ck8itT5Yb6rJNxxNIPB3-20" style="edgeStyle=none;rounded=0;orthogonalLoop=1;jettySize=auto;html=1;entryX=0.85;entryY=0.05;entryDx=0;entryDy=0;entryPerimeter=0;" parent="Ck8itT5Yb6rJNxxNIPB3-1" source="Ck8itT5Yb6rJNxxNIPB3-21" target="Ck8itT5Yb6rJNxxNIPB3-24" edge="1">
          <mxGeometry relative="1" as="geometry"/>
        </mxCell>
        <mxCell id="Ck8itT5Yb6rJNxxNIPB3-21" value="render(pdf/excel)" style="html=1;" parent="Ck8itT5Yb6rJNxxNIPB3-1" vertex="1">
          <mxGeometry x="960" y="380" width="110" height="50" as="geometry"/>
        </mxCell>
        <mxCell id="Ck8itT5Yb6rJNxxNIPB3-22" style="edgeStyle=none;rounded=0;orthogonalLoop=1;jettySize=auto;html=1;entryX=0.5;entryY=1;entryDx=0;entryDy=0;" parent="Ck8itT5Yb6rJNxxNIPB3-1" source="Ck8itT5Yb6rJNxxNIPB3-23" target="Ck8itT5Yb6rJNxxNIPB3-24" edge="1">
          <mxGeometry relative="1" as="geometry"/>
        </mxCell>
        <mxCell id="Ck8itT5Yb6rJNxxNIPB3-23" value="manager(nodejs)" style="html=1;" parent="Ck8itT5Yb6rJNxxNIPB3-1" vertex="1">
          <mxGeometry x="855" y="580" width="110" height="50" as="geometry"/>
        </mxCell>
        <mxCell id="Ck8itT5Yb6rJNxxNIPB3-24" value="database" style="shape=datastore;whiteSpace=wrap;html=1;" parent="Ck8itT5Yb6rJNxxNIPB3-1" vertex="1">
          <mxGeometry x="880" y="470" width="60" height="60" as="geometry"/>
        </mxCell>
        <mxCell id="Ck8itT5Yb6rJNxxNIPB3-25" value="产品web端" style="verticalAlign=top;align=left;spacingTop=8;spacingLeft=2;spacingRight=12;shape=cube;size=10;direction=south;fontStyle=4;html=1;" parent="Ck8itT5Yb6rJNxxNIPB3-1" vertex="1">
          <mxGeometry x="110" y="180" width="530" height="120" as="geometry"/>
        </mxCell>
        <mxCell id="Ck8itT5Yb6rJNxxNIPB3-26" value="capra3" style="html=1;" parent="Ck8itT5Yb6rJNxxNIPB3-1" vertex="1">
          <mxGeometry x="289" y="240" width="110" height="50" as="geometry"/>
        </mxCell>
        <mxCell id="Ck8itT5Yb6rJNxxNIPB3-27" style="edgeStyle=none;rounded=0;orthogonalLoop=1;jettySize=auto;html=1;entryX=0.25;entryY=0;entryDx=0;entryDy=0;" parent="Ck8itT5Yb6rJNxxNIPB3-1" source="Ck8itT5Yb6rJNxxNIPB3-26" target="Ck8itT5Yb6rJNxxNIPB3-19" edge="1">
          <mxGeometry relative="1" as="geometry">
            <mxPoint x="346" y="303" as="sourcePoint"/>
          </mxGeometry>
        </mxCell>
        <mxCell id="tkGY9ORU_RpFReK_nq-a-0" value="socketi.io&amp;nbsp; 执行打印\升级" style="text;html=1;resizable=0;points=[];autosize=1;align=left;verticalAlign=top;spacingTop=-4;" parent="Ck8itT5Yb6rJNxxNIPB3-1" vertex="1">
          <mxGeometry x="550" y="405" width="150" height="20" as="geometry"/>
        </mxCell>
        <mxCell id="e5_n5QiYrE9wZsrwacGl-0" value="&lt;font size=&quot;1&quot;&gt;&lt;b style=&quot;font-size: 24px&quot;&gt;Teemo-远程打印模式&lt;/b&gt;&lt;/font&gt;" style="text;html=1;strokeColor=none;fillColor=none;align=center;verticalAlign=middle;whiteSpace=wrap;rounded=0;" parent="Ck8itT5Yb6rJNxxNIPB3-1" vertex="1">
          <mxGeometry x="105" y="90" width="255" height="20" as="geometry"/>
        </mxCell>
      </root>
    </mxGraphModel>
  </diagram>
  <diagram id="G6eeWPVJKHN2MUvYheHy" name="new-oldprint">
    <mxGraphModel dx="1422" dy="828" grid="1" gridSize="10" guides="1" tooltips="1" connect="1" arrows="1" fold="1" page="1" pageScale="1" pageWidth="827" pageHeight="1169" math="0" shadow="0">
      <root>
        <mxCell id="WyNUe7LgEM1IGkZgm-iU-0"/>
        <mxCell id="WyNUe7LgEM1IGkZgm-iU-1" parent="WyNUe7LgEM1IGkZgm-iU-0"/>
        <mxCell id="npfBLR-Y_YIjaryftpen-0" value="打印服务端" style="verticalAlign=top;align=left;spacingTop=8;spacingLeft=2;spacingRight=12;shape=cube;size=10;direction=south;fontStyle=4;html=1;" parent="WyNUe7LgEM1IGkZgm-iU-1" vertex="1">
          <mxGeometry x="855" y="770" width="260" height="350" as="geometry"/>
        </mxCell>
        <mxCell id="npfBLR-Y_YIjaryftpen-1" value="Teemo打印客户端" style="verticalAlign=top;align=left;spacingTop=8;spacingLeft=2;spacingRight=12;shape=cube;size=10;direction=south;fontStyle=4;html=1;" parent="WyNUe7LgEM1IGkZgm-iU-1" vertex="1">
          <mxGeometry x="205" y="355" width="530" height="350" as="geometry"/>
        </mxCell>
        <mxCell id="50QDERftkAQza6LPpglG-1" style="edgeStyle=none;rounded=0;orthogonalLoop=1;jettySize=auto;html=1;entryX=0.5;entryY=0;entryDx=0;entryDy=0;startArrow=none;startFill=0;endArrow=classic;endFill=1;" parent="WyNUe7LgEM1IGkZgm-iU-1" source="npfBLR-Y_YIjaryftpen-5" target="npfBLR-Y_YIjaryftpen-11" edge="1">
          <mxGeometry relative="1" as="geometry"/>
        </mxCell>
        <mxCell id="npfBLR-Y_YIjaryftpen-5" value="TeemoClient.exe" style="html=1;" parent="WyNUe7LgEM1IGkZgm-iU-1" vertex="1">
          <mxGeometry x="380" y="390" width="110" height="50" as="geometry"/>
        </mxCell>
        <mxCell id="npfBLR-Y_YIjaryftpen-6" style="edgeStyle=none;rounded=0;orthogonalLoop=1;jettySize=auto;html=1;entryX=0.5;entryY=0;entryDx=0;entryDy=0;" parent="WyNUe7LgEM1IGkZgm-iU-1" source="npfBLR-Y_YIjaryftpen-11" target="npfBLR-Y_YIjaryftpen-12" edge="1">
          <mxGeometry relative="1" as="geometry"/>
        </mxCell>
        <mxCell id="npfBLR-Y_YIjaryftpen-7" style="edgeStyle=none;rounded=0;orthogonalLoop=1;jettySize=auto;html=1;entryX=0.591;entryY=0;entryDx=0;entryDy=0;entryPerimeter=0;" parent="WyNUe7LgEM1IGkZgm-iU-1" source="npfBLR-Y_YIjaryftpen-11" target="npfBLR-Y_YIjaryftpen-13" edge="1">
          <mxGeometry relative="1" as="geometry"/>
        </mxCell>
        <mxCell id="npfBLR-Y_YIjaryftpen-8" style="edgeStyle=none;rounded=0;orthogonalLoop=1;jettySize=auto;html=1;entryX=0.5;entryY=0;entryDx=0;entryDy=0;" parent="WyNUe7LgEM1IGkZgm-iU-1" source="npfBLR-Y_YIjaryftpen-11" target="npfBLR-Y_YIjaryftpen-14" edge="1">
          <mxGeometry relative="1" as="geometry"/>
        </mxCell>
        <mxCell id="npfBLR-Y_YIjaryftpen-9" style="edgeStyle=none;rounded=0;orthogonalLoop=1;jettySize=auto;html=1;entryX=0.382;entryY=0;entryDx=0;entryDy=0;entryPerimeter=0;" parent="WyNUe7LgEM1IGkZgm-iU-1" source="npfBLR-Y_YIjaryftpen-11" target="npfBLR-Y_YIjaryftpen-15" edge="1">
          <mxGeometry relative="1" as="geometry"/>
        </mxCell>
        <mxCell id="npfBLR-Y_YIjaryftpen-11" value="Invoke.dll" style="html=1;" parent="WyNUe7LgEM1IGkZgm-iU-1" vertex="1">
          <mxGeometry x="380" y="480" width="110" height="50" as="geometry"/>
        </mxCell>
        <mxCell id="npfBLR-Y_YIjaryftpen-12" value="cprint.dll" style="html=1;" parent="WyNUe7LgEM1IGkZgm-iU-1" vertex="1">
          <mxGeometry x="215" y="590" width="110" height="50" as="geometry"/>
        </mxCell>
        <mxCell id="npfBLR-Y_YIjaryftpen-13" value="report.dll" style="html=1;" parent="WyNUe7LgEM1IGkZgm-iU-1" vertex="1">
          <mxGeometry x="325" y="590" width="110" height="50" as="geometry"/>
        </mxCell>
        <mxCell id="npfBLR-Y_YIjaryftpen-14" value="barcode.dll" style="html=1;" parent="WyNUe7LgEM1IGkZgm-iU-1" vertex="1">
          <mxGeometry x="435" y="590" width="110" height="50" as="geometry"/>
        </mxCell>
        <mxCell id="npfBLR-Y_YIjaryftpen-15" value="billprint.dll" style="html=1;" parent="WyNUe7LgEM1IGkZgm-iU-1" vertex="1">
          <mxGeometry x="545" y="590" width="110" height="50" as="geometry"/>
        </mxCell>
        <mxCell id="npfBLR-Y_YIjaryftpen-16" style="edgeStyle=none;rounded=0;orthogonalLoop=1;jettySize=auto;html=1;" parent="WyNUe7LgEM1IGkZgm-iU-1" source="npfBLR-Y_YIjaryftpen-19" target="npfBLR-Y_YIjaryftpen-24" edge="1">
          <mxGeometry relative="1" as="geometry"/>
        </mxCell>
        <mxCell id="npfBLR-Y_YIjaryftpen-19" value="api（.net)" style="html=1;" parent="WyNUe7LgEM1IGkZgm-iU-1" vertex="1">
          <mxGeometry x="942" y="810" width="110" height="50" as="geometry"/>
        </mxCell>
        <mxCell id="npfBLR-Y_YIjaryftpen-22" style="edgeStyle=none;rounded=0;orthogonalLoop=1;jettySize=auto;html=1;entryX=0.5;entryY=1;entryDx=0;entryDy=0;" parent="WyNUe7LgEM1IGkZgm-iU-1" source="npfBLR-Y_YIjaryftpen-23" target="npfBLR-Y_YIjaryftpen-24" edge="1">
          <mxGeometry relative="1" as="geometry"/>
        </mxCell>
        <mxCell id="npfBLR-Y_YIjaryftpen-23" value="manager(.net)" style="html=1;" parent="WyNUe7LgEM1IGkZgm-iU-1" vertex="1">
          <mxGeometry x="942" y="1010" width="110" height="50" as="geometry"/>
        </mxCell>
        <mxCell id="npfBLR-Y_YIjaryftpen-24" value="database" style="shape=datastore;whiteSpace=wrap;html=1;" parent="WyNUe7LgEM1IGkZgm-iU-1" vertex="1">
          <mxGeometry x="967" y="905" width="60" height="60" as="geometry"/>
        </mxCell>
        <mxCell id="npfBLR-Y_YIjaryftpen-25" value="产品web端" style="verticalAlign=top;align=left;spacingTop=8;spacingLeft=2;spacingRight=12;shape=cube;size=10;direction=south;fontStyle=4;html=1;" parent="WyNUe7LgEM1IGkZgm-iU-1" vertex="1">
          <mxGeometry x="200" y="190" width="530" height="120" as="geometry"/>
        </mxCell>
        <mxCell id="npfBLR-Y_YIjaryftpen-26" value="capra3" style="html=1;" parent="WyNUe7LgEM1IGkZgm-iU-1" vertex="1">
          <mxGeometry x="379" y="250" width="110" height="50" as="geometry"/>
        </mxCell>
        <mxCell id="npfBLR-Y_YIjaryftpen-27" style="edgeStyle=none;rounded=0;orthogonalLoop=1;jettySize=auto;html=1;entryX=0.5;entryY=0;entryDx=0;entryDy=0;" parent="WyNUe7LgEM1IGkZgm-iU-1" source="npfBLR-Y_YIjaryftpen-26" target="npfBLR-Y_YIjaryftpen-5" edge="1">
          <mxGeometry relative="1" as="geometry">
            <mxPoint x="436" y="313" as="sourcePoint"/>
          </mxGeometry>
        </mxCell>
        <mxCell id="kMsOqoDAmDW9qMkwEsQw-0" value="&lt;font style=&quot;font-size: 24px&quot;&gt;&lt;b&gt;Teemo-GraspReportSvr混合打印模式（兼容老打印）&lt;/b&gt;&lt;/font&gt;" style="text;html=1;strokeColor=none;fillColor=none;align=center;verticalAlign=middle;whiteSpace=wrap;rounded=0;" parent="WyNUe7LgEM1IGkZgm-iU-1" vertex="1">
          <mxGeometry x="150" y="110" width="600" height="20" as="geometry"/>
        </mxCell>
        <mxCell id="KGwUrScuC1vth8V-1vLu-0" value="打印服务端" style="verticalAlign=top;align=left;spacingTop=8;spacingLeft=2;spacingRight=12;shape=cube;size=10;direction=south;fontStyle=4;html=1;" parent="WyNUe7LgEM1IGkZgm-iU-1" vertex="1">
          <mxGeometry x="851.5" y="358" width="420" height="350" as="geometry"/>
        </mxCell>
        <mxCell id="KGwUrScuC1vth8V-1vLu-1" style="edgeStyle=none;rounded=0;orthogonalLoop=1;jettySize=auto;html=1;" parent="WyNUe7LgEM1IGkZgm-iU-1" source="KGwUrScuC1vth8V-1vLu-3" target="KGwUrScuC1vth8V-1vLu-8" edge="1">
          <mxGeometry relative="1" as="geometry"/>
        </mxCell>
        <mxCell id="KGwUrScuC1vth8V-1vLu-2" style="edgeStyle=none;rounded=0;orthogonalLoop=1;jettySize=auto;html=1;" parent="WyNUe7LgEM1IGkZgm-iU-1" source="KGwUrScuC1vth8V-1vLu-3" target="KGwUrScuC1vth8V-1vLu-5" edge="1">
          <mxGeometry relative="1" as="geometry"/>
        </mxCell>
        <mxCell id="KGwUrScuC1vth8V-1vLu-3" value="api（nodejs）" style="html=1;" parent="WyNUe7LgEM1IGkZgm-iU-1" vertex="1">
          <mxGeometry x="938.5" y="383" width="110" height="50" as="geometry"/>
        </mxCell>
        <mxCell id="KGwUrScuC1vth8V-1vLu-4" style="edgeStyle=none;rounded=0;orthogonalLoop=1;jettySize=auto;html=1;entryX=0.85;entryY=0.05;entryDx=0;entryDy=0;entryPerimeter=0;" parent="WyNUe7LgEM1IGkZgm-iU-1" source="KGwUrScuC1vth8V-1vLu-5" target="KGwUrScuC1vth8V-1vLu-8" edge="1">
          <mxGeometry relative="1" as="geometry"/>
        </mxCell>
        <mxCell id="KGwUrScuC1vth8V-1vLu-5" value="render(pdf/excel)" style="html=1;" parent="WyNUe7LgEM1IGkZgm-iU-1" vertex="1">
          <mxGeometry x="1111.5" y="383" width="110" height="50" as="geometry"/>
        </mxCell>
        <mxCell id="KGwUrScuC1vth8V-1vLu-6" style="edgeStyle=none;rounded=0;orthogonalLoop=1;jettySize=auto;html=1;entryX=0.5;entryY=1;entryDx=0;entryDy=0;" parent="WyNUe7LgEM1IGkZgm-iU-1" source="KGwUrScuC1vth8V-1vLu-7" target="KGwUrScuC1vth8V-1vLu-8" edge="1">
          <mxGeometry relative="1" as="geometry"/>
        </mxCell>
        <mxCell id="KGwUrScuC1vth8V-1vLu-7" value="manager(nodejs)" style="html=1;" parent="WyNUe7LgEM1IGkZgm-iU-1" vertex="1">
          <mxGeometry x="1006.5" y="583" width="110" height="50" as="geometry"/>
        </mxCell>
        <mxCell id="KGwUrScuC1vth8V-1vLu-8" value="database" style="shape=datastore;whiteSpace=wrap;html=1;" parent="WyNUe7LgEM1IGkZgm-iU-1" vertex="1">
          <mxGeometry x="1031.5" y="473" width="60" height="60" as="geometry"/>
        </mxCell>
        <mxCell id="npfBLR-Y_YIjaryftpen-3" style="edgeStyle=none;rounded=0;orthogonalLoop=1;jettySize=auto;html=1;entryX=0;entryY=0.5;entryDx=0;entryDy=0;startArrow=classic;startFill=1;endArrow=classic;endFill=1;" parent="WyNUe7LgEM1IGkZgm-iU-1" edge="1">
          <mxGeometry relative="1" as="geometry">
            <mxPoint x="490" y="413" as="sourcePoint"/>
            <mxPoint x="938.5" y="410" as="targetPoint"/>
          </mxGeometry>
        </mxCell>
        <mxCell id="qcHq2XOzDZ5fUErocspz-0" value="socket.io&amp;nbsp; 安装升级&amp;nbsp;" style="text;html=1;resizable=0;points=[];align=center;verticalAlign=middle;labelBackgroundColor=#ffffff;" parent="npfBLR-Y_YIjaryftpen-3" vertex="1" connectable="0">
          <mxGeometry x="0.3385" y="3" relative="1" as="geometry">
            <mxPoint as="offset"/>
          </mxGeometry>
        </mxCell>
        <mxCell id="dAJ_cdlxK2Emt7voSZFs-0" value="GraspReport打印客户端" style="verticalAlign=top;align=left;spacingTop=8;spacingLeft=2;spacingRight=12;shape=cube;size=10;direction=south;fontStyle=4;html=1;" parent="WyNUe7LgEM1IGkZgm-iU-1" vertex="1">
          <mxGeometry x="195" y="749" width="540" height="420" as="geometry"/>
        </mxCell>
        <mxCell id="dAJ_cdlxK2Emt7voSZFs-1" value="升级安装" style="text;html=1;resizable=0;points=[];align=center;verticalAlign=middle;labelBackgroundColor=#ffffff;" parent="WyNUe7LgEM1IGkZgm-iU-1" vertex="1" connectable="0">
          <mxGeometry x="677" y="837" as="geometry">
            <mxPoint x="17" y="-4" as="offset"/>
          </mxGeometry>
        </mxCell>
        <mxCell id="dAJ_cdlxK2Emt7voSZFs-2" style="rounded=0;orthogonalLoop=1;jettySize=auto;html=1;entryX=0.558;entryY=0.025;entryDx=0;entryDy=0;entryPerimeter=0;" parent="WyNUe7LgEM1IGkZgm-iU-1" source="dAJ_cdlxK2Emt7voSZFs-6" target="dAJ_cdlxK2Emt7voSZFs-7" edge="1">
          <mxGeometry relative="1" as="geometry"/>
        </mxCell>
        <mxCell id="dAJ_cdlxK2Emt7voSZFs-3" style="rounded=0;orthogonalLoop=1;jettySize=auto;html=1;" parent="WyNUe7LgEM1IGkZgm-iU-1" source="dAJ_cdlxK2Emt7voSZFs-6" target="dAJ_cdlxK2Emt7voSZFs-8" edge="1">
          <mxGeometry relative="1" as="geometry"/>
        </mxCell>
        <mxCell id="dAJ_cdlxK2Emt7voSZFs-4" style="rounded=0;orthogonalLoop=1;jettySize=auto;html=1;entryX=0.442;entryY=-0.062;entryDx=0;entryDy=0;entryPerimeter=0;" parent="WyNUe7LgEM1IGkZgm-iU-1" source="dAJ_cdlxK2Emt7voSZFs-6" target="dAJ_cdlxK2Emt7voSZFs-9" edge="1">
          <mxGeometry relative="1" as="geometry"/>
        </mxCell>
        <mxCell id="dAJ_cdlxK2Emt7voSZFs-5" style="rounded=0;orthogonalLoop=1;jettySize=auto;html=1;" parent="WyNUe7LgEM1IGkZgm-iU-1" source="dAJ_cdlxK2Emt7voSZFs-6" target="dAJ_cdlxK2Emt7voSZFs-10" edge="1">
          <mxGeometry relative="1" as="geometry"/>
        </mxCell>
        <mxCell id="dAJ_cdlxK2Emt7voSZFs-6" value="GraspReportSrv.exe" style="shape=ext;rounded=1;html=1;whiteSpace=wrap;" parent="WyNUe7LgEM1IGkZgm-iU-1" vertex="1">
          <mxGeometry x="373" y="796" width="120" height="80" as="geometry"/>
        </mxCell>
        <mxCell id="dAJ_cdlxK2Emt7voSZFs-7" value="cprint.dll" style="shape=ext;rounded=1;html=1;whiteSpace=wrap;" parent="WyNUe7LgEM1IGkZgm-iU-1" vertex="1">
          <mxGeometry x="213" y="1026" width="120" height="80" as="geometry"/>
        </mxCell>
        <mxCell id="dAJ_cdlxK2Emt7voSZFs-8" value="report.dll" style="shape=ext;rounded=1;html=1;whiteSpace=wrap;" parent="WyNUe7LgEM1IGkZgm-iU-1" vertex="1">
          <mxGeometry x="333" y="1026" width="120" height="80" as="geometry"/>
        </mxCell>
        <mxCell id="dAJ_cdlxK2Emt7voSZFs-9" value="barcode.dll" style="shape=ext;rounded=1;html=1;whiteSpace=wrap;" parent="WyNUe7LgEM1IGkZgm-iU-1" vertex="1">
          <mxGeometry x="453" y="1026" width="120" height="80" as="geometry"/>
        </mxCell>
        <mxCell id="dAJ_cdlxK2Emt7voSZFs-10" value="billprint.dll" style="shape=ext;rounded=1;html=1;whiteSpace=wrap;" parent="WyNUe7LgEM1IGkZgm-iU-1" vertex="1">
          <mxGeometry x="566" y="1026" width="120" height="80" as="geometry"/>
        </mxCell>
        <mxCell id="0TmzJiDbl0Ae2m32-LHV-0" style="edgeStyle=none;rounded=0;orthogonalLoop=1;jettySize=auto;html=1;entryX=0;entryY=0.5;entryDx=0;entryDy=0;startArrow=none;startFill=0;endArrow=classic;endFill=1;exitX=1;exitY=0.5;exitDx=0;exitDy=0;" parent="WyNUe7LgEM1IGkZgm-iU-1" source="dAJ_cdlxK2Emt7voSZFs-6" target="npfBLR-Y_YIjaryftpen-19" edge="1">
          <mxGeometry relative="1" as="geometry">
            <Array as="points">
              <mxPoint x="690" y="840"/>
            </Array>
          </mxGeometry>
        </mxCell>
        <mxCell id="OywCDVflEjKeFd63sw71-0" value="HTTP" style="text;html=1;resizable=0;points=[];align=center;verticalAlign=middle;labelBackgroundColor=#ffffff;" parent="0TmzJiDbl0Ae2m32-LHV-0" vertex="1" connectable="0">
          <mxGeometry x="-0.3319" y="-4" relative="1" as="geometry">
            <mxPoint x="-3" y="-9.5" as="offset"/>
          </mxGeometry>
        </mxCell>
        <mxCell id="FVcrmY43gnjKmQFrnq2D-0" style="edgeStyle=orthogonalEdgeStyle;rounded=0;orthogonalLoop=1;jettySize=auto;html=1;startArrow=none;startFill=0;endArrow=classic;endFill=1;" parent="WyNUe7LgEM1IGkZgm-iU-1" source="npfBLR-Y_YIjaryftpen-5" target="dAJ_cdlxK2Emt7voSZFs-6" edge="1">
          <mxGeometry relative="1" as="geometry">
            <Array as="points">
              <mxPoint x="160" y="415"/>
              <mxPoint x="160" y="836"/>
            </Array>
          </mxGeometry>
        </mxCell>
        <mxCell id="FVcrmY43gnjKmQFrnq2D-1" value="http转发" style="text;html=1;resizable=0;points=[];align=center;verticalAlign=middle;labelBackgroundColor=#ffffff;" parent="FVcrmY43gnjKmQFrnq2D-0" vertex="1" connectable="0">
          <mxGeometry x="0.0709" y="4" relative="1" as="geometry">
            <mxPoint as="offset"/>
          </mxGeometry>
        </mxCell>
        <mxCell id="KwISNJdrIuFic7WhcisN-0" style="rounded=0;orthogonalLoop=1;jettySize=auto;html=1;startArrow=none;startFill=0;endArrow=classic;endFill=1;" parent="WyNUe7LgEM1IGkZgm-iU-1" source="dAJ_cdlxK2Emt7voSZFs-7" target="npfBLR-Y_YIjaryftpen-19" edge="1">
          <mxGeometry relative="1" as="geometry"/>
        </mxCell>
        <mxCell id="KwISNJdrIuFic7WhcisN-2" value="云样式" style="text;html=1;resizable=0;points=[];align=center;verticalAlign=middle;labelBackgroundColor=#ffffff;" parent="KwISNJdrIuFic7WhcisN-0" vertex="1" connectable="0">
          <mxGeometry x="0.4544" relative="1" as="geometry">
            <mxPoint as="offset"/>
          </mxGeometry>
        </mxCell>
        <mxCell id="KwISNJdrIuFic7WhcisN-1" style="edgeStyle=none;rounded=0;orthogonalLoop=1;jettySize=auto;html=1;entryX=0.382;entryY=1.02;entryDx=0;entryDy=0;entryPerimeter=0;startArrow=none;startFill=0;endArrow=classic;endFill=1;" parent="WyNUe7LgEM1IGkZgm-iU-1" source="dAJ_cdlxK2Emt7voSZFs-8" target="npfBLR-Y_YIjaryftpen-19" edge="1">
          <mxGeometry relative="1" as="geometry"/>
        </mxCell>
        <mxCell id="KwISNJdrIuFic7WhcisN-3" value="云样式" style="text;html=1;resizable=0;points=[];align=center;verticalAlign=middle;labelBackgroundColor=#ffffff;" parent="KwISNJdrIuFic7WhcisN-1" vertex="1" connectable="0">
          <mxGeometry x="0.2246" relative="1" as="geometry">
            <mxPoint as="offset"/>
          </mxGeometry>
        </mxCell>
        <mxCell id="50QDERftkAQza6LPpglG-2" style="edgeStyle=none;rounded=0;orthogonalLoop=1;jettySize=auto;html=1;startArrow=none;startFill=0;endArrow=classic;endFill=1;" parent="WyNUe7LgEM1IGkZgm-iU-1" source="npfBLR-Y_YIjaryftpen-11" target="KGwUrScuC1vth8V-1vLu-3" edge="1">
          <mxGeometry relative="1" as="geometry"/>
        </mxCell>
        <mxCell id="50QDERftkAQza6LPpglG-3" value="云样式" style="text;html=1;resizable=0;points=[];align=center;verticalAlign=middle;labelBackgroundColor=#ffffff;" parent="50QDERftkAQza6LPpglG-2" vertex="1" connectable="0">
          <mxGeometry x="0.2146" y="2" relative="1" as="geometry">
            <mxPoint as="offset"/>
          </mxGeometry>
        </mxCell>
      </root>
    </mxGraphModel>
  </diagram>
  <diagram id="Ttwel76giv3wVYoNhLOe" name="结构">
    <mxGraphModel dx="358" dy="1859" grid="1" gridSize="10" guides="1" tooltips="1" connect="1" arrows="1" fold="1" page="1" pageScale="1" pageWidth="827" pageHeight="1169" math="0" shadow="0">
      <root>
        <mxCell id="vUwvyv7RkVzBfDxeex2S-0"/>
        <mxCell id="vUwvyv7RkVzBfDxeex2S-1" parent="vUwvyv7RkVzBfDxeex2S-0"/>
        <mxCell id="hK3NIbKPnzp6r-HQrI94-10" value="后端" style="shape=umlFrame;whiteSpace=wrap;html=1;fillColor=#d5e8d4;strokeColor=#82b366;" vertex="1" parent="vUwvyv7RkVzBfDxeex2S-1">
          <mxGeometry x="850" y="230" width="740" height="320" as="geometry"/>
        </mxCell>
        <mxCell id="KP6BzgX_7s-gseLThLaZ-1" value="前端" style="shape=umlFrame;whiteSpace=wrap;html=1;fillColor=#dae8fc;strokeColor=#6c8ebf;" vertex="1" parent="vUwvyv7RkVzBfDxeex2S-1">
          <mxGeometry x="850" y="-350" width="740" height="560" as="geometry"/>
        </mxCell>
        <mxCell id="KP6BzgX_7s-gseLThLaZ-8" value="浏览器" style="verticalAlign=top;align=left;spacingTop=8;spacingLeft=2;spacingRight=12;shape=cube;size=10;direction=south;fontStyle=4;html=1;fillColor=#ffe6cc;strokeColor=#d79b00;" vertex="1" parent="vUwvyv7RkVzBfDxeex2S-1">
          <mxGeometry x="900" y="60" width="180" height="135" as="geometry"/>
        </mxCell>
        <mxCell id="KP6BzgX_7s-gseLThLaZ-2" value="打印客户端" style="verticalAlign=top;align=left;spacingTop=8;spacingLeft=2;spacingRight=12;shape=cube;size=10;direction=south;fontStyle=4;html=1;fillColor=#fff2cc;strokeColor=#d6b656;" vertex="1" parent="vUwvyv7RkVzBfDxeex2S-1">
          <mxGeometry x="1110" y="-330" width="480" height="520" as="geometry"/>
        </mxCell>
        <mxCell id="Ysixr_ogX4CC1b-aa-1L-50" style="edgeStyle=orthogonalEdgeStyle;rounded=0;orthogonalLoop=1;jettySize=auto;html=1;entryX=-0.01;entryY=0.563;entryDx=0;entryDy=0;entryPerimeter=0;" edge="1" parent="vUwvyv7RkVzBfDxeex2S-1" source="jfzeH325nK5q26_Yn8DF-0" target="Ysixr_ogX4CC1b-aa-1L-15">
          <mxGeometry relative="1" as="geometry"/>
        </mxCell>
        <mxCell id="Ysixr_ogX4CC1b-aa-1L-51" value="本地打印" style="text;html=1;resizable=0;points=[];align=center;verticalAlign=middle;labelBackgroundColor=#ffffff;" vertex="1" connectable="0" parent="Ysixr_ogX4CC1b-aa-1L-50">
          <mxGeometry x="0.2127" y="-2" relative="1" as="geometry">
            <mxPoint as="offset"/>
          </mxGeometry>
        </mxCell>
        <mxCell id="jfzeH325nK5q26_Yn8DF-0" value="&lt;p style=&quot;margin: 0px ; margin-top: 6px ; text-align: center&quot;&gt;&lt;b&gt;web设计器&lt;/b&gt;&lt;/p&gt;&lt;hr&gt;&lt;p style=&quot;margin: 0px ; margin-left: 8px&quot;&gt;+ 加载样式&lt;br&gt;+ 保存样式&lt;/p&gt;&lt;p style=&quot;margin: 0px ; margin-left: 8px&quot;&gt;+ 执行打印&lt;/p&gt;" style="align=left;overflow=fill;html=1;" vertex="1" parent="vUwvyv7RkVzBfDxeex2S-1">
          <mxGeometry x="910" y="100" width="150" height="80" as="geometry"/>
        </mxCell>
        <mxCell id="jfzeH325nK5q26_Yn8DF-1" value="" style="shape=component;jettyWidth=8;jettyHeight=4;" vertex="1" parent="jfzeH325nK5q26_Yn8DF-0">
          <mxGeometry x="1" width="20" height="20" relative="1" as="geometry">
            <mxPoint x="-24" y="4" as="offset"/>
          </mxGeometry>
        </mxCell>
        <mxCell id="Ysixr_ogX4CC1b-aa-1L-39" style="edgeStyle=orthogonalEdgeStyle;rounded=0;orthogonalLoop=1;jettySize=auto;html=1;" edge="1" parent="vUwvyv7RkVzBfDxeex2S-1" source="Ysixr_ogX4CC1b-aa-1L-0" target="Ysixr_ogX4CC1b-aa-1L-2">
          <mxGeometry relative="1" as="geometry"/>
        </mxCell>
        <mxCell id="hK3NIbKPnzp6r-HQrI94-11" style="edgeStyle=orthogonalEdgeStyle;rounded=0;orthogonalLoop=1;jettySize=auto;html=1;startArrow=none;startFill=0;" edge="1" parent="vUwvyv7RkVzBfDxeex2S-1" source="Ysixr_ogX4CC1b-aa-1L-0" target="hK3NIbKPnzp6r-HQrI94-0">
          <mxGeometry relative="1" as="geometry">
            <Array as="points">
              <mxPoint x="930" y="320"/>
            </Array>
          </mxGeometry>
        </mxCell>
        <mxCell id="hK3NIbKPnzp6r-HQrI94-12" value="pdf打印" style="text;html=1;resizable=0;points=[];align=center;verticalAlign=middle;labelBackgroundColor=#ffffff;" vertex="1" connectable="0" parent="hK3NIbKPnzp6r-HQrI94-11">
          <mxGeometry x="-0.1251" y="2" relative="1" as="geometry">
            <mxPoint as="offset"/>
          </mxGeometry>
        </mxCell>
        <mxCell id="Ysixr_ogX4CC1b-aa-1L-0" value="&lt;p style=&quot;margin: 0px ; margin-top: 6px ; text-align: center&quot;&gt;&lt;b&gt;后台API&lt;/b&gt;&lt;/p&gt;&lt;hr&gt;&lt;p style=&quot;margin: 0px ; margin-left: 8px&quot;&gt;+ 存储样式&lt;br&gt;+ 获取样式&lt;/p&gt;&lt;p style=&quot;margin: 0px ; margin-left: 8px&quot;&gt;+远程打印&lt;/p&gt;" style="align=left;overflow=fill;html=1;fillColor=#f8cecc;strokeColor=#b85450;" vertex="1" parent="vUwvyv7RkVzBfDxeex2S-1">
          <mxGeometry x="1040" y="260" width="140" height="80" as="geometry"/>
        </mxCell>
        <mxCell id="Ysixr_ogX4CC1b-aa-1L-1" value="" style="shape=component;jettyWidth=8;jettyHeight=4;" vertex="1" parent="Ysixr_ogX4CC1b-aa-1L-0">
          <mxGeometry x="1" width="20" height="20" relative="1" as="geometry">
            <mxPoint x="-24" y="4" as="offset"/>
          </mxGeometry>
        </mxCell>
        <mxCell id="Ysixr_ogX4CC1b-aa-1L-2" value="mysql" style="shape=datastore;whiteSpace=wrap;html=1;" vertex="1" parent="vUwvyv7RkVzBfDxeex2S-1">
          <mxGeometry x="1080" y="400" width="60" height="60" as="geometry"/>
        </mxCell>
        <mxCell id="Ysixr_ogX4CC1b-aa-1L-44" value="转换样式" style="edgeStyle=orthogonalEdgeStyle;rounded=0;orthogonalLoop=1;jettySize=auto;html=1;entryX=0;entryY=0.7;entryDx=0;entryDy=0;" edge="1" parent="vUwvyv7RkVzBfDxeex2S-1" source="Ysixr_ogX4CC1b-aa-1L-7" target="Ysixr_ogX4CC1b-aa-1L-19">
          <mxGeometry relative="1" as="geometry"/>
        </mxCell>
        <mxCell id="Ysixr_ogX4CC1b-aa-1L-7" value="样式适配器" style="swimlane;fontStyle=1;align=center;verticalAlign=top;childLayout=stackLayout;horizontal=1;startSize=26;horizontalStack=0;resizeParent=1;resizeParentMax=0;resizeLast=0;collapsible=1;marginBottom=0;" vertex="1" parent="vUwvyv7RkVzBfDxeex2S-1">
          <mxGeometry x="1160" y="-200" width="145" height="120" as="geometry">
            <mxRectangle x="1160" y="-200" width="90" height="26" as="alternateBounds"/>
          </mxGeometry>
        </mxCell>
        <mxCell id="Ysixr_ogX4CC1b-aa-1L-8" value="    " style="text;strokeColor=none;fillColor=none;align=left;verticalAlign=top;spacingLeft=4;spacingRight=4;overflow=hidden;rotatable=0;points=[[0,0.5],[1,0.5]];portConstraint=eastwest;" vertex="1" parent="Ysixr_ogX4CC1b-aa-1L-7">
          <mxGeometry y="26" width="145" height="22" as="geometry"/>
        </mxCell>
        <mxCell id="Ysixr_ogX4CC1b-aa-1L-9" value="" style="line;strokeWidth=1;fillColor=none;align=left;verticalAlign=middle;spacingTop=-1;spacingLeft=3;spacingRight=3;rotatable=0;labelPosition=right;points=[];portConstraint=eastwest;" vertex="1" parent="Ysixr_ogX4CC1b-aa-1L-7">
          <mxGeometry y="48" width="145" height="8" as="geometry"/>
        </mxCell>
        <mxCell id="Ysixr_ogX4CC1b-aa-1L-10" value="+ ToExpressPbStyle&#xa;+ ToCPrintPbStyle&#xa;+ ToBarcodePbStyle" style="text;align=left;verticalAlign=top;spacingLeft=4;spacingRight=4;overflow=hidden;rotatable=0;points=[[0,0.5],[1,0.5]];portConstraint=eastwest;" vertex="1" parent="Ysixr_ogX4CC1b-aa-1L-7">
          <mxGeometry y="56" width="145" height="64" as="geometry"/>
        </mxCell>
        <mxCell id="Ysixr_ogX4CC1b-aa-1L-43" value="转换样式" style="edgeStyle=orthogonalEdgeStyle;rounded=0;orthogonalLoop=1;jettySize=auto;html=1;" edge="1" parent="vUwvyv7RkVzBfDxeex2S-1" source="Ysixr_ogX4CC1b-aa-1L-13" target="Ysixr_ogX4CC1b-aa-1L-10">
          <mxGeometry relative="1" as="geometry">
            <Array as="points">
              <mxPoint x="1233" y="-50"/>
              <mxPoint x="1233" y="-50"/>
            </Array>
          </mxGeometry>
        </mxCell>
        <mxCell id="Ysixr_ogX4CC1b-aa-1L-46" style="edgeStyle=orthogonalEdgeStyle;rounded=0;orthogonalLoop=1;jettySize=auto;html=1;entryX=0;entryY=0.3;entryDx=0;entryDy=0;" edge="1" parent="vUwvyv7RkVzBfDxeex2S-1" source="Ysixr_ogX4CC1b-aa-1L-13" target="Ysixr_ogX4CC1b-aa-1L-19">
          <mxGeometry relative="1" as="geometry">
            <Array as="points">
              <mxPoint x="1130" y="5"/>
              <mxPoint x="1130" y="-292"/>
            </Array>
          </mxGeometry>
        </mxCell>
        <mxCell id="Ysixr_ogX4CC1b-aa-1L-47" style="edgeStyle=orthogonalEdgeStyle;rounded=0;orthogonalLoop=1;jettySize=auto;html=1;entryX=0.5;entryY=1;entryDx=0;entryDy=0;" edge="1" parent="vUwvyv7RkVzBfDxeex2S-1" source="Ysixr_ogX4CC1b-aa-1L-13" target="Ysixr_ogX4CC1b-aa-1L-24">
          <mxGeometry relative="1" as="geometry">
            <mxPoint x="1520" y="-50" as="targetPoint"/>
          </mxGeometry>
        </mxCell>
        <mxCell id="KP6BzgX_7s-gseLThLaZ-3" value="执行打印" style="text;html=1;resizable=0;points=[];align=center;verticalAlign=middle;labelBackgroundColor=#ffffff;" vertex="1" connectable="0" parent="Ysixr_ogX4CC1b-aa-1L-47">
          <mxGeometry x="-0.1273" y="-3" relative="1" as="geometry">
            <mxPoint as="offset"/>
          </mxGeometry>
        </mxCell>
        <mxCell id="KP6BzgX_7s-gseLThLaZ-5" style="edgeStyle=orthogonalEdgeStyle;rounded=0;orthogonalLoop=1;jettySize=auto;html=1;" edge="1" parent="vUwvyv7RkVzBfDxeex2S-1" source="Ysixr_ogX4CC1b-aa-1L-13">
          <mxGeometry relative="1" as="geometry">
            <mxPoint x="1180" y="310" as="targetPoint"/>
            <Array as="points">
              <mxPoint x="1330" y="20"/>
              <mxPoint x="1330" y="310"/>
              <mxPoint x="1180" y="310"/>
            </Array>
          </mxGeometry>
        </mxCell>
        <mxCell id="KP6BzgX_7s-gseLThLaZ-6" value="下载样式" style="text;html=1;resizable=0;points=[];align=center;verticalAlign=middle;labelBackgroundColor=#ffffff;" vertex="1" connectable="0" parent="KP6BzgX_7s-gseLThLaZ-5">
          <mxGeometry x="-0.3543" y="1" relative="1" as="geometry">
            <mxPoint as="offset"/>
          </mxGeometry>
        </mxCell>
        <mxCell id="Ysixr_ogX4CC1b-aa-1L-13" value="&lt;p style=&quot;margin: 0px ; margin-top: 6px ; text-align: center&quot;&gt;&lt;b&gt;invoker&lt;/b&gt;&lt;/p&gt;&lt;hr&gt;&lt;p style=&quot;margin: 0px ; margin-left: 8px&quot;&gt;+ 执行打印指令&lt;br&gt;+ 样式管理&lt;/p&gt;&lt;p style=&quot;margin: 0px ; margin-left: 8px&quot;&gt;+ 样式适配（升级）&lt;/p&gt;" style="align=left;overflow=fill;html=1;" vertex="1" parent="vUwvyv7RkVzBfDxeex2S-1">
          <mxGeometry x="1160" y="-40" width="140" height="90" as="geometry"/>
        </mxCell>
        <mxCell id="Ysixr_ogX4CC1b-aa-1L-14" value="" style="shape=component;jettyWidth=8;jettyHeight=4;" vertex="1" parent="Ysixr_ogX4CC1b-aa-1L-13">
          <mxGeometry x="1" width="20" height="20" relative="1" as="geometry">
            <mxPoint x="-24" y="4" as="offset"/>
          </mxGeometry>
        </mxCell>
        <mxCell id="Ysixr_ogX4CC1b-aa-1L-38" style="edgeStyle=orthogonalEdgeStyle;rounded=0;orthogonalLoop=1;jettySize=auto;html=1;entryX=1;entryY=0.5;entryDx=0;entryDy=0;exitX=0.615;exitY=1.006;exitDx=0;exitDy=0;exitPerimeter=0;startArrow=none;startFill=0;" edge="1" parent="vUwvyv7RkVzBfDxeex2S-1" source="Ysixr_ogX4CC1b-aa-1L-15" target="Ysixr_ogX4CC1b-aa-1L-0">
          <mxGeometry relative="1" as="geometry"/>
        </mxCell>
        <mxCell id="KP6BzgX_7s-gseLThLaZ-7" value="响应打印或更新" style="text;html=1;resizable=0;points=[];align=center;verticalAlign=middle;labelBackgroundColor=#ffffff;" vertex="1" connectable="0" parent="Ysixr_ogX4CC1b-aa-1L-38">
          <mxGeometry x="-0.0854" relative="1" as="geometry">
            <mxPoint as="offset"/>
          </mxGeometry>
        </mxCell>
        <mxCell id="Ysixr_ogX4CC1b-aa-1L-42" style="edgeStyle=orthogonalEdgeStyle;rounded=0;orthogonalLoop=1;jettySize=auto;html=1;entryX=0.5;entryY=1;entryDx=0;entryDy=0;" edge="1" parent="vUwvyv7RkVzBfDxeex2S-1" source="Ysixr_ogX4CC1b-aa-1L-15" target="Ysixr_ogX4CC1b-aa-1L-13">
          <mxGeometry relative="1" as="geometry"/>
        </mxCell>
        <mxCell id="Ysixr_ogX4CC1b-aa-1L-15" value="&lt;p style=&quot;margin: 0px ; margin-top: 6px ; text-align: center&quot;&gt;&lt;b&gt;TeemoClient&lt;/b&gt;&lt;/p&gt;&lt;hr&gt;&lt;p style=&quot;margin: 0px ; margin-left: 8px&quot;&gt;+ 更新安装&lt;br&gt;+ 响应并转发打印指令&lt;/p&gt;" style="align=left;overflow=fill;html=1;" vertex="1" parent="vUwvyv7RkVzBfDxeex2S-1">
          <mxGeometry x="1160" y="90" width="140" height="90" as="geometry"/>
        </mxCell>
        <mxCell id="Ysixr_ogX4CC1b-aa-1L-16" value="" style="shape=component;jettyWidth=8;jettyHeight=4;" vertex="1" parent="Ysixr_ogX4CC1b-aa-1L-15">
          <mxGeometry x="1" width="20" height="20" relative="1" as="geometry">
            <mxPoint x="-24" y="4" as="offset"/>
          </mxGeometry>
        </mxCell>
        <mxCell id="Ysixr_ogX4CC1b-aa-1L-45" style="edgeStyle=orthogonalEdgeStyle;rounded=0;orthogonalLoop=1;jettySize=auto;html=1;entryX=0.5;entryY=0;entryDx=0;entryDy=0;startArrow=classic;startFill=1;endArrow=none;endFill=0;" edge="1" parent="vUwvyv7RkVzBfDxeex2S-1" source="Ysixr_ogX4CC1b-aa-1L-19" target="Ysixr_ogX4CC1b-aa-1L-20">
          <mxGeometry relative="1" as="geometry"/>
        </mxCell>
        <mxCell id="Ysixr_ogX4CC1b-aa-1L-19" value="sqlite" style="shape=datastore;whiteSpace=wrap;html=1;" vertex="1" parent="vUwvyv7RkVzBfDxeex2S-1">
          <mxGeometry x="1350" y="-310" width="60" height="60" as="geometry"/>
        </mxCell>
        <mxCell id="Ysixr_ogX4CC1b-aa-1L-20" value="&lt;p style=&quot;margin: 0px ; margin-top: 6px ; text-align: center&quot;&gt;&lt;b&gt;report.dll&lt;/b&gt;&lt;/p&gt;&lt;hr&gt;&lt;p style=&quot;margin: 0px ; margin-left: 8px&quot;&gt;&lt;br&gt;&lt;/p&gt;" style="align=left;overflow=fill;html=1;" vertex="1" parent="vUwvyv7RkVzBfDxeex2S-1">
          <mxGeometry x="1450" y="-210" width="140" height="50" as="geometry"/>
        </mxCell>
        <mxCell id="Ysixr_ogX4CC1b-aa-1L-21" value="" style="shape=component;jettyWidth=8;jettyHeight=4;" vertex="1" parent="Ysixr_ogX4CC1b-aa-1L-20">
          <mxGeometry x="1" width="20" height="20" relative="1" as="geometry">
            <mxPoint x="-24" y="4" as="offset"/>
          </mxGeometry>
        </mxCell>
        <mxCell id="Ysixr_ogX4CC1b-aa-1L-22" value="&lt;p style=&quot;margin: 0px ; margin-top: 6px ; text-align: center&quot;&gt;&lt;b&gt;cprint.dll&lt;/b&gt;&lt;/p&gt;&lt;hr&gt;&lt;p style=&quot;margin: 0px ; margin-left: 8px&quot;&gt;&lt;br&gt;&lt;/p&gt;" style="align=left;overflow=fill;html=1;" vertex="1" parent="vUwvyv7RkVzBfDxeex2S-1">
          <mxGeometry x="1450" y="-160" width="140" height="50" as="geometry"/>
        </mxCell>
        <mxCell id="Ysixr_ogX4CC1b-aa-1L-23" value="" style="shape=component;jettyWidth=8;jettyHeight=4;" vertex="1" parent="Ysixr_ogX4CC1b-aa-1L-22">
          <mxGeometry x="1" width="20" height="20" relative="1" as="geometry">
            <mxPoint x="-24" y="4" as="offset"/>
          </mxGeometry>
        </mxCell>
        <mxCell id="Ysixr_ogX4CC1b-aa-1L-24" value="&lt;p style=&quot;margin: 0px ; margin-top: 6px ; text-align: center&quot;&gt;&lt;b&gt;barcode.dll&lt;/b&gt;&lt;/p&gt;&lt;hr&gt;&lt;p style=&quot;margin: 0px ; margin-left: 8px&quot;&gt;&lt;br&gt;&lt;/p&gt;" style="align=left;overflow=fill;html=1;" vertex="1" parent="vUwvyv7RkVzBfDxeex2S-1">
          <mxGeometry x="1450" y="-110" width="140" height="50" as="geometry"/>
        </mxCell>
        <mxCell id="Ysixr_ogX4CC1b-aa-1L-25" value="" style="shape=component;jettyWidth=8;jettyHeight=4;" vertex="1" parent="Ysixr_ogX4CC1b-aa-1L-24">
          <mxGeometry x="1" width="20" height="20" relative="1" as="geometry">
            <mxPoint x="-24" y="4" as="offset"/>
          </mxGeometry>
        </mxCell>
        <mxCell id="hK3NIbKPnzp6r-HQrI94-5" style="edgeStyle=orthogonalEdgeStyle;rounded=0;orthogonalLoop=1;jettySize=auto;html=1;entryX=1;entryY=0.5;entryDx=0;entryDy=0;startArrow=none;startFill=0;" edge="1" parent="vUwvyv7RkVzBfDxeex2S-1" source="Ysixr_ogX4CC1b-aa-1L-48" target="Ysixr_ogX4CC1b-aa-1L-2">
          <mxGeometry relative="1" as="geometry"/>
        </mxCell>
        <mxCell id="Ysixr_ogX4CC1b-aa-1L-48" value="&lt;p style=&quot;margin: 0px ; margin-top: 6px ; text-align: center&quot;&gt;&lt;b&gt;后台管理&lt;/b&gt;&lt;/p&gt;&lt;hr&gt;&lt;p style=&quot;margin: 0px ; margin-left: 8px&quot;&gt;+ 应用管理&lt;br&gt;+ 文件管理&lt;/p&gt;&lt;p style=&quot;margin: 0px ; margin-left: 8px&quot;&gt;+ 样式管理&lt;/p&gt;&lt;p style=&quot;margin: 0px ; margin-left: 8px&quot;&gt;+ 用户管理&lt;/p&gt;&lt;p style=&quot;margin: 0px ; margin-left: 8px&quot;&gt;&lt;br&gt;&lt;/p&gt;" style="align=left;overflow=fill;html=1;fillColor=#e1d5e7;strokeColor=#9673a6;" vertex="1" parent="vUwvyv7RkVzBfDxeex2S-1">
          <mxGeometry x="1305" y="378" width="140" height="104" as="geometry"/>
        </mxCell>
        <mxCell id="Ysixr_ogX4CC1b-aa-1L-49" value="" style="shape=component;jettyWidth=8;jettyHeight=4;" vertex="1" parent="Ysixr_ogX4CC1b-aa-1L-48">
          <mxGeometry x="1" width="20" height="20" relative="1" as="geometry">
            <mxPoint x="-24" y="4" as="offset"/>
          </mxGeometry>
        </mxCell>
        <mxCell id="hK3NIbKPnzp6r-HQrI94-6" value="获取样式" style="edgeStyle=orthogonalEdgeStyle;rounded=0;orthogonalLoop=1;jettySize=auto;html=1;entryX=0;entryY=0.5;entryDx=0;entryDy=0;startArrow=none;startFill=0;" edge="1" parent="vUwvyv7RkVzBfDxeex2S-1" source="hK3NIbKPnzp6r-HQrI94-0" target="Ysixr_ogX4CC1b-aa-1L-2">
          <mxGeometry relative="1" as="geometry"/>
        </mxCell>
        <mxCell id="hK3NIbKPnzp6r-HQrI94-0" value="&lt;p style=&quot;margin: 0px ; margin-top: 6px ; text-align: center&quot;&gt;&lt;b&gt;PDF打印服务&lt;/b&gt;&lt;/p&gt;&lt;hr&gt;&lt;p style=&quot;margin: 0px ; margin-left: 8px&quot;&gt;+ PDF打印&lt;br&gt;+ Excel导出&lt;/p&gt;&lt;p style=&quot;margin: 0px ; margin-left: 8px&quot;&gt;&lt;br&gt;&lt;/p&gt;&lt;p style=&quot;margin: 0px ; margin-left: 8px&quot;&gt;&lt;br&gt;&lt;/p&gt;&lt;p style=&quot;margin: 0px ; margin-left: 8px&quot;&gt;&lt;br&gt;&lt;/p&gt;" style="align=left;overflow=fill;html=1;fillColor=#f8cecc;strokeColor=#b85450;" vertex="1" parent="vUwvyv7RkVzBfDxeex2S-1">
          <mxGeometry x="860" y="385" width="140" height="90" as="geometry"/>
        </mxCell>
        <mxCell id="hK3NIbKPnzp6r-HQrI94-1" value="" style="shape=component;jettyWidth=8;jettyHeight=4;" vertex="1" parent="hK3NIbKPnzp6r-HQrI94-0">
          <mxGeometry x="1" width="20" height="20" relative="1" as="geometry">
            <mxPoint x="-24" y="4" as="offset"/>
          </mxGeometry>
        </mxCell>
        <mxCell id="Ysixr_ogX4CC1b-aa-1L-37" value="保存样式" style="edgeStyle=orthogonalEdgeStyle;rounded=0;orthogonalLoop=1;jettySize=auto;html=1;entryX=0;entryY=0.5;entryDx=0;entryDy=0;" edge="1" parent="vUwvyv7RkVzBfDxeex2S-1" source="jfzeH325nK5q26_Yn8DF-0" target="Ysixr_ogX4CC1b-aa-1L-0">
          <mxGeometry relative="1" as="geometry"/>
        </mxCell>
      </root>
    </mxGraphModel>
  </diagram>
  <diagram id="2GILlItnUtB8EWcyV6hh" name="类图">
    <mxGraphModel dx="1185" dy="1859" grid="1" gridSize="10" guides="1" tooltips="1" connect="1" arrows="1" fold="1" page="1" pageScale="1" pageWidth="827" pageHeight="1169" math="0" shadow="0">
      <root>
        <mxCell id="f-OMNNrhYvCfzcEGVuAs-0"/>
        <mxCell id="f-OMNNrhYvCfzcEGVuAs-1" parent="f-OMNNrhYvCfzcEGVuAs-0"/>
        <mxCell id="f-OMNNrhYvCfzcEGVuAs-6" value="Cell" style="swimlane;fontStyle=1;align=center;verticalAlign=top;childLayout=stackLayout;horizontal=1;startSize=32;horizontalStack=0;resizeParent=1;resizeParentMax=0;resizeLast=0;collapsible=1;marginBottom=0;" vertex="1" parent="f-OMNNrhYvCfzcEGVuAs-1">
          <mxGeometry x="517" y="-690" width="160" height="53" as="geometry"/>
        </mxCell>
        <mxCell id="MyPBkvuKeYoRmTAFPm5T-31" value="1:N" style="edgeStyle=orthogonalEdgeStyle;rounded=0;orthogonalLoop=1;jettySize=auto;html=1;entryX=0;entryY=0.5;entryDx=0;entryDy=0;startArrow=diamondThin;startFill=1;endArrow=classic;endFill=1;" edge="1" parent="f-OMNNrhYvCfzcEGVuAs-1" source="f-OMNNrhYvCfzcEGVuAs-10" target="f-OMNNrhYvCfzcEGVuAs-6">
          <mxGeometry relative="1" as="geometry"/>
        </mxCell>
        <mxCell id="f-OMNNrhYvCfzcEGVuAs-10" value="Row" style="swimlane;fontStyle=1;align=center;verticalAlign=top;childLayout=stackLayout;horizontal=1;startSize=26;horizontalStack=0;resizeParent=1;resizeParentMax=0;resizeLast=0;collapsible=1;marginBottom=0;" vertex="1" parent="f-OMNNrhYvCfzcEGVuAs-1">
          <mxGeometry x="280" y="-690" width="160" height="53" as="geometry"/>
        </mxCell>
        <mxCell id="MyPBkvuKeYoRmTAFPm5T-30" value="1:N" style="edgeStyle=orthogonalEdgeStyle;rounded=0;orthogonalLoop=1;jettySize=auto;html=1;startArrow=diamondThin;startFill=1;endArrow=classic;endFill=1;" edge="1" parent="f-OMNNrhYvCfzcEGVuAs-1" source="f-OMNNrhYvCfzcEGVuAs-14" target="f-OMNNrhYvCfzcEGVuAs-10">
          <mxGeometry relative="1" as="geometry"/>
        </mxCell>
        <mxCell id="f-OMNNrhYvCfzcEGVuAs-14" value="Table" style="swimlane;fontStyle=1;align=center;verticalAlign=top;childLayout=stackLayout;horizontal=1;startSize=26;horizontalStack=0;resizeParent=1;resizeParentMax=0;resizeLast=0;collapsible=1;marginBottom=0;" vertex="1" parent="f-OMNNrhYvCfzcEGVuAs-1">
          <mxGeometry x="280" y="-780" width="160" height="50" as="geometry"/>
        </mxCell>
        <mxCell id="f-OMNNrhYvCfzcEGVuAs-18" value="Qrcode" style="swimlane;fontStyle=1;align=center;verticalAlign=top;childLayout=stackLayout;horizontal=1;startSize=26;horizontalStack=0;resizeParent=1;resizeParentMax=0;resizeLast=0;collapsible=1;marginBottom=0;" vertex="1" parent="f-OMNNrhYvCfzcEGVuAs-1">
          <mxGeometry x="280" y="-958" width="160" height="48" as="geometry"/>
        </mxCell>
        <mxCell id="f-OMNNrhYvCfzcEGVuAs-22" value="Barcode" style="swimlane;fontStyle=1;align=center;verticalAlign=top;childLayout=stackLayout;horizontal=1;startSize=26;horizontalStack=0;resizeParent=1;resizeParentMax=0;resizeLast=0;collapsible=1;marginBottom=0;" vertex="1" parent="f-OMNNrhYvCfzcEGVuAs-1">
          <mxGeometry x="280" y="-1014" width="160" height="48" as="geometry"/>
        </mxCell>
        <mxCell id="MyPBkvuKeYoRmTAFPm5T-23" style="edgeStyle=orthogonalEdgeStyle;rounded=0;orthogonalLoop=1;jettySize=auto;html=1;entryX=0;entryY=0.5;entryDx=0;entryDy=0;startArrow=block;startFill=0;endArrow=none;endFill=0;" edge="1" parent="f-OMNNrhYvCfzcEGVuAs-1" source="f-OMNNrhYvCfzcEGVuAs-26" target="f-OMNNrhYvCfzcEGVuAs-22">
          <mxGeometry relative="1" as="geometry">
            <Array as="points">
              <mxPoint x="235" y="-905"/>
              <mxPoint x="235" y="-990"/>
            </Array>
          </mxGeometry>
        </mxCell>
        <mxCell id="bv6Osa0RWJ-gCc0IEhzB-35" style="edgeStyle=orthogonalEdgeStyle;rounded=0;orthogonalLoop=1;jettySize=auto;html=1;entryX=0;entryY=0.5;entryDx=0;entryDy=0;startArrow=block;startFill=0;endArrow=none;endFill=0;" edge="1" parent="f-OMNNrhYvCfzcEGVuAs-1" source="f-OMNNrhYvCfzcEGVuAs-26" target="f-OMNNrhYvCfzcEGVuAs-34">
          <mxGeometry relative="1" as="geometry"/>
        </mxCell>
        <mxCell id="bv6Osa0RWJ-gCc0IEhzB-36" style="edgeStyle=orthogonalEdgeStyle;rounded=0;orthogonalLoop=1;jettySize=auto;html=1;entryX=0;entryY=0.5;entryDx=0;entryDy=0;startArrow=block;startFill=0;endArrow=none;endFill=0;" edge="1" parent="f-OMNNrhYvCfzcEGVuAs-1" source="f-OMNNrhYvCfzcEGVuAs-26" target="f-OMNNrhYvCfzcEGVuAs-18">
          <mxGeometry relative="1" as="geometry"/>
        </mxCell>
        <mxCell id="bv6Osa0RWJ-gCc0IEhzB-37" style="edgeStyle=orthogonalEdgeStyle;rounded=0;orthogonalLoop=1;jettySize=auto;html=1;entryX=0;entryY=0.5;entryDx=0;entryDy=0;startArrow=block;startFill=0;endArrow=none;endFill=0;" edge="1" parent="f-OMNNrhYvCfzcEGVuAs-1" source="f-OMNNrhYvCfzcEGVuAs-26" target="f-OMNNrhYvCfzcEGVuAs-38">
          <mxGeometry relative="1" as="geometry"/>
        </mxCell>
        <mxCell id="bv6Osa0RWJ-gCc0IEhzB-38" style="edgeStyle=orthogonalEdgeStyle;rounded=0;orthogonalLoop=1;jettySize=auto;html=1;entryX=0;entryY=0.5;entryDx=0;entryDy=0;startArrow=block;startFill=0;endArrow=none;endFill=0;" edge="1" parent="f-OMNNrhYvCfzcEGVuAs-1" source="f-OMNNrhYvCfzcEGVuAs-26" target="f-OMNNrhYvCfzcEGVuAs-2">
          <mxGeometry relative="1" as="geometry"/>
        </mxCell>
        <mxCell id="bv6Osa0RWJ-gCc0IEhzB-39" style="edgeStyle=orthogonalEdgeStyle;rounded=0;orthogonalLoop=1;jettySize=auto;html=1;entryX=0;entryY=0.5;entryDx=0;entryDy=0;startArrow=block;startFill=0;endArrow=none;endFill=0;" edge="1" parent="f-OMNNrhYvCfzcEGVuAs-1" source="f-OMNNrhYvCfzcEGVuAs-26" target="f-OMNNrhYvCfzcEGVuAs-14">
          <mxGeometry relative="1" as="geometry"/>
        </mxCell>
        <mxCell id="bv6Osa0RWJ-gCc0IEhzB-40" style="edgeStyle=orthogonalEdgeStyle;rounded=0;orthogonalLoop=1;jettySize=auto;html=1;entryX=0;entryY=0.5;entryDx=0;entryDy=0;startArrow=block;startFill=0;endArrow=none;endFill=0;" edge="1" parent="f-OMNNrhYvCfzcEGVuAs-1" source="f-OMNNrhYvCfzcEGVuAs-26" target="f-OMNNrhYvCfzcEGVuAs-10">
          <mxGeometry relative="1" as="geometry"/>
        </mxCell>
        <mxCell id="f-OMNNrhYvCfzcEGVuAs-26" value="control" style="swimlane;fontStyle=1;align=center;verticalAlign=top;childLayout=stackLayout;horizontal=1;startSize=26;horizontalStack=0;resizeParent=1;resizeParentMax=0;resizeLast=0;collapsible=1;marginBottom=0;" vertex="1" parent="f-OMNNrhYvCfzcEGVuAs-1">
          <mxGeometry x="30" y="-950" width="160" height="90" as="geometry"/>
        </mxCell>
        <mxCell id="f-OMNNrhYvCfzcEGVuAs-30" value="Line" style="swimlane;fontStyle=1;align=center;verticalAlign=top;childLayout=stackLayout;horizontal=1;startSize=26;horizontalStack=0;resizeParent=1;resizeParentMax=0;resizeLast=0;collapsible=1;marginBottom=0;" vertex="1" parent="f-OMNNrhYvCfzcEGVuAs-1">
          <mxGeometry x="280" y="-1071" width="160" height="48" as="geometry"/>
        </mxCell>
        <mxCell id="f-OMNNrhYvCfzcEGVuAs-34" value="Rect" style="swimlane;fontStyle=1;align=center;verticalAlign=top;childLayout=stackLayout;horizontal=1;startSize=26;horizontalStack=0;resizeParent=1;resizeParentMax=0;resizeLast=0;collapsible=1;marginBottom=0;" vertex="1" parent="f-OMNNrhYvCfzcEGVuAs-1">
          <mxGeometry x="280" y="-1130" width="160" height="50" as="geometry">
            <mxRectangle x="280" y="-1110" width="60" height="26" as="alternateBounds"/>
          </mxGeometry>
        </mxCell>
        <mxCell id="f-OMNNrhYvCfzcEGVuAs-38" value="Image" style="swimlane;fontStyle=1;align=center;verticalAlign=top;childLayout=stackLayout;horizontal=1;startSize=26;horizontalStack=0;resizeParent=1;resizeParentMax=0;resizeLast=0;collapsible=1;marginBottom=0;" vertex="1" parent="f-OMNNrhYvCfzcEGVuAs-1">
          <mxGeometry x="280" y="-900" width="160" height="50" as="geometry"/>
        </mxCell>
        <mxCell id="MyPBkvuKeYoRmTAFPm5T-5" style="edgeStyle=orthogonalEdgeStyle;rounded=0;orthogonalLoop=1;jettySize=auto;html=1;entryX=0;entryY=0.633;entryDx=0;entryDy=0;entryPerimeter=0;startArrow=diamondThin;startFill=1;endArrow=classic;endFill=1;" edge="1" parent="f-OMNNrhYvCfzcEGVuAs-1" target="MyPBkvuKeYoRmTAFPm5T-3">
          <mxGeometry relative="1" as="geometry">
            <mxPoint x="220" y="-357" as="sourcePoint"/>
          </mxGeometry>
        </mxCell>
        <mxCell id="MyPBkvuKeYoRmTAFPm5T-6" style="edgeStyle=orthogonalEdgeStyle;rounded=0;orthogonalLoop=1;jettySize=auto;html=1;entryX=0;entryY=0.5;entryDx=0;entryDy=0;startArrow=diamondThin;startFill=1;endArrow=classic;endFill=1;" edge="1" parent="f-OMNNrhYvCfzcEGVuAs-1" target="MyPBkvuKeYoRmTAFPm5T-0">
          <mxGeometry relative="1" as="geometry">
            <mxPoint x="220" y="-370" as="sourcePoint"/>
            <Array as="points">
              <mxPoint x="289" y="-370"/>
              <mxPoint x="289" y="-390"/>
            </Array>
          </mxGeometry>
        </mxCell>
        <mxCell id="MyPBkvuKeYoRmTAFPm5T-17" style="edgeStyle=orthogonalEdgeStyle;rounded=0;orthogonalLoop=1;jettySize=auto;html=1;entryX=0.5;entryY=1;entryDx=0;entryDy=0;startArrow=diamond;startFill=0;endArrow=classic;endFill=1;" edge="1" parent="f-OMNNrhYvCfzcEGVuAs-1" target="MyPBkvuKeYoRmTAFPm5T-16">
          <mxGeometry relative="1" as="geometry">
            <mxPoint x="140" y="-390" as="sourcePoint"/>
            <Array as="points">
              <mxPoint x="140" y="-420"/>
              <mxPoint x="140" y="-420"/>
            </Array>
          </mxGeometry>
        </mxCell>
        <mxCell id="bv6Osa0RWJ-gCc0IEhzB-31" style="edgeStyle=orthogonalEdgeStyle;rounded=0;orthogonalLoop=1;jettySize=auto;html=1;entryX=1;entryY=0.5;entryDx=0;entryDy=0;startArrow=block;startFill=0;endArrow=none;endFill=0;" edge="1" parent="f-OMNNrhYvCfzcEGVuAs-1" source="f-OMNNrhYvCfzcEGVuAs-89" target="MyPBkvuKeYoRmTAFPm5T-0">
          <mxGeometry relative="1" as="geometry"/>
        </mxCell>
        <mxCell id="bv6Osa0RWJ-gCc0IEhzB-32" style="edgeStyle=orthogonalEdgeStyle;rounded=0;orthogonalLoop=1;jettySize=auto;html=1;entryX=1;entryY=0.5;entryDx=0;entryDy=0;startArrow=block;startFill=0;endArrow=none;endFill=0;" edge="1" parent="f-OMNNrhYvCfzcEGVuAs-1" source="f-OMNNrhYvCfzcEGVuAs-89" target="MyPBkvuKeYoRmTAFPm5T-1">
          <mxGeometry relative="1" as="geometry"/>
        </mxCell>
        <mxCell id="bv6Osa0RWJ-gCc0IEhzB-33" style="edgeStyle=orthogonalEdgeStyle;rounded=0;orthogonalLoop=1;jettySize=auto;html=1;entryX=1;entryY=0.5;entryDx=0;entryDy=0;startArrow=block;startFill=0;endArrow=none;endFill=0;" edge="1" parent="f-OMNNrhYvCfzcEGVuAs-1" source="f-OMNNrhYvCfzcEGVuAs-89" target="MyPBkvuKeYoRmTAFPm5T-2">
          <mxGeometry relative="1" as="geometry"/>
        </mxCell>
        <mxCell id="f-OMNNrhYvCfzcEGVuAs-89" value="&lt;p style=&quot;margin: 0px ; margin-top: 4px ; text-align: center&quot;&gt;&lt;b&gt;Panel&lt;/b&gt;&lt;/p&gt;&lt;hr size=&quot;1&quot;&gt;&lt;div style=&quot;height: 2px&quot;&gt;&lt;/div&gt;" style="verticalAlign=top;align=left;overflow=fill;fontSize=12;fontFamily=Helvetica;html=1;" vertex="1" parent="f-OMNNrhYvCfzcEGVuAs-1">
          <mxGeometry x="618.5" y="-395" width="140" height="60" as="geometry"/>
        </mxCell>
        <mxCell id="MyPBkvuKeYoRmTAFPm5T-0" value="&lt;p style=&quot;margin: 0px ; margin-top: 4px ; text-align: center&quot;&gt;&lt;b&gt;FieldBindingPanel&lt;/b&gt;&lt;/p&gt;&lt;hr size=&quot;1&quot;&gt;&lt;div style=&quot;height: 2px&quot;&gt;&lt;/div&gt;" style="verticalAlign=top;align=left;overflow=fill;fontSize=12;fontFamily=Helvetica;html=1;" vertex="1" parent="f-OMNNrhYvCfzcEGVuAs-1">
          <mxGeometry x="357" y="-420" width="160" height="60" as="geometry"/>
        </mxCell>
        <mxCell id="MyPBkvuKeYoRmTAFPm5T-1" value="&lt;p style=&quot;margin: 0px ; margin-top: 4px ; text-align: center&quot;&gt;&lt;b&gt;FieldPropertyPanel&lt;/b&gt;&lt;/p&gt;&lt;hr size=&quot;1&quot;&gt;&lt;div style=&quot;height: 2px&quot;&gt;&lt;/div&gt;" style="verticalAlign=top;align=left;overflow=fill;fontSize=12;fontFamily=Helvetica;html=1;" vertex="1" parent="f-OMNNrhYvCfzcEGVuAs-1">
          <mxGeometry x="357" y="-340" width="160" height="60" as="geometry"/>
        </mxCell>
        <mxCell id="MyPBkvuKeYoRmTAFPm5T-2" value="&lt;p style=&quot;margin: 0px ; margin-top: 4px ; text-align: center&quot;&gt;&lt;b&gt;PageSettingPanel&lt;/b&gt;&lt;/p&gt;&lt;hr size=&quot;1&quot;&gt;&lt;div style=&quot;height: 2px&quot;&gt;&lt;/div&gt;" style="verticalAlign=top;align=left;overflow=fill;fontSize=12;fontFamily=Helvetica;html=1;" vertex="1" parent="f-OMNNrhYvCfzcEGVuAs-1">
          <mxGeometry x="357" y="-270" width="160" height="60" as="geometry"/>
        </mxCell>
        <mxCell id="MyPBkvuKeYoRmTAFPm5T-10" style="edgeStyle=orthogonalEdgeStyle;rounded=0;orthogonalLoop=1;jettySize=auto;html=1;entryX=0;entryY=0.5;entryDx=0;entryDy=0;startArrow=none;startFill=0;endArrow=block;endFill=0;" edge="1" parent="f-OMNNrhYvCfzcEGVuAs-1" source="MyPBkvuKeYoRmTAFPm5T-3" target="f-OMNNrhYvCfzcEGVuAs-89">
          <mxGeometry relative="1" as="geometry"/>
        </mxCell>
        <mxCell id="MyPBkvuKeYoRmTAFPm5T-3" value="&lt;p style=&quot;margin: 0px ; margin-top: 4px ; text-align: center&quot;&gt;&lt;b&gt;FieldPanel&lt;/b&gt;&lt;/p&gt;&lt;hr size=&quot;1&quot;&gt;&lt;div style=&quot;height: 2px&quot;&gt;&lt;/div&gt;" style="verticalAlign=top;align=left;overflow=fill;fontSize=12;fontFamily=Helvetica;html=1;" vertex="1" parent="f-OMNNrhYvCfzcEGVuAs-1">
          <mxGeometry x="357" y="-500" width="160" height="60" as="geometry"/>
        </mxCell>
        <mxCell id="MyPBkvuKeYoRmTAFPm5T-16" value="&lt;p style=&quot;margin: 0px ; margin-top: 4px ; text-align: center&quot;&gt;&lt;br&gt;&lt;b&gt;LIst&amp;lt;control&amp;gt;&lt;/b&gt;&lt;br&gt;&lt;/p&gt;&lt;hr size=&quot;1&quot;&gt;&lt;div style=&quot;height: 2px&quot;&gt;&lt;/div&gt;" style="verticalAlign=top;align=left;overflow=fill;fontSize=12;fontFamily=Helvetica;html=1;" vertex="1" parent="f-OMNNrhYvCfzcEGVuAs-1">
          <mxGeometry x="60" y="-585" width="160" height="60" as="geometry"/>
        </mxCell>
        <mxCell id="VvNA5VoGOGM82m-7EV4c-2" style="edgeStyle=orthogonalEdgeStyle;rounded=0;orthogonalLoop=1;jettySize=auto;html=1;startArrow=diamondThin;startFill=1;endArrow=classic;endFill=1;entryX=0;entryY=0.5;entryDx=0;entryDy=0;" edge="1" parent="f-OMNNrhYvCfzcEGVuAs-1" source="MyPBkvuKeYoRmTAFPm5T-19" target="MyPBkvuKeYoRmTAFPm5T-1">
          <mxGeometry relative="1" as="geometry">
            <mxPoint x="350" y="-310" as="targetPoint"/>
            <Array as="points">
              <mxPoint x="290" y="-340"/>
              <mxPoint x="290" y="-310"/>
            </Array>
          </mxGeometry>
        </mxCell>
        <mxCell id="VvNA5VoGOGM82m-7EV4c-3" style="edgeStyle=orthogonalEdgeStyle;rounded=0;orthogonalLoop=1;jettySize=auto;html=1;entryX=0;entryY=0.75;entryDx=0;entryDy=0;startArrow=diamondThin;startFill=1;endArrow=classic;endFill=1;" edge="1" parent="f-OMNNrhYvCfzcEGVuAs-1" source="MyPBkvuKeYoRmTAFPm5T-19" target="MyPBkvuKeYoRmTAFPm5T-2">
          <mxGeometry relative="1" as="geometry">
            <Array as="points">
              <mxPoint x="289" y="-320"/>
              <mxPoint x="289" y="-225"/>
            </Array>
          </mxGeometry>
        </mxCell>
        <mxCell id="VvNA5VoGOGM82m-7EV4c-36" style="edgeStyle=orthogonalEdgeStyle;rounded=0;orthogonalLoop=1;jettySize=auto;html=1;entryX=0;entryY=0.5;entryDx=0;entryDy=0;startArrow=none;startFill=0;endArrow=classic;endFill=1;" edge="1" parent="f-OMNNrhYvCfzcEGVuAs-1" source="MyPBkvuKeYoRmTAFPm5T-19" target="VvNA5VoGOGM82m-7EV4c-28">
          <mxGeometry relative="1" as="geometry">
            <Array as="points">
              <mxPoint x="29" y="-350"/>
              <mxPoint x="29" y="-50"/>
            </Array>
          </mxGeometry>
        </mxCell>
        <mxCell id="VvNA5VoGOGM82m-7EV4c-38" style="rounded=0;orthogonalLoop=1;jettySize=auto;html=1;entryX=0;entryY=0.5;entryDx=0;entryDy=0;startArrow=none;startFill=0;endArrow=classic;endFill=1;exitX=0.7;exitY=-0.012;exitDx=0;exitDy=0;exitPerimeter=0;" edge="1" parent="f-OMNNrhYvCfzcEGVuAs-1" source="MyPBkvuKeYoRmTAFPm5T-19" target="VvNA5VoGOGM82m-7EV4c-0">
          <mxGeometry relative="1" as="geometry">
            <mxPoint x="169" y="-400" as="sourcePoint"/>
          </mxGeometry>
        </mxCell>
        <mxCell id="VvNA5VoGOGM82m-7EV4c-39" style="edgeStyle=none;rounded=0;orthogonalLoop=1;jettySize=auto;html=1;entryX=0.579;entryY=-0.017;entryDx=0;entryDy=0;entryPerimeter=0;startArrow=none;startFill=0;endArrow=classic;endFill=1;" edge="1" parent="f-OMNNrhYvCfzcEGVuAs-1" source="MyPBkvuKeYoRmTAFPm5T-19" target="VvNA5VoGOGM82m-7EV4c-4">
          <mxGeometry relative="1" as="geometry"/>
        </mxCell>
        <mxCell id="VvNA5VoGOGM82m-7EV4c-40" style="edgeStyle=none;rounded=0;orthogonalLoop=1;jettySize=auto;html=1;entryX=0.5;entryY=0;entryDx=0;entryDy=0;startArrow=none;startFill=0;endArrow=classic;endFill=1;" edge="1" parent="f-OMNNrhYvCfzcEGVuAs-1" source="MyPBkvuKeYoRmTAFPm5T-19" target="VvNA5VoGOGM82m-7EV4c-10">
          <mxGeometry relative="1" as="geometry"/>
        </mxCell>
        <mxCell id="MyPBkvuKeYoRmTAFPm5T-19" value="&lt;p style=&quot;margin: 0px ; margin-top: 4px ; text-align: center&quot;&gt;&lt;b&gt;Editor&lt;/b&gt;&lt;/p&gt;&lt;hr size=&quot;1&quot;&gt;&lt;div style=&quot;height: 2px&quot;&gt;&lt;/div&gt;" style="verticalAlign=top;align=left;overflow=fill;fontSize=12;fontFamily=Helvetica;html=1;" vertex="1" parent="f-OMNNrhYvCfzcEGVuAs-1">
          <mxGeometry x="50" y="-390" width="170" height="80" as="geometry"/>
        </mxCell>
        <mxCell id="MyPBkvuKeYoRmTAFPm5T-29" style="edgeStyle=orthogonalEdgeStyle;rounded=0;orthogonalLoop=1;jettySize=auto;html=1;entryX=0.563;entryY=0;entryDx=0;entryDy=0;startArrow=block;startFill=0;endArrow=none;endFill=0;entryPerimeter=0;" edge="1" parent="f-OMNNrhYvCfzcEGVuAs-1" source="f-OMNNrhYvCfzcEGVuAs-2" target="f-OMNNrhYvCfzcEGVuAs-6">
          <mxGeometry relative="1" as="geometry"/>
        </mxCell>
        <mxCell id="f-OMNNrhYvCfzcEGVuAs-2" value="Text" style="swimlane;fontStyle=1;align=center;verticalAlign=top;childLayout=stackLayout;horizontal=1;startSize=26;horizontalStack=0;resizeParent=1;resizeParentMax=0;resizeLast=0;collapsible=1;marginBottom=0;" vertex="1" parent="f-OMNNrhYvCfzcEGVuAs-1">
          <mxGeometry x="280" y="-840" width="160" height="50" as="geometry"/>
        </mxCell>
        <mxCell id="bv6Osa0RWJ-gCc0IEhzB-41" style="edgeStyle=orthogonalEdgeStyle;rounded=0;orthogonalLoop=1;jettySize=auto;html=1;entryX=0;entryY=0.5;entryDx=0;entryDy=0;startArrow=block;startFill=0;endArrow=none;endFill=0;" edge="1" parent="f-OMNNrhYvCfzcEGVuAs-1" source="MyPBkvuKeYoRmTAFPm5T-32" target="bv6Osa0RWJ-gCc0IEhzB-12">
          <mxGeometry relative="1" as="geometry"/>
        </mxCell>
        <mxCell id="bv6Osa0RWJ-gCc0IEhzB-42" style="edgeStyle=orthogonalEdgeStyle;rounded=0;orthogonalLoop=1;jettySize=auto;html=1;entryX=0;entryY=0.5;entryDx=0;entryDy=0;startArrow=block;startFill=0;endArrow=none;endFill=0;" edge="1" parent="f-OMNNrhYvCfzcEGVuAs-1" source="MyPBkvuKeYoRmTAFPm5T-32" target="bv6Osa0RWJ-gCc0IEhzB-15">
          <mxGeometry relative="1" as="geometry"/>
        </mxCell>
        <mxCell id="bv6Osa0RWJ-gCc0IEhzB-43" style="edgeStyle=orthogonalEdgeStyle;rounded=0;orthogonalLoop=1;jettySize=auto;html=1;entryX=0;entryY=0.5;entryDx=0;entryDy=0;startArrow=block;startFill=0;endArrow=none;endFill=0;" edge="1" parent="f-OMNNrhYvCfzcEGVuAs-1" source="MyPBkvuKeYoRmTAFPm5T-32" target="bv6Osa0RWJ-gCc0IEhzB-13">
          <mxGeometry relative="1" as="geometry"/>
        </mxCell>
        <mxCell id="bv6Osa0RWJ-gCc0IEhzB-44" style="edgeStyle=orthogonalEdgeStyle;rounded=0;orthogonalLoop=1;jettySize=auto;html=1;entryX=0;entryY=0.5;entryDx=0;entryDy=0;startArrow=block;startFill=0;endArrow=none;endFill=0;" edge="1" parent="f-OMNNrhYvCfzcEGVuAs-1" source="MyPBkvuKeYoRmTAFPm5T-32" target="bv6Osa0RWJ-gCc0IEhzB-14">
          <mxGeometry relative="1" as="geometry"/>
        </mxCell>
        <mxCell id="MyPBkvuKeYoRmTAFPm5T-32" value="&lt;p style=&quot;margin: 0px ; margin-top: 4px ; text-align: center&quot;&gt;&lt;b&gt;FieldBindingPanel&lt;/b&gt;&lt;/p&gt;&lt;hr size=&quot;1&quot;&gt;&lt;div style=&quot;height: 2px&quot;&gt;&lt;/div&gt;" style="verticalAlign=top;align=left;overflow=fill;fontSize=12;fontFamily=Helvetica;html=1;" vertex="1" parent="f-OMNNrhYvCfzcEGVuAs-1">
          <mxGeometry x="413.5" y="235" width="137" height="60" as="geometry"/>
        </mxCell>
        <mxCell id="bv6Osa0RWJ-gCc0IEhzB-0" value="TextFieldPanel" style="swimlane;fontStyle=1;align=center;verticalAlign=top;childLayout=stackLayout;horizontal=1;startSize=26;horizontalStack=0;resizeParent=1;resizeParentMax=0;resizeLast=0;collapsible=1;marginBottom=0;" vertex="1" parent="f-OMNNrhYvCfzcEGVuAs-1">
          <mxGeometry x="246.5" y="235" width="160" height="60" as="geometry"/>
        </mxCell>
        <mxCell id="bv6Osa0RWJ-gCc0IEhzB-4" value="ListFieldPanel" style="swimlane;fontStyle=1;align=center;verticalAlign=top;childLayout=stackLayout;horizontal=1;startSize=21;horizontalStack=0;resizeParent=1;resizeParentMax=0;resizeLast=0;collapsible=1;marginBottom=0;" vertex="1" parent="f-OMNNrhYvCfzcEGVuAs-1">
          <mxGeometry x="246.5" y="306.5" width="160" height="50" as="geometry"/>
        </mxCell>
        <mxCell id="bv6Osa0RWJ-gCc0IEhzB-8" value="StaticShapePanel" style="swimlane;fontStyle=1;align=center;verticalAlign=top;childLayout=stackLayout;horizontal=1;startSize=26;horizontalStack=0;resizeParent=1;resizeParentMax=0;resizeLast=0;collapsible=1;marginBottom=0;" vertex="1" parent="f-OMNNrhYvCfzcEGVuAs-1">
          <mxGeometry x="246.5" y="375" width="160" height="60" as="geometry"/>
        </mxCell>
        <mxCell id="bv6Osa0RWJ-gCc0IEhzB-12" value="&lt;p style=&quot;margin: 0px ; margin-top: 4px ; text-align: center&quot;&gt;&lt;b&gt;ShapeBindingPanel&lt;/b&gt;&lt;/p&gt;&lt;hr size=&quot;1&quot;&gt;&lt;div style=&quot;height: 2px&quot;&gt;&lt;/div&gt;" style="verticalAlign=top;align=left;overflow=fill;fontSize=12;fontFamily=Helvetica;html=1;" vertex="1" parent="f-OMNNrhYvCfzcEGVuAs-1">
          <mxGeometry x="640.5" y="170" width="160" height="60" as="geometry"/>
        </mxCell>
        <mxCell id="bv6Osa0RWJ-gCc0IEhzB-13" value="&lt;p style=&quot;margin: 0px ; margin-top: 4px ; text-align: center&quot;&gt;&lt;b&gt;RowBindingPanel&lt;/b&gt;&lt;/p&gt;&lt;hr size=&quot;1&quot;&gt;&lt;div style=&quot;height: 2px&quot;&gt;&lt;/div&gt;" style="verticalAlign=top;align=left;overflow=fill;fontSize=12;fontFamily=Helvetica;html=1;" vertex="1" parent="f-OMNNrhYvCfzcEGVuAs-1">
          <mxGeometry x="640.5" y="300" width="160" height="60" as="geometry"/>
        </mxCell>
        <mxCell id="bv6Osa0RWJ-gCc0IEhzB-14" value="&lt;p style=&quot;margin: 0px ; margin-top: 4px ; text-align: center&quot;&gt;&lt;b&gt;CellBindingPanel&lt;/b&gt;&lt;/p&gt;&lt;hr size=&quot;1&quot;&gt;&lt;div style=&quot;height: 2px&quot;&gt;&lt;/div&gt;" style="verticalAlign=top;align=left;overflow=fill;fontSize=12;fontFamily=Helvetica;html=1;" vertex="1" parent="f-OMNNrhYvCfzcEGVuAs-1">
          <mxGeometry x="640.5" y="370" width="160" height="60" as="geometry"/>
        </mxCell>
        <mxCell id="bv6Osa0RWJ-gCc0IEhzB-15" value="&lt;p style=&quot;margin: 0px ; margin-top: 4px ; text-align: center&quot;&gt;&lt;b&gt;TextBindingPanel&lt;/b&gt;&lt;/p&gt;&lt;hr size=&quot;1&quot;&gt;&lt;div style=&quot;height: 2px&quot;&gt;&lt;/div&gt;" style="verticalAlign=top;align=left;overflow=fill;fontSize=12;fontFamily=Helvetica;html=1;" vertex="1" parent="f-OMNNrhYvCfzcEGVuAs-1">
          <mxGeometry x="640.5" y="235" width="160" height="60" as="geometry"/>
        </mxCell>
        <mxCell id="bv6Osa0RWJ-gCc0IEhzB-16" value="&lt;p style=&quot;margin: 0px ; margin-top: 4px ; text-align: center&quot;&gt;&lt;b&gt;ShapePropertyPanel&lt;/b&gt;&lt;/p&gt;&lt;hr size=&quot;1&quot;&gt;&lt;div style=&quot;height: 2px&quot;&gt;&lt;/div&gt;" style="verticalAlign=top;align=left;overflow=fill;fontSize=12;fontFamily=Helvetica;html=1;" vertex="1" parent="f-OMNNrhYvCfzcEGVuAs-1">
          <mxGeometry x="253.5" y="490" width="160" height="60" as="geometry"/>
        </mxCell>
        <mxCell id="bv6Osa0RWJ-gCc0IEhzB-17" value="&lt;p style=&quot;margin: 0px ; margin-top: 4px ; text-align: center&quot;&gt;&lt;b&gt;RowPropertyPanel&lt;/b&gt;&lt;/p&gt;&lt;hr size=&quot;1&quot;&gt;&lt;div style=&quot;height: 2px&quot;&gt;&lt;/div&gt;" style="verticalAlign=top;align=left;overflow=fill;fontSize=12;fontFamily=Helvetica;html=1;" vertex="1" parent="f-OMNNrhYvCfzcEGVuAs-1">
          <mxGeometry x="253.5" y="620" width="160" height="60" as="geometry"/>
        </mxCell>
        <mxCell id="bv6Osa0RWJ-gCc0IEhzB-18" value="&lt;p style=&quot;margin: 0px ; margin-top: 4px ; text-align: center&quot;&gt;&lt;b&gt;CellPropertyPanel&lt;/b&gt;&lt;/p&gt;&lt;hr size=&quot;1&quot;&gt;&lt;div style=&quot;height: 2px&quot;&gt;&lt;/div&gt;" style="verticalAlign=top;align=left;overflow=fill;fontSize=12;fontFamily=Helvetica;html=1;" vertex="1" parent="f-OMNNrhYvCfzcEGVuAs-1">
          <mxGeometry x="253.5" y="690" width="160" height="60" as="geometry"/>
        </mxCell>
        <mxCell id="bv6Osa0RWJ-gCc0IEhzB-19" value="&lt;p style=&quot;margin: 0px ; margin-top: 4px ; text-align: center&quot;&gt;&lt;b&gt;TextPropertyPanel&lt;/b&gt;&lt;/p&gt;&lt;hr size=&quot;1&quot;&gt;&lt;div style=&quot;height: 2px&quot;&gt;&lt;/div&gt;" style="verticalAlign=top;align=left;overflow=fill;fontSize=12;fontFamily=Helvetica;html=1;" vertex="1" parent="f-OMNNrhYvCfzcEGVuAs-1">
          <mxGeometry x="253.5" y="555" width="160" height="60" as="geometry"/>
        </mxCell>
        <mxCell id="bv6Osa0RWJ-gCc0IEhzB-20" value="SystemFieldPanel" style="swimlane;fontStyle=1;align=center;verticalAlign=top;childLayout=stackLayout;horizontal=1;startSize=29;horizontalStack=0;resizeParent=1;resizeParentMax=0;resizeLast=0;collapsible=1;marginBottom=0;" vertex="1" parent="f-OMNNrhYvCfzcEGVuAs-1">
          <mxGeometry x="246.5" y="160" width="160" height="60" as="geometry"/>
        </mxCell>
        <mxCell id="bv6Osa0RWJ-gCc0IEhzB-26" style="edgeStyle=orthogonalEdgeStyle;rounded=0;orthogonalLoop=1;jettySize=auto;html=1;entryX=0;entryY=0.5;entryDx=0;entryDy=0;startArrow=block;startFill=0;endArrow=none;endFill=0;" edge="1" parent="f-OMNNrhYvCfzcEGVuAs-1" source="bv6Osa0RWJ-gCc0IEhzB-24" target="bv6Osa0RWJ-gCc0IEhzB-20">
          <mxGeometry relative="1" as="geometry"/>
        </mxCell>
        <mxCell id="bv6Osa0RWJ-gCc0IEhzB-27" style="edgeStyle=orthogonalEdgeStyle;rounded=0;orthogonalLoop=1;jettySize=auto;html=1;entryX=0;entryY=0.5;entryDx=0;entryDy=0;startArrow=block;startFill=0;endArrow=none;endFill=0;" edge="1" parent="f-OMNNrhYvCfzcEGVuAs-1" source="bv6Osa0RWJ-gCc0IEhzB-24" target="bv6Osa0RWJ-gCc0IEhzB-0">
          <mxGeometry relative="1" as="geometry"/>
        </mxCell>
        <mxCell id="bv6Osa0RWJ-gCc0IEhzB-28" style="edgeStyle=orthogonalEdgeStyle;rounded=0;orthogonalLoop=1;jettySize=auto;html=1;entryX=0;entryY=0.75;entryDx=0;entryDy=0;startArrow=block;startFill=0;endArrow=none;endFill=0;" edge="1" parent="f-OMNNrhYvCfzcEGVuAs-1" source="bv6Osa0RWJ-gCc0IEhzB-24" target="bv6Osa0RWJ-gCc0IEhzB-4">
          <mxGeometry relative="1" as="geometry"/>
        </mxCell>
        <mxCell id="bv6Osa0RWJ-gCc0IEhzB-29" style="edgeStyle=orthogonalEdgeStyle;rounded=0;orthogonalLoop=1;jettySize=auto;html=1;entryX=0;entryY=0.5;entryDx=0;entryDy=0;startArrow=block;startFill=0;endArrow=none;endFill=0;" edge="1" parent="f-OMNNrhYvCfzcEGVuAs-1" source="bv6Osa0RWJ-gCc0IEhzB-24" target="bv6Osa0RWJ-gCc0IEhzB-8">
          <mxGeometry relative="1" as="geometry"/>
        </mxCell>
        <mxCell id="bv6Osa0RWJ-gCc0IEhzB-24" value="&lt;p style=&quot;margin: 0px ; margin-top: 4px ; text-align: center&quot;&gt;&lt;b&gt;FieldPanel&lt;/b&gt;&lt;/p&gt;&lt;hr size=&quot;1&quot;&gt;&lt;div style=&quot;height: 2px&quot;&gt;&lt;/div&gt;" style="verticalAlign=top;align=left;overflow=fill;fontSize=12;fontFamily=Helvetica;html=1;" vertex="1" parent="f-OMNNrhYvCfzcEGVuAs-1">
          <mxGeometry x="40" y="240" width="127" height="60" as="geometry"/>
        </mxCell>
        <mxCell id="bv6Osa0RWJ-gCc0IEhzB-46" style="edgeStyle=orthogonalEdgeStyle;rounded=0;orthogonalLoop=1;jettySize=auto;html=1;entryX=0;entryY=0.5;entryDx=0;entryDy=0;startArrow=block;startFill=0;endArrow=none;endFill=0;" edge="1" parent="f-OMNNrhYvCfzcEGVuAs-1" source="bv6Osa0RWJ-gCc0IEhzB-45" target="bv6Osa0RWJ-gCc0IEhzB-16">
          <mxGeometry relative="1" as="geometry"/>
        </mxCell>
        <mxCell id="bv6Osa0RWJ-gCc0IEhzB-47" style="edgeStyle=orthogonalEdgeStyle;rounded=0;orthogonalLoop=1;jettySize=auto;html=1;entryX=0.013;entryY=0.383;entryDx=0;entryDy=0;entryPerimeter=0;startArrow=block;startFill=0;endArrow=none;endFill=0;" edge="1" parent="f-OMNNrhYvCfzcEGVuAs-1" source="bv6Osa0RWJ-gCc0IEhzB-45" target="bv6Osa0RWJ-gCc0IEhzB-19">
          <mxGeometry relative="1" as="geometry"/>
        </mxCell>
        <mxCell id="bv6Osa0RWJ-gCc0IEhzB-48" style="edgeStyle=orthogonalEdgeStyle;rounded=0;orthogonalLoop=1;jettySize=auto;html=1;entryX=0;entryY=0.5;entryDx=0;entryDy=0;startArrow=block;startFill=0;endArrow=none;endFill=0;" edge="1" parent="f-OMNNrhYvCfzcEGVuAs-1" source="bv6Osa0RWJ-gCc0IEhzB-45" target="bv6Osa0RWJ-gCc0IEhzB-17">
          <mxGeometry relative="1" as="geometry"/>
        </mxCell>
        <mxCell id="bv6Osa0RWJ-gCc0IEhzB-49" style="edgeStyle=orthogonalEdgeStyle;rounded=0;orthogonalLoop=1;jettySize=auto;html=1;entryX=0;entryY=0.5;entryDx=0;entryDy=0;startArrow=block;startFill=0;endArrow=none;endFill=0;" edge="1" parent="f-OMNNrhYvCfzcEGVuAs-1" source="bv6Osa0RWJ-gCc0IEhzB-45" target="bv6Osa0RWJ-gCc0IEhzB-18">
          <mxGeometry relative="1" as="geometry"/>
        </mxCell>
        <mxCell id="bv6Osa0RWJ-gCc0IEhzB-45" value="&lt;p style=&quot;margin: 0px ; margin-top: 4px ; text-align: center&quot;&gt;&lt;b&gt;FieldPropertyPanel&lt;/b&gt;&lt;/p&gt;&lt;hr size=&quot;1&quot;&gt;&lt;div style=&quot;height: 2px&quot;&gt;&lt;/div&gt;" style="verticalAlign=top;align=left;overflow=fill;fontSize=12;fontFamily=Helvetica;html=1;" vertex="1" parent="f-OMNNrhYvCfzcEGVuAs-1">
          <mxGeometry x="13.5" y="550" width="160" height="60" as="geometry"/>
        </mxCell>
        <mxCell id="VvNA5VoGOGM82m-7EV4c-0" value="&lt;p style=&quot;margin: 0px ; margin-top: 4px ; text-align: center&quot;&gt;&lt;b&gt;SimplePageSettingToolBar&lt;/b&gt;&lt;/p&gt;&lt;hr size=&quot;1&quot;&gt;&lt;div style=&quot;height: 2px&quot;&gt;&lt;/div&gt;" style="verticalAlign=top;align=left;overflow=fill;fontSize=12;fontFamily=Helvetica;html=1;" vertex="1" parent="f-OMNNrhYvCfzcEGVuAs-1">
          <mxGeometry x="358.5" y="-590" width="160" height="60" as="geometry"/>
        </mxCell>
        <mxCell id="VvNA5VoGOGM82m-7EV4c-15" style="edgeStyle=orthogonalEdgeStyle;rounded=0;orthogonalLoop=1;jettySize=auto;html=1;entryX=0;entryY=0.5;entryDx=0;entryDy=0;startArrow=none;startFill=0;endArrow=classic;endFill=1;" edge="1" parent="f-OMNNrhYvCfzcEGVuAs-1" source="VvNA5VoGOGM82m-7EV4c-4" target="VvNA5VoGOGM82m-7EV4c-5">
          <mxGeometry relative="1" as="geometry"/>
        </mxCell>
        <mxCell id="VvNA5VoGOGM82m-7EV4c-16" style="edgeStyle=orthogonalEdgeStyle;rounded=0;orthogonalLoop=1;jettySize=auto;html=1;entryX=0;entryY=0.5;entryDx=0;entryDy=0;startArrow=none;startFill=0;endArrow=classic;endFill=1;" edge="1" parent="f-OMNNrhYvCfzcEGVuAs-1" source="VvNA5VoGOGM82m-7EV4c-4" target="VvNA5VoGOGM82m-7EV4c-6">
          <mxGeometry relative="1" as="geometry"/>
        </mxCell>
        <mxCell id="VvNA5VoGOGM82m-7EV4c-4" value="&lt;p style=&quot;margin: 0px ; margin-top: 4px ; text-align: center&quot;&gt;&lt;b&gt;PbReportStyleMessage&lt;/b&gt;&lt;/p&gt;&lt;hr size=&quot;1&quot;&gt;&lt;div style=&quot;height: 2px&quot;&gt;&lt;/div&gt;" style="verticalAlign=top;align=left;overflow=fill;fontSize=12;fontFamily=Helvetica;html=1;" vertex="1" parent="f-OMNNrhYvCfzcEGVuAs-1">
          <mxGeometry x="250" y="-80" width="140" height="60" as="geometry"/>
        </mxCell>
        <mxCell id="VvNA5VoGOGM82m-7EV4c-5" value="&lt;p style=&quot;margin: 0px ; margin-top: 4px ; text-align: center&quot;&gt;&lt;b&gt;PageSetting&lt;/b&gt;&lt;/p&gt;&lt;hr size=&quot;1&quot;&gt;&lt;div style=&quot;height: 2px&quot;&gt;&lt;/div&gt;" style="verticalAlign=top;align=left;overflow=fill;fontSize=12;fontFamily=Helvetica;html=1;" vertex="1" parent="f-OMNNrhYvCfzcEGVuAs-1">
          <mxGeometry x="500" y="-130" width="140" height="60" as="geometry"/>
        </mxCell>
        <mxCell id="VvNA5VoGOGM82m-7EV4c-17" style="edgeStyle=orthogonalEdgeStyle;rounded=0;orthogonalLoop=1;jettySize=auto;html=1;entryX=0;entryY=0.5;entryDx=0;entryDy=0;startArrow=none;startFill=0;endArrow=classic;endFill=1;" edge="1" parent="f-OMNNrhYvCfzcEGVuAs-1" source="VvNA5VoGOGM82m-7EV4c-6" target="VvNA5VoGOGM82m-7EV4c-8">
          <mxGeometry relative="1" as="geometry"/>
        </mxCell>
        <mxCell id="VvNA5VoGOGM82m-7EV4c-18" style="edgeStyle=orthogonalEdgeStyle;rounded=0;orthogonalLoop=1;jettySize=auto;html=1;entryX=0;entryY=0.5;entryDx=0;entryDy=0;startArrow=none;startFill=0;endArrow=classic;endFill=1;" edge="1" parent="f-OMNNrhYvCfzcEGVuAs-1" source="VvNA5VoGOGM82m-7EV4c-6" target="VvNA5VoGOGM82m-7EV4c-9">
          <mxGeometry relative="1" as="geometry"/>
        </mxCell>
        <mxCell id="VvNA5VoGOGM82m-7EV4c-26" style="edgeStyle=orthogonalEdgeStyle;rounded=0;orthogonalLoop=1;jettySize=auto;html=1;entryX=0;entryY=0.5;entryDx=0;entryDy=0;startArrow=none;startFill=0;endArrow=classic;endFill=1;" edge="1" parent="f-OMNNrhYvCfzcEGVuAs-1" source="VvNA5VoGOGM82m-7EV4c-6" target="VvNA5VoGOGM82m-7EV4c-24">
          <mxGeometry relative="1" as="geometry"/>
        </mxCell>
        <mxCell id="VvNA5VoGOGM82m-7EV4c-27" style="edgeStyle=orthogonalEdgeStyle;rounded=0;orthogonalLoop=1;jettySize=auto;html=1;entryX=0;entryY=0.5;entryDx=0;entryDy=0;startArrow=none;startFill=0;endArrow=classic;endFill=1;" edge="1" parent="f-OMNNrhYvCfzcEGVuAs-1" source="VvNA5VoGOGM82m-7EV4c-6" target="VvNA5VoGOGM82m-7EV4c-25">
          <mxGeometry relative="1" as="geometry"/>
        </mxCell>
        <mxCell id="VvNA5VoGOGM82m-7EV4c-6" value="&lt;p style=&quot;margin: 0px ; margin-top: 4px ; text-align: center&quot;&gt;&lt;b&gt;Controls&lt;/b&gt;&lt;/p&gt;&lt;hr size=&quot;1&quot;&gt;&lt;div style=&quot;height: 2px&quot;&gt;&lt;/div&gt;" style="verticalAlign=top;align=left;overflow=fill;fontSize=12;fontFamily=Helvetica;html=1;" vertex="1" parent="f-OMNNrhYvCfzcEGVuAs-1">
          <mxGeometry x="500" y="-30" width="140" height="60" as="geometry"/>
        </mxCell>
        <mxCell id="VvNA5VoGOGM82m-7EV4c-8" value="&lt;p style=&quot;margin: 0px ; margin-top: 4px ; text-align: center&quot;&gt;&lt;b&gt;Texts&lt;/b&gt;&lt;/p&gt;&lt;hr size=&quot;1&quot;&gt;&lt;div style=&quot;height: 2px&quot;&gt;&lt;/div&gt;" style="verticalAlign=top;align=left;overflow=fill;fontSize=12;fontFamily=Helvetica;html=1;" vertex="1" parent="f-OMNNrhYvCfzcEGVuAs-1">
          <mxGeometry x="686.5" y="-170" width="140" height="60" as="geometry"/>
        </mxCell>
        <mxCell id="VvNA5VoGOGM82m-7EV4c-9" value="&lt;p style=&quot;margin: 0px ; margin-top: 4px ; text-align: center&quot;&gt;&lt;b&gt;Tables&lt;/b&gt;&lt;/p&gt;&lt;hr size=&quot;1&quot;&gt;&lt;div style=&quot;height: 2px&quot;&gt;&lt;/div&gt;" style="verticalAlign=top;align=left;overflow=fill;fontSize=12;fontFamily=Helvetica;html=1;" vertex="1" parent="f-OMNNrhYvCfzcEGVuAs-1">
          <mxGeometry x="686.5" y="60" width="140" height="60" as="geometry"/>
        </mxCell>
        <mxCell id="VvNA5VoGOGM82m-7EV4c-41" style="edgeStyle=none;rounded=0;orthogonalLoop=1;jettySize=auto;html=1;entryX=0.568;entryY=0.033;entryDx=0;entryDy=0;entryPerimeter=0;startArrow=none;startFill=0;endArrow=classic;endFill=1;" edge="1" parent="f-OMNNrhYvCfzcEGVuAs-1" source="VvNA5VoGOGM82m-7EV4c-10" target="VvNA5VoGOGM82m-7EV4c-28">
          <mxGeometry relative="1" as="geometry"/>
        </mxCell>
        <mxCell id="VvNA5VoGOGM82m-7EV4c-42" style="edgeStyle=none;rounded=0;orthogonalLoop=1;jettySize=auto;html=1;entryX=0;entryY=0.5;entryDx=0;entryDy=0;startArrow=none;startFill=0;endArrow=classic;endFill=1;" edge="1" parent="f-OMNNrhYvCfzcEGVuAs-1" source="VvNA5VoGOGM82m-7EV4c-10" target="VvNA5VoGOGM82m-7EV4c-4">
          <mxGeometry relative="1" as="geometry"/>
        </mxCell>
        <mxCell id="VvNA5VoGOGM82m-7EV4c-10" value="&lt;p style=&quot;margin: 0px ; margin-top: 4px ; text-align: center&quot;&gt;&lt;b&gt;Renderer&lt;/b&gt;&lt;/p&gt;&lt;hr size=&quot;1&quot;&gt;&lt;div style=&quot;height: 2px&quot;&gt;&lt;/div&gt;" style="verticalAlign=top;align=left;overflow=fill;fontSize=12;fontFamily=Helvetica;html=1;" vertex="1" parent="f-OMNNrhYvCfzcEGVuAs-1">
          <mxGeometry x="60" y="-230" width="140" height="60" as="geometry"/>
        </mxCell>
        <mxCell id="VvNA5VoGOGM82m-7EV4c-24" value="&lt;p style=&quot;margin: 0px ; margin-top: 4px ; text-align: center&quot;&gt;&lt;br&gt;&lt;b&gt;Barcodes&lt;/b&gt;&lt;/p&gt;" style="verticalAlign=top;align=left;overflow=fill;fontSize=12;fontFamily=Helvetica;html=1;" vertex="1" parent="f-OMNNrhYvCfzcEGVuAs-1">
          <mxGeometry x="686.5" y="-90" width="140" height="60" as="geometry"/>
        </mxCell>
        <mxCell id="VvNA5VoGOGM82m-7EV4c-25" value="&lt;p style=&quot;margin: 0px ; margin-top: 4px ; text-align: center&quot;&gt;Qrcodes&lt;/p&gt;" style="verticalAlign=top;align=left;overflow=fill;fontSize=12;fontFamily=Helvetica;html=1;" vertex="1" parent="f-OMNNrhYvCfzcEGVuAs-1">
          <mxGeometry x="686.5" y="-15" width="140" height="60" as="geometry"/>
        </mxCell>
        <mxCell id="VvNA5VoGOGM82m-7EV4c-28" value="&lt;p style=&quot;margin: 0px ; margin-top: 4px ; text-align: center&quot;&gt;&lt;b&gt;ReportData&lt;/b&gt;&lt;/p&gt;&lt;hr size=&quot;1&quot;&gt;&lt;div style=&quot;height: 2px&quot;&gt;&lt;/div&gt;" style="verticalAlign=top;align=left;overflow=fill;fontSize=12;fontFamily=Helvetica;html=1;" vertex="1" parent="f-OMNNrhYvCfzcEGVuAs-1">
          <mxGeometry x="48.5" y="-80" width="140" height="60" as="geometry"/>
        </mxCell>
      </root>
    </mxGraphModel>
  </diagram>
  <diagram id="XaMOxhpMNRAjpwP_HYaM" name="交互图">
    <mxGraphModel dx="1422" dy="828" grid="1" gridSize="10" guides="1" tooltips="1" connect="1" arrows="1" fold="1" page="1" pageScale="1" pageWidth="827" pageHeight="1169" math="0" shadow="0">
      <root>
        <mxCell id="K2dEl47uot2qdiBDsWJw-0"/>
        <mxCell id="K2dEl47uot2qdiBDsWJw-1" parent="K2dEl47uot2qdiBDsWJw-0"/>
        <mxCell id="2hS3fsbg-guulKM6iDWs-1" value="ERP 前端" style="shape=umlLifeline;perimeter=lifelinePerimeter;whiteSpace=wrap;html=1;container=1;collapsible=0;recursiveResize=0;outlineConnect=0;" vertex="1" parent="K2dEl47uot2qdiBDsWJw-1">
          <mxGeometry x="130" y="120" width="90" height="620" as="geometry"/>
        </mxCell>
        <mxCell id="2hS3fsbg-guulKM6iDWs-4" value="" style="html=1;points=[];perimeter=orthogonalPerimeter;" vertex="1" parent="2hS3fsbg-guulKM6iDWs-1">
          <mxGeometry x="40" y="70" width="10" height="80" as="geometry"/>
        </mxCell>
        <mxCell id="2hS3fsbg-guulKM6iDWs-11" value="" style="html=1;points=[];perimeter=orthogonalPerimeter;" vertex="1" parent="2hS3fsbg-guulKM6iDWs-1">
          <mxGeometry x="40" y="220" width="10" height="320" as="geometry"/>
        </mxCell>
        <mxCell id="2hS3fsbg-guulKM6iDWs-2" value="Teemo.API" style="shape=umlLifeline;perimeter=lifelinePerimeter;whiteSpace=wrap;html=1;container=1;collapsible=0;recursiveResize=0;outlineConnect=0;" vertex="1" parent="K2dEl47uot2qdiBDsWJw-1">
          <mxGeometry x="340" y="120" width="110" height="610" as="geometry"/>
        </mxCell>
        <mxCell id="2hS3fsbg-guulKM6iDWs-8" value="" style="html=1;points=[];perimeter=orthogonalPerimeter;" vertex="1" parent="2hS3fsbg-guulKM6iDWs-2">
          <mxGeometry x="50" y="140" width="10" height="80" as="geometry"/>
        </mxCell>
        <mxCell id="2hS3fsbg-guulKM6iDWs-13" value="" style="html=1;points=[];perimeter=orthogonalPerimeter;" vertex="1" parent="2hS3fsbg-guulKM6iDWs-2">
          <mxGeometry x="50" y="290" width="10" height="80" as="geometry"/>
        </mxCell>
        <mxCell id="2hS3fsbg-guulKM6iDWs-18" value="" style="html=1;points=[];perimeter=orthogonalPerimeter;" vertex="1" parent="2hS3fsbg-guulKM6iDWs-2">
          <mxGeometry x="50" y="424" width="10" height="166" as="geometry"/>
        </mxCell>
        <mxCell id="2hS3fsbg-guulKM6iDWs-3" value="打印客户端" style="shape=umlLifeline;perimeter=lifelinePerimeter;whiteSpace=wrap;html=1;container=1;collapsible=0;recursiveResize=0;outlineConnect=0;" vertex="1" parent="K2dEl47uot2qdiBDsWJw-1">
          <mxGeometry x="540" y="120" width="130" height="620" as="geometry"/>
        </mxCell>
        <mxCell id="2hS3fsbg-guulKM6iDWs-23" value="" style="html=1;points=[];perimeter=orthogonalPerimeter;" vertex="1" parent="2hS3fsbg-guulKM6iDWs-3">
          <mxGeometry x="60" y="504" width="10" height="80" as="geometry"/>
        </mxCell>
        <mxCell id="2hS3fsbg-guulKM6iDWs-6" style="edgeStyle=none;rounded=0;orthogonalLoop=1;jettySize=auto;html=1;entryX=0.1;entryY=0.138;entryDx=0;entryDy=0;entryPerimeter=0;startArrow=none;startFill=0;endArrow=classic;endFill=1;" edge="1" parent="K2dEl47uot2qdiBDsWJw-1" source="2hS3fsbg-guulKM6iDWs-5" target="2hS3fsbg-guulKM6iDWs-4">
          <mxGeometry relative="1" as="geometry"/>
        </mxCell>
        <mxCell id="2hS3fsbg-guulKM6iDWs-7" value="编辑样式" style="text;html=1;resizable=0;points=[];align=center;verticalAlign=middle;labelBackgroundColor=#ffffff;" vertex="1" connectable="0" parent="2hS3fsbg-guulKM6iDWs-6">
          <mxGeometry x="-0.1721" y="-2" relative="1" as="geometry">
            <mxPoint as="offset"/>
          </mxGeometry>
        </mxCell>
        <mxCell id="2hS3fsbg-guulKM6iDWs-5" value="Actor" style="shape=umlActor;verticalLabelPosition=bottom;labelBackgroundColor=#ffffff;verticalAlign=top;html=1;" vertex="1" parent="K2dEl47uot2qdiBDsWJw-1">
          <mxGeometry x="30" y="170" width="30" height="60" as="geometry"/>
        </mxCell>
        <mxCell id="2hS3fsbg-guulKM6iDWs-9" value="" style="endArrow=open;endFill=1;endSize=12;html=1;entryX=0.1;entryY=0.138;entryDx=0;entryDy=0;entryPerimeter=0;" edge="1" parent="K2dEl47uot2qdiBDsWJw-1" target="2hS3fsbg-guulKM6iDWs-8">
          <mxGeometry width="160" relative="1" as="geometry">
            <mxPoint x="180" y="270" as="sourcePoint"/>
            <mxPoint x="340" y="270" as="targetPoint"/>
          </mxGeometry>
        </mxCell>
        <mxCell id="2hS3fsbg-guulKM6iDWs-10" value="通知打开设计器&lt;br&gt;Design" style="text;html=1;resizable=0;points=[];align=center;verticalAlign=middle;labelBackgroundColor=#ffffff;" vertex="1" connectable="0" parent="2hS3fsbg-guulKM6iDWs-9">
          <mxGeometry x="-0.1066" y="-4" relative="1" as="geometry">
            <mxPoint as="offset"/>
          </mxGeometry>
        </mxCell>
        <mxCell id="2hS3fsbg-guulKM6iDWs-12" value="返回设计器页面html" style="html=1;verticalAlign=bottom;endArrow=open;dashed=1;endSize=8;" edge="1" parent="K2dEl47uot2qdiBDsWJw-1">
          <mxGeometry relative="1" as="geometry">
            <mxPoint x="391" y="340" as="sourcePoint"/>
            <mxPoint x="181" y="340" as="targetPoint"/>
          </mxGeometry>
        </mxCell>
        <mxCell id="2hS3fsbg-guulKM6iDWs-14" value="" style="endArrow=open;endFill=1;endSize=12;html=1;entryX=0.1;entryY=0.138;entryDx=0;entryDy=0;entryPerimeter=0;exitX=1.3;exitY=0.219;exitDx=0;exitDy=0;exitPerimeter=0;" edge="1" parent="K2dEl47uot2qdiBDsWJw-1" source="2hS3fsbg-guulKM6iDWs-11">
          <mxGeometry width="160" relative="1" as="geometry">
            <mxPoint x="189" y="410" as="sourcePoint"/>
            <mxPoint x="395" y="411.03999999999996" as="targetPoint"/>
          </mxGeometry>
        </mxCell>
        <mxCell id="2hS3fsbg-guulKM6iDWs-15" value="保存样式&lt;br&gt;UploadReportStyle" style="text;html=1;resizable=0;points=[];align=center;verticalAlign=middle;labelBackgroundColor=#ffffff;" vertex="1" connectable="0" parent="2hS3fsbg-guulKM6iDWs-14">
          <mxGeometry x="-0.1066" y="-4" relative="1" as="geometry">
            <mxPoint as="offset"/>
          </mxGeometry>
        </mxCell>
        <mxCell id="2hS3fsbg-guulKM6iDWs-17" value="样式保存成功" style="html=1;verticalAlign=bottom;endArrow=open;dashed=1;endSize=8;entryX=1.2;entryY=0.441;entryDx=0;entryDy=0;entryPerimeter=0;" edge="1" parent="K2dEl47uot2qdiBDsWJw-1" target="2hS3fsbg-guulKM6iDWs-11">
          <mxGeometry relative="1" as="geometry">
            <mxPoint x="395" y="480" as="sourcePoint"/>
            <mxPoint x="190" y="481" as="targetPoint"/>
            <Array as="points">
              <mxPoint x="285" y="481"/>
              <mxPoint x="235" y="481"/>
            </Array>
          </mxGeometry>
        </mxCell>
        <mxCell id="2hS3fsbg-guulKM6iDWs-19" value="" style="endArrow=open;endFill=1;endSize=12;html=1;" edge="1" parent="K2dEl47uot2qdiBDsWJw-1">
          <mxGeometry width="160" relative="1" as="geometry">
            <mxPoint x="180" y="551" as="sourcePoint"/>
            <mxPoint x="386" y="551" as="targetPoint"/>
          </mxGeometry>
        </mxCell>
        <mxCell id="2hS3fsbg-guulKM6iDWs-20" value="通知执行打印&lt;br&gt;ExecutePrint" style="text;html=1;resizable=0;points=[];align=center;verticalAlign=middle;labelBackgroundColor=#ffffff;" vertex="1" connectable="0" parent="2hS3fsbg-guulKM6iDWs-19">
          <mxGeometry x="-0.1066" y="-4" relative="1" as="geometry">
            <mxPoint as="offset"/>
          </mxGeometry>
        </mxCell>
        <mxCell id="2hS3fsbg-guulKM6iDWs-21" value="" style="endArrow=open;endFill=1;endSize=12;html=1;" edge="1" parent="K2dEl47uot2qdiBDsWJw-1">
          <mxGeometry width="160" relative="1" as="geometry">
            <mxPoint x="400" y="623.5" as="sourcePoint"/>
            <mxPoint x="606" y="624.5" as="targetPoint"/>
          </mxGeometry>
        </mxCell>
        <mxCell id="2hS3fsbg-guulKM6iDWs-22" value="执行打印" style="text;html=1;resizable=0;points=[];align=center;verticalAlign=middle;labelBackgroundColor=#ffffff;" vertex="1" connectable="0" parent="2hS3fsbg-guulKM6iDWs-21">
          <mxGeometry x="-0.1066" y="-4" relative="1" as="geometry">
            <mxPoint x="3" y="-4.5" as="offset"/>
          </mxGeometry>
        </mxCell>
        <mxCell id="2hS3fsbg-guulKM6iDWs-24" value="打印已执行" style="html=1;verticalAlign=bottom;endArrow=open;dashed=1;endSize=8;entryX=1.1;entryY=0.381;entryDx=0;entryDy=0;entryPerimeter=0;" edge="1" parent="K2dEl47uot2qdiBDsWJw-1">
          <mxGeometry relative="1" as="geometry">
            <mxPoint x="380" y="633" as="sourcePoint"/>
            <mxPoint x="183" y="632.875" as="targetPoint"/>
            <Array as="points">
              <mxPoint x="285" y="631"/>
              <mxPoint x="235" y="631"/>
            </Array>
          </mxGeometry>
        </mxCell>
        <mxCell id="2hS3fsbg-guulKM6iDWs-25" value="完成打印" style="html=1;verticalAlign=bottom;endArrow=open;dashed=1;endSize=8;" edge="1" parent="K2dEl47uot2qdiBDsWJw-1">
          <mxGeometry relative="1" as="geometry">
            <mxPoint x="607" y="700" as="sourcePoint"/>
            <mxPoint x="400" y="703" as="targetPoint"/>
            <Array as="points">
              <mxPoint x="497" y="701"/>
              <mxPoint x="447" y="701"/>
            </Array>
          </mxGeometry>
        </mxCell>
        <mxCell id="2hS3fsbg-guulKM6iDWs-27" value="ERP 前端" style="shape=umlLifeline;perimeter=lifelinePerimeter;whiteSpace=wrap;html=1;container=1;collapsible=0;recursiveResize=0;outlineConnect=0;" vertex="1" parent="K2dEl47uot2qdiBDsWJw-1">
          <mxGeometry x="110" y="830" width="90" height="770" as="geometry"/>
        </mxCell>
        <mxCell id="2hS3fsbg-guulKM6iDWs-28" value="" style="html=1;points=[];perimeter=orthogonalPerimeter;" vertex="1" parent="2hS3fsbg-guulKM6iDWs-27">
          <mxGeometry x="40" y="60" width="10" height="260" as="geometry"/>
        </mxCell>
        <mxCell id="2hS3fsbg-guulKM6iDWs-29" value="" style="html=1;points=[];perimeter=orthogonalPerimeter;" vertex="1" parent="2hS3fsbg-guulKM6iDWs-27">
          <mxGeometry x="40" y="390" width="10" height="320" as="geometry"/>
        </mxCell>
        <mxCell id="2hS3fsbg-guulKM6iDWs-30" value="ERP 后端" style="shape=umlLifeline;perimeter=lifelinePerimeter;whiteSpace=wrap;html=1;container=1;collapsible=0;recursiveResize=0;outlineConnect=0;" vertex="1" parent="K2dEl47uot2qdiBDsWJw-1">
          <mxGeometry x="320" y="830" width="110" height="700" as="geometry"/>
        </mxCell>
        <mxCell id="2hS3fsbg-guulKM6iDWs-31" value="" style="html=1;points=[];perimeter=orthogonalPerimeter;" vertex="1" parent="2hS3fsbg-guulKM6iDWs-30">
          <mxGeometry x="50" y="113" width="10" height="147" as="geometry"/>
        </mxCell>
        <mxCell id="2hS3fsbg-guulKM6iDWs-34" value="Teemo.API" style="shape=umlLifeline;perimeter=lifelinePerimeter;whiteSpace=wrap;html=1;container=1;collapsible=0;recursiveResize=0;outlineConnect=0;" vertex="1" parent="K2dEl47uot2qdiBDsWJw-1">
          <mxGeometry x="510" y="830" width="130" height="760" as="geometry"/>
        </mxCell>
        <mxCell id="2hS3fsbg-guulKM6iDWs-59" value="" style="html=1;points=[];perimeter=orthogonalPerimeter;" vertex="1" parent="2hS3fsbg-guulKM6iDWs-34">
          <mxGeometry x="60" y="150" width="10" height="80" as="geometry"/>
        </mxCell>
        <mxCell id="2hS3fsbg-guulKM6iDWs-63" value="" style="html=1;points=[];perimeter=orthogonalPerimeter;" vertex="1" parent="2hS3fsbg-guulKM6iDWs-34">
          <mxGeometry x="60" y="310" width="10" height="80" as="geometry"/>
        </mxCell>
        <mxCell id="2hS3fsbg-guulKM6iDWs-64" value="" style="html=1;points=[];perimeter=orthogonalPerimeter;" vertex="1" parent="2hS3fsbg-guulKM6iDWs-34">
          <mxGeometry x="60" y="460" width="10" height="80" as="geometry"/>
        </mxCell>
        <mxCell id="2hS3fsbg-guulKM6iDWs-65" value="" style="html=1;points=[];perimeter=orthogonalPerimeter;" vertex="1" parent="2hS3fsbg-guulKM6iDWs-34">
          <mxGeometry x="60" y="594" width="10" height="146" as="geometry"/>
        </mxCell>
        <mxCell id="2hS3fsbg-guulKM6iDWs-36" style="edgeStyle=none;rounded=0;orthogonalLoop=1;jettySize=auto;html=1;entryX=0;entryY=0.069;entryDx=0;entryDy=0;entryPerimeter=0;startArrow=none;startFill=0;endArrow=classic;endFill=1;" edge="1" parent="K2dEl47uot2qdiBDsWJw-1" source="2hS3fsbg-guulKM6iDWs-38" target="2hS3fsbg-guulKM6iDWs-28">
          <mxGeometry relative="1" as="geometry"/>
        </mxCell>
        <mxCell id="2hS3fsbg-guulKM6iDWs-37" value="编辑样式" style="text;html=1;resizable=0;points=[];align=center;verticalAlign=middle;labelBackgroundColor=#ffffff;" vertex="1" connectable="0" parent="2hS3fsbg-guulKM6iDWs-36">
          <mxGeometry x="-0.1721" y="-2" relative="1" as="geometry">
            <mxPoint as="offset"/>
          </mxGeometry>
        </mxCell>
        <mxCell id="2hS3fsbg-guulKM6iDWs-38" value="Actor" style="shape=umlActor;verticalLabelPosition=bottom;labelBackgroundColor=#ffffff;verticalAlign=top;html=1;" vertex="1" parent="K2dEl47uot2qdiBDsWJw-1">
          <mxGeometry x="10" y="880" width="30" height="60" as="geometry"/>
        </mxCell>
        <mxCell id="2hS3fsbg-guulKM6iDWs-39" value="" style="endArrow=open;endFill=1;endSize=12;html=1;" edge="1" parent="K2dEl47uot2qdiBDsWJw-1" target="2hS3fsbg-guulKM6iDWs-31">
          <mxGeometry width="160" relative="1" as="geometry">
            <mxPoint x="163" y="950" as="sourcePoint"/>
            <mxPoint x="370" y="976" as="targetPoint"/>
          </mxGeometry>
        </mxCell>
        <mxCell id="2hS3fsbg-guulKM6iDWs-40" value="获取accessToken" style="text;html=1;resizable=0;points=[];align=center;verticalAlign=middle;labelBackgroundColor=#ffffff;" vertex="1" connectable="0" parent="2hS3fsbg-guulKM6iDWs-39">
          <mxGeometry x="-0.1066" y="-4" relative="1" as="geometry">
            <mxPoint x="5" y="-15" as="offset"/>
          </mxGeometry>
        </mxCell>
        <mxCell id="2hS3fsbg-guulKM6iDWs-41" value="返回accessToken" style="html=1;verticalAlign=bottom;endArrow=open;dashed=1;endSize=8;" edge="1" parent="K2dEl47uot2qdiBDsWJw-1">
          <mxGeometry relative="1" as="geometry">
            <mxPoint x="574.5" y="1050" as="sourcePoint"/>
            <mxPoint x="385.5" y="1050" as="targetPoint"/>
            <Array as="points"/>
            <mxPoint as="offset"/>
          </mxGeometry>
        </mxCell>
        <mxCell id="2hS3fsbg-guulKM6iDWs-42" value="" style="endArrow=open;endFill=1;endSize=12;html=1;entryX=0.1;entryY=0.013;entryDx=0;entryDy=0;entryPerimeter=0;exitX=1.3;exitY=0.219;exitDx=0;exitDy=0;exitPerimeter=0;" edge="1" parent="K2dEl47uot2qdiBDsWJw-1" source="2hS3fsbg-guulKM6iDWs-29" target="2hS3fsbg-guulKM6iDWs-64">
          <mxGeometry width="160" relative="1" as="geometry">
            <mxPoint x="169" y="1390" as="sourcePoint"/>
            <mxPoint x="375" y="1391.04" as="targetPoint"/>
          </mxGeometry>
        </mxCell>
        <mxCell id="2hS3fsbg-guulKM6iDWs-43" value="保存样式&lt;br&gt;UploadReportStyle" style="text;html=1;resizable=0;points=[];align=center;verticalAlign=middle;labelBackgroundColor=#ffffff;" vertex="1" connectable="0" parent="2hS3fsbg-guulKM6iDWs-42">
          <mxGeometry x="-0.1066" y="-4" relative="1" as="geometry">
            <mxPoint as="offset"/>
          </mxGeometry>
        </mxCell>
        <mxCell id="2hS3fsbg-guulKM6iDWs-44" value="样式保存成功" style="html=1;verticalAlign=bottom;endArrow=open;dashed=1;endSize=8;exitX=-0.1;exitY=0.988;exitDx=0;exitDy=0;exitPerimeter=0;" edge="1" parent="K2dEl47uot2qdiBDsWJw-1" source="2hS3fsbg-guulKM6iDWs-64">
          <mxGeometry relative="1" as="geometry">
            <mxPoint x="375" y="1460" as="sourcePoint"/>
            <mxPoint x="162" y="1369" as="targetPoint"/>
            <Array as="points">
              <mxPoint x="290" y="1369"/>
              <mxPoint x="220" y="1369"/>
            </Array>
          </mxGeometry>
        </mxCell>
        <mxCell id="2hS3fsbg-guulKM6iDWs-45" value="" style="endArrow=open;endFill=1;endSize=12;html=1;entryX=0;entryY=0.054;entryDx=0;entryDy=0;entryPerimeter=0;exitX=1;exitY=0.672;exitDx=0;exitDy=0;exitPerimeter=0;" edge="1" parent="K2dEl47uot2qdiBDsWJw-1" source="2hS3fsbg-guulKM6iDWs-29" target="2hS3fsbg-guulKM6iDWs-65">
          <mxGeometry width="160" relative="1" as="geometry">
            <mxPoint x="160" y="1444.5" as="sourcePoint"/>
            <mxPoint x="366" y="1444.5" as="targetPoint"/>
          </mxGeometry>
        </mxCell>
        <mxCell id="2hS3fsbg-guulKM6iDWs-46" value="通知执行打印&lt;br&gt;ExecutePrint" style="text;html=1;resizable=0;points=[];align=center;verticalAlign=middle;labelBackgroundColor=#ffffff;" vertex="1" connectable="0" parent="2hS3fsbg-guulKM6iDWs-45">
          <mxGeometry x="-0.1066" y="-4" relative="1" as="geometry">
            <mxPoint as="offset"/>
          </mxGeometry>
        </mxCell>
        <mxCell id="2hS3fsbg-guulKM6iDWs-47" value="" style="endArrow=open;endFill=1;endSize=12;html=1;entryX=0.5;entryY=0.025;entryDx=0;entryDy=0;entryPerimeter=0;" edge="1" parent="K2dEl47uot2qdiBDsWJw-1" target="2hS3fsbg-guulKM6iDWs-53">
          <mxGeometry width="160" relative="1" as="geometry">
            <mxPoint x="590" y="1470" as="sourcePoint"/>
            <mxPoint x="796" y="1471" as="targetPoint"/>
          </mxGeometry>
        </mxCell>
        <mxCell id="2hS3fsbg-guulKM6iDWs-48" value="执行打印" style="text;html=1;resizable=0;points=[];align=center;verticalAlign=middle;labelBackgroundColor=#ffffff;" vertex="1" connectable="0" parent="2hS3fsbg-guulKM6iDWs-47">
          <mxGeometry x="-0.1066" y="-4" relative="1" as="geometry">
            <mxPoint x="3" y="-4.5" as="offset"/>
          </mxGeometry>
        </mxCell>
        <mxCell id="2hS3fsbg-guulKM6iDWs-49" value="打印已执行" style="html=1;verticalAlign=bottom;endArrow=open;dashed=1;endSize=8;entryX=1.5;entryY=0.891;entryDx=0;entryDy=0;entryPerimeter=0;" edge="1" parent="K2dEl47uot2qdiBDsWJw-1" target="2hS3fsbg-guulKM6iDWs-29">
          <mxGeometry relative="1" as="geometry">
            <mxPoint x="577" y="1505" as="sourcePoint"/>
            <mxPoint x="160" y="1530.875" as="targetPoint"/>
            <Array as="points">
              <mxPoint x="220" y="1505"/>
            </Array>
          </mxGeometry>
        </mxCell>
        <mxCell id="2hS3fsbg-guulKM6iDWs-54" value="打印客户端" style="shape=umlLifeline;perimeter=lifelinePerimeter;whiteSpace=wrap;html=1;container=1;collapsible=0;recursiveResize=0;outlineConnect=0;" vertex="1" parent="K2dEl47uot2qdiBDsWJw-1">
          <mxGeometry x="677" y="830" width="133" height="770" as="geometry"/>
        </mxCell>
        <mxCell id="2hS3fsbg-guulKM6iDWs-57" value="返回设计器页面html" style="html=1;verticalAlign=bottom;endArrow=open;dashed=1;endSize=8;" edge="1" parent="K2dEl47uot2qdiBDsWJw-1">
          <mxGeometry relative="1" as="geometry">
            <mxPoint x="585" y="1220" as="sourcePoint"/>
            <mxPoint x="160" y="1220" as="targetPoint"/>
          </mxGeometry>
        </mxCell>
        <mxCell id="2hS3fsbg-guulKM6iDWs-60" value="" style="endArrow=open;endFill=1;endSize=12;html=1;" edge="1" parent="K2dEl47uot2qdiBDsWJw-1">
          <mxGeometry width="160" relative="1" as="geometry">
            <mxPoint x="378" y="990" as="sourcePoint"/>
            <mxPoint x="570" y="990" as="targetPoint"/>
          </mxGeometry>
        </mxCell>
        <mxCell id="2hS3fsbg-guulKM6iDWs-61" value="获取AppToken" style="text;html=1;resizable=0;points=[];align=center;verticalAlign=middle;labelBackgroundColor=#ffffff;" vertex="1" connectable="0" parent="2hS3fsbg-guulKM6iDWs-60">
          <mxGeometry x="-0.1066" y="-4" relative="1" as="geometry">
            <mxPoint x="5" y="-14" as="offset"/>
          </mxGeometry>
        </mxCell>
        <mxCell id="2hS3fsbg-guulKM6iDWs-62" value="返回accessToken" style="html=1;verticalAlign=bottom;endArrow=open;dashed=1;endSize=8;exitX=-0.1;exitY=1;exitDx=0;exitDy=0;exitPerimeter=0;" edge="1" parent="K2dEl47uot2qdiBDsWJw-1" source="2hS3fsbg-guulKM6iDWs-31">
          <mxGeometry relative="1" as="geometry">
            <mxPoint x="360" y="1090" as="sourcePoint"/>
            <mxPoint x="160" y="1090" as="targetPoint"/>
            <Array as="points"/>
            <mxPoint as="offset"/>
          </mxGeometry>
        </mxCell>
        <mxCell id="2hS3fsbg-guulKM6iDWs-66" value="" style="endArrow=open;endFill=1;endSize=12;html=1;entryX=0;entryY=0.125;entryDx=0;entryDy=0;entryPerimeter=0;" edge="1" parent="K2dEl47uot2qdiBDsWJw-1" target="2hS3fsbg-guulKM6iDWs-63">
          <mxGeometry width="160" relative="1" as="geometry">
            <mxPoint x="155" y="1150" as="sourcePoint"/>
            <mxPoint x="362" y="1150" as="targetPoint"/>
          </mxGeometry>
        </mxCell>
        <mxCell id="2hS3fsbg-guulKM6iDWs-67" value="通知打开设计器&lt;br&gt;Design" style="text;html=1;resizable=0;points=[];align=center;verticalAlign=middle;labelBackgroundColor=#ffffff;" vertex="1" connectable="0" parent="2hS3fsbg-guulKM6iDWs-66">
          <mxGeometry x="-0.1066" y="-4" relative="1" as="geometry">
            <mxPoint as="offset"/>
          </mxGeometry>
        </mxCell>
        <mxCell id="2hS3fsbg-guulKM6iDWs-53" value="" style="html=1;points=[];perimeter=orthogonalPerimeter;" vertex="1" parent="K2dEl47uot2qdiBDsWJw-1">
          <mxGeometry x="740" y="1467" width="10" height="80" as="geometry"/>
        </mxCell>
        <mxCell id="2hS3fsbg-guulKM6iDWs-69" value="完成打印" style="html=1;verticalAlign=bottom;endArrow=open;dashed=1;endSize=8;entryX=1.1;entryY=0.842;entryDx=0;entryDy=0;entryPerimeter=0;" edge="1" parent="K2dEl47uot2qdiBDsWJw-1" target="2hS3fsbg-guulKM6iDWs-65">
          <mxGeometry x="0.2913" relative="1" as="geometry">
            <mxPoint x="677" y="1546.5" as="sourcePoint"/>
            <mxPoint x="597" y="1546.5" as="targetPoint"/>
            <Array as="points">
              <mxPoint x="740" y="1547"/>
            </Array>
            <mxPoint as="offset"/>
          </mxGeometry>
        </mxCell>
      </root>
    </mxGraphModel>
  </diagram>
  <diagram id="-0sh4hPVdc8afpyNqrMc" name="Page-12">
    <mxGraphModel dx="782" dy="579" grid="1" gridSize="10" guides="1" tooltips="1" connect="1" arrows="1" fold="1" page="1" pageScale="1" pageWidth="827" pageHeight="1169" math="0" shadow="0">
      <root>
        <mxCell id="5h9LeyQ9DCCSea4F9Fg9-0"/>
        <mxCell id="5h9LeyQ9DCCSea4F9Fg9-1" parent="5h9LeyQ9DCCSea4F9Fg9-0"/>
        <mxCell id="zGzCUsFRrdnao4zFaLlQ-55" value="浏览器" style="swimlane;html=1;horizontal=0;startSize=20;rotation=90;" vertex="1" parent="5h9LeyQ9DCCSea4F9Fg9-1">
          <mxGeometry x="-290" y="383.5" width="934" height="255" as="geometry"/>
        </mxCell>
        <mxCell id="zGzCUsFRrdnao4zFaLlQ-1" style="edgeStyle=none;rounded=0;orthogonalLoop=1;jettySize=auto;html=1;startArrow=none;startFill=0;endArrow=classic;endFill=1;entryX=0.5;entryY=0;entryDx=0;entryDy=0;" edge="1" parent="5h9LeyQ9DCCSea4F9Fg9-1" source="3FtlGy7o2QHDthZddSRB-17" target="zGzCUsFRrdnao4zFaLlQ-2">
          <mxGeometry relative="1" as="geometry">
            <mxPoint x="137.5" y="130" as="targetPoint"/>
          </mxGeometry>
        </mxCell>
        <mxCell id="3FtlGy7o2QHDthZddSRB-17" value="保存样式" style="html=1;" vertex="1" parent="5h9LeyQ9DCCSea4F9Fg9-1">
          <mxGeometry x="89" y="80" width="110" height="50" as="geometry"/>
        </mxCell>
        <mxCell id="zGzCUsFRrdnao4zFaLlQ-4" style="rounded=0;orthogonalLoop=1;jettySize=auto;html=1;startArrow=none;startFill=0;endArrow=classic;endFill=1;entryX=0.5;entryY=0;entryDx=0;entryDy=0;" edge="1" parent="5h9LeyQ9DCCSea4F9Fg9-1" source="zGzCUsFRrdnao4zFaLlQ-2" target="zGzCUsFRrdnao4zFaLlQ-5">
          <mxGeometry relative="1" as="geometry">
            <mxPoint x="135" y="240" as="targetPoint"/>
          </mxGeometry>
        </mxCell>
        <mxCell id="zGzCUsFRrdnao4zFaLlQ-2" value="样式序列化&lt;br&gt;（protobuf）" style="html=1;" vertex="1" parent="5h9LeyQ9DCCSea4F9Fg9-1">
          <mxGeometry x="79" y="160" width="130" height="50" as="geometry"/>
        </mxCell>
        <mxCell id="zGzCUsFRrdnao4zFaLlQ-23" style="edgeStyle=none;rounded=0;orthogonalLoop=1;jettySize=auto;html=1;entryX=0;entryY=0.5;entryDx=0;entryDy=0;startArrow=none;startFill=0;endArrow=classic;endFill=1;" edge="1" parent="5h9LeyQ9DCCSea4F9Fg9-1" source="zGzCUsFRrdnao4zFaLlQ-5" target="zGzCUsFRrdnao4zFaLlQ-6">
          <mxGeometry relative="1" as="geometry"/>
        </mxCell>
        <mxCell id="zGzCUsFRrdnao4zFaLlQ-24" style="rounded=0;orthogonalLoop=1;jettySize=auto;html=1;startArrow=none;startFill=0;endArrow=classic;endFill=1;" edge="1" parent="5h9LeyQ9DCCSea4F9Fg9-1" source="zGzCUsFRrdnao4zFaLlQ-5" target="zGzCUsFRrdnao4zFaLlQ-18">
          <mxGeometry relative="1" as="geometry"/>
        </mxCell>
        <mxCell id="zGzCUsFRrdnao4zFaLlQ-5" value="通知后台上传样式&lt;br&gt;（json）" style="html=1;" vertex="1" parent="5h9LeyQ9DCCSea4F9Fg9-1">
          <mxGeometry x="90" y="240" width="110" height="50" as="geometry"/>
        </mxCell>
        <mxCell id="zGzCUsFRrdnao4zFaLlQ-9" style="edgeStyle=none;rounded=0;orthogonalLoop=1;jettySize=auto;html=1;startArrow=none;startFill=0;endArrow=classic;endFill=1;" edge="1" parent="5h9LeyQ9DCCSea4F9Fg9-1" source="zGzCUsFRrdnao4zFaLlQ-6" target="zGzCUsFRrdnao4zFaLlQ-8">
          <mxGeometry relative="1" as="geometry"/>
        </mxCell>
        <mxCell id="zGzCUsFRrdnao4zFaLlQ-6" value="uploadRepostStyle" style="html=1;" vertex="1" parent="5h9LeyQ9DCCSea4F9Fg9-1">
          <mxGeometry x="350" y="240" width="110" height="50" as="geometry"/>
        </mxCell>
        <mxCell id="zGzCUsFRrdnao4zFaLlQ-29" style="edgeStyle=none;rounded=0;orthogonalLoop=1;jettySize=auto;html=1;entryX=0.5;entryY=0;entryDx=0;entryDy=0;startArrow=none;startFill=0;endArrow=classic;endFill=1;" edge="1" parent="5h9LeyQ9DCCSea4F9Fg9-1" source="zGzCUsFRrdnao4zFaLlQ-8" target="zGzCUsFRrdnao4zFaLlQ-10">
          <mxGeometry relative="1" as="geometry"/>
        </mxCell>
        <mxCell id="zGzCUsFRrdnao4zFaLlQ-8" value="生成filekey" style="html=1;" vertex="1" parent="5h9LeyQ9DCCSea4F9Fg9-1">
          <mxGeometry x="350" y="330" width="110" height="50" as="geometry"/>
        </mxCell>
        <mxCell id="zGzCUsFRrdnao4zFaLlQ-30" style="edgeStyle=none;rounded=0;orthogonalLoop=1;jettySize=auto;html=1;entryX=0.5;entryY=0;entryDx=0;entryDy=0;startArrow=none;startFill=0;endArrow=classic;endFill=1;" edge="1" parent="5h9LeyQ9DCCSea4F9Fg9-1" source="zGzCUsFRrdnao4zFaLlQ-10" target="zGzCUsFRrdnao4zFaLlQ-11">
          <mxGeometry relative="1" as="geometry"/>
        </mxCell>
        <mxCell id="zGzCUsFRrdnao4zFaLlQ-10" value="样式配置信息&lt;br&gt;存储到DB，&lt;br&gt;uploaded=0" style="html=1;" vertex="1" parent="5h9LeyQ9DCCSea4F9Fg9-1">
          <mxGeometry x="350" y="420" width="110" height="50" as="geometry"/>
        </mxCell>
        <mxCell id="zGzCUsFRrdnao4zFaLlQ-31" style="edgeStyle=none;rounded=0;orthogonalLoop=1;jettySize=auto;html=1;entryX=0;entryY=0.5;entryDx=0;entryDy=0;startArrow=none;startFill=0;endArrow=classic;endFill=1;" edge="1" parent="5h9LeyQ9DCCSea4F9Fg9-1" target="zGzCUsFRrdnao4zFaLlQ-13">
          <mxGeometry relative="1" as="geometry">
            <mxPoint x="611" y="534.7203389830509" as="sourcePoint"/>
          </mxGeometry>
        </mxCell>
        <mxCell id="zGzCUsFRrdnao4zFaLlQ-48" style="edgeStyle=none;rounded=0;orthogonalLoop=1;jettySize=auto;html=1;entryX=0;entryY=0.5;entryDx=0;entryDy=0;startArrow=none;startFill=0;endArrow=classic;endFill=1;" edge="1" parent="5h9LeyQ9DCCSea4F9Fg9-1" source="zGzCUsFRrdnao4zFaLlQ-11" target="zGzCUsFRrdnao4zFaLlQ-13">
          <mxGeometry relative="1" as="geometry"/>
        </mxCell>
        <mxCell id="zGzCUsFRrdnao4zFaLlQ-11" value="带上回调地址&lt;br&gt;和回调参数，请求生成&lt;br&gt;七牛文件上传token" style="html=1;" vertex="1" parent="5h9LeyQ9DCCSea4F9Fg9-1">
          <mxGeometry x="350" y="510" width="110" height="50" as="geometry"/>
        </mxCell>
        <mxCell id="zGzCUsFRrdnao4zFaLlQ-42" style="edgeStyle=none;rounded=0;orthogonalLoop=1;jettySize=auto;html=1;entryX=0.418;entryY=-0.02;entryDx=0;entryDy=0;entryPerimeter=0;startArrow=none;startFill=0;endArrow=classic;endFill=1;" edge="1" parent="5h9LeyQ9DCCSea4F9Fg9-1" source="zGzCUsFRrdnao4zFaLlQ-13" target="zGzCUsFRrdnao4zFaLlQ-15">
          <mxGeometry relative="1" as="geometry"/>
        </mxCell>
        <mxCell id="zGzCUsFRrdnao4zFaLlQ-13" value="校验七牛&lt;br&gt;合法性请求" style="html=1;" vertex="1" parent="5h9LeyQ9DCCSea4F9Fg9-1">
          <mxGeometry x="600" y="510" width="110" height="50" as="geometry"/>
        </mxCell>
        <mxCell id="zGzCUsFRrdnao4zFaLlQ-17" style="edgeStyle=none;rounded=0;orthogonalLoop=1;jettySize=auto;html=1;entryX=1;entryY=0.5;entryDx=0;entryDy=0;startArrow=none;startFill=0;endArrow=classic;endFill=1;" edge="1" parent="5h9LeyQ9DCCSea4F9Fg9-1" source="zGzCUsFRrdnao4zFaLlQ-15" target="zGzCUsFRrdnao4zFaLlQ-16">
          <mxGeometry relative="1" as="geometry"/>
        </mxCell>
        <mxCell id="zGzCUsFRrdnao4zFaLlQ-15" value="生成filetoken" style="html=1;" vertex="1" parent="5h9LeyQ9DCCSea4F9Fg9-1">
          <mxGeometry x="611" y="584" width="110" height="50" as="geometry"/>
        </mxCell>
        <mxCell id="zGzCUsFRrdnao4zFaLlQ-32" style="edgeStyle=none;rounded=0;orthogonalLoop=1;jettySize=auto;html=1;entryX=1;entryY=0.5;entryDx=0;entryDy=0;startArrow=none;startFill=0;endArrow=classic;endFill=1;" edge="1" parent="5h9LeyQ9DCCSea4F9Fg9-1" source="zGzCUsFRrdnao4zFaLlQ-16" target="zGzCUsFRrdnao4zFaLlQ-18">
          <mxGeometry relative="1" as="geometry"/>
        </mxCell>
        <mxCell id="zGzCUsFRrdnao4zFaLlQ-16" value="生成&lt;br&gt;样式文件上传参数" style="html=1;" vertex="1" parent="5h9LeyQ9DCCSea4F9Fg9-1">
          <mxGeometry x="354" y="584" width="110" height="50" as="geometry"/>
        </mxCell>
        <mxCell id="zGzCUsFRrdnao4zFaLlQ-33" style="edgeStyle=none;rounded=0;orthogonalLoop=1;jettySize=auto;html=1;entryX=0.5;entryY=0;entryDx=0;entryDy=0;startArrow=none;startFill=0;endArrow=classic;endFill=1;" edge="1" parent="5h9LeyQ9DCCSea4F9Fg9-1" source="zGzCUsFRrdnao4zFaLlQ-18" target="zGzCUsFRrdnao4zFaLlQ-19">
          <mxGeometry relative="1" as="geometry"/>
        </mxCell>
        <mxCell id="zGzCUsFRrdnao4zFaLlQ-18" value="接收样式上传&lt;br&gt;返回参数" style="html=1;" vertex="1" parent="5h9LeyQ9DCCSea4F9Fg9-1">
          <mxGeometry x="90" y="584" width="110" height="50" as="geometry"/>
        </mxCell>
        <mxCell id="zGzCUsFRrdnao4zFaLlQ-25" style="edgeStyle=none;rounded=0;orthogonalLoop=1;jettySize=auto;html=1;entryX=0;entryY=0.5;entryDx=0;entryDy=0;startArrow=none;startFill=0;endArrow=classic;endFill=1;" edge="1" parent="5h9LeyQ9DCCSea4F9Fg9-1" source="zGzCUsFRrdnao4zFaLlQ-19" target="zGzCUsFRrdnao4zFaLlQ-20">
          <mxGeometry relative="1" as="geometry"/>
        </mxCell>
        <mxCell id="zGzCUsFRrdnao4zFaLlQ-45" value="qiniu.sdk for javascript" style="text;html=1;resizable=0;points=[];align=center;verticalAlign=middle;labelBackgroundColor=#ffffff;" vertex="1" connectable="0" parent="zGzCUsFRrdnao4zFaLlQ-25">
          <mxGeometry x="-0.068" relative="1" as="geometry">
            <mxPoint as="offset"/>
          </mxGeometry>
        </mxCell>
        <mxCell id="zGzCUsFRrdnao4zFaLlQ-37" style="edgeStyle=none;rounded=0;orthogonalLoop=1;jettySize=auto;html=1;startArrow=none;startFill=0;endArrow=classic;endFill=1;entryX=0.391;entryY=0.02;entryDx=0;entryDy=0;entryPerimeter=0;" edge="1" parent="5h9LeyQ9DCCSea4F9Fg9-1" source="zGzCUsFRrdnao4zFaLlQ-19" target="zGzCUsFRrdnao4zFaLlQ-54">
          <mxGeometry relative="1" as="geometry">
            <mxPoint x="141" y="810" as="targetPoint"/>
          </mxGeometry>
        </mxCell>
        <mxCell id="zGzCUsFRrdnao4zFaLlQ-19" value="向七牛&lt;br&gt;提交上传样式文件" style="html=1;" vertex="1" parent="5h9LeyQ9DCCSea4F9Fg9-1">
          <mxGeometry x="88.5" y="660" width="110" height="50" as="geometry"/>
        </mxCell>
        <mxCell id="zGzCUsFRrdnao4zFaLlQ-34" style="edgeStyle=none;rounded=0;orthogonalLoop=1;jettySize=auto;html=1;entryX=0.5;entryY=0;entryDx=0;entryDy=0;startArrow=none;startFill=0;endArrow=classic;endFill=1;" edge="1" parent="5h9LeyQ9DCCSea4F9Fg9-1" source="zGzCUsFRrdnao4zFaLlQ-20" target="zGzCUsFRrdnao4zFaLlQ-21">
          <mxGeometry relative="1" as="geometry"/>
        </mxCell>
        <mxCell id="zGzCUsFRrdnao4zFaLlQ-20" value="接收七牛上传文件" style="html=1;" vertex="1" parent="5h9LeyQ9DCCSea4F9Fg9-1">
          <mxGeometry x="610.5" y="660" width="110" height="50" as="geometry"/>
        </mxCell>
        <mxCell id="zGzCUsFRrdnao4zFaLlQ-35" style="edgeStyle=none;rounded=0;orthogonalLoop=1;jettySize=auto;html=1;startArrow=none;startFill=0;endArrow=classic;endFill=1;entryX=1;entryY=0.5;entryDx=0;entryDy=0;" edge="1" parent="5h9LeyQ9DCCSea4F9Fg9-1" source="zGzCUsFRrdnao4zFaLlQ-21" target="zGzCUsFRrdnao4zFaLlQ-22">
          <mxGeometry relative="1" as="geometry">
            <mxPoint x="493.5" y="778" as="targetPoint"/>
          </mxGeometry>
        </mxCell>
        <mxCell id="zGzCUsFRrdnao4zFaLlQ-40" style="edgeStyle=none;rounded=0;orthogonalLoop=1;jettySize=auto;html=1;entryX=0.5;entryY=0;entryDx=0;entryDy=0;startArrow=none;startFill=0;endArrow=classic;endFill=1;" edge="1" parent="5h9LeyQ9DCCSea4F9Fg9-1" target="zGzCUsFRrdnao4zFaLlQ-38">
          <mxGeometry relative="1" as="geometry">
            <mxPoint x="674.5" y="891" as="sourcePoint"/>
          </mxGeometry>
        </mxCell>
        <mxCell id="zGzCUsFRrdnao4zFaLlQ-53" style="edgeStyle=orthogonalEdgeStyle;rounded=0;orthogonalLoop=1;jettySize=auto;html=1;entryX=0.418;entryY=0.05;entryDx=0;entryDy=0;entryPerimeter=0;startArrow=none;startFill=0;endArrow=classic;endFill=1;" edge="1" parent="5h9LeyQ9DCCSea4F9Fg9-1" source="zGzCUsFRrdnao4zFaLlQ-21" target="zGzCUsFRrdnao4zFaLlQ-51">
          <mxGeometry relative="1" as="geometry"/>
        </mxCell>
        <mxCell id="zGzCUsFRrdnao4zFaLlQ-21" value="通知回调地址上传成功" style="html=1;" vertex="1" parent="5h9LeyQ9DCCSea4F9Fg9-1">
          <mxGeometry x="611" y="745" width="110" height="50" as="geometry"/>
        </mxCell>
        <mxCell id="zGzCUsFRrdnao4zFaLlQ-52" style="edgeStyle=orthogonalEdgeStyle;rounded=0;orthogonalLoop=1;jettySize=auto;html=1;entryX=0;entryY=0.5;entryDx=0;entryDy=0;startArrow=none;startFill=0;endArrow=classic;endFill=1;exitX=0.436;exitY=0.98;exitDx=0;exitDy=0;exitPerimeter=0;" edge="1" parent="5h9LeyQ9DCCSea4F9Fg9-1" source="zGzCUsFRrdnao4zFaLlQ-22" target="zGzCUsFRrdnao4zFaLlQ-51">
          <mxGeometry relative="1" as="geometry"/>
        </mxCell>
        <mxCell id="zGzCUsFRrdnao4zFaLlQ-22" value="更新样式表，&lt;br&gt;uploaded=1" style="html=1;" vertex="1" parent="5h9LeyQ9DCCSea4F9Fg9-1">
          <mxGeometry x="358" y="745" width="110" height="50" as="geometry"/>
        </mxCell>
        <mxCell id="zGzCUsFRrdnao4zFaLlQ-26" style="edgeStyle=none;rounded=0;orthogonalLoop=1;jettySize=auto;html=1;entryX=0.5;entryY=0;entryDx=0;entryDy=0;startArrow=none;startFill=0;endArrow=classic;endFill=1;" edge="1" parent="5h9LeyQ9DCCSea4F9Fg9-1" source="zGzCUsFRrdnao4zFaLlQ-10" target="zGzCUsFRrdnao4zFaLlQ-10">
          <mxGeometry relative="1" as="geometry"/>
        </mxCell>
        <mxCell id="zGzCUsFRrdnao4zFaLlQ-39" style="edgeStyle=none;rounded=0;orthogonalLoop=1;jettySize=auto;html=1;entryX=1;entryY=0.5;entryDx=0;entryDy=0;startArrow=none;startFill=0;endArrow=classic;endFill=1;" edge="1" parent="5h9LeyQ9DCCSea4F9Fg9-1" source="zGzCUsFRrdnao4zFaLlQ-38" target="zGzCUsFRrdnao4zFaLlQ-54">
          <mxGeometry relative="1" as="geometry">
            <mxPoint x="-11.5" y="916" as="targetPoint"/>
          </mxGeometry>
        </mxCell>
        <mxCell id="zGzCUsFRrdnao4zFaLlQ-38" value="返回样式上传七牛结果" style="html=1;" vertex="1" parent="5h9LeyQ9DCCSea4F9Fg9-1">
          <mxGeometry x="619.5" y="910" width="110" height="50" as="geometry"/>
        </mxCell>
        <mxCell id="zGzCUsFRrdnao4zFaLlQ-44" value="七牛云" style="swimlane;html=1;horizontal=0;startSize=20;rotation=90;" vertex="1" parent="5h9LeyQ9DCCSea4F9Fg9-1">
          <mxGeometry x="205" y="388" width="934" height="246" as="geometry"/>
        </mxCell>
        <mxCell id="zGzCUsFRrdnao4zFaLlQ-51" value="返回回调结果" style="html=1;" vertex="1" parent="5h9LeyQ9DCCSea4F9Fg9-1">
          <mxGeometry x="619.5" y="832.5" width="110" height="50" as="geometry"/>
        </mxCell>
        <mxCell id="zGzCUsFRrdnao4zFaLlQ-54" value="样式上传结束" style="html=1;" vertex="1" parent="5h9LeyQ9DCCSea4F9Fg9-1">
          <mxGeometry x="99" y="913" width="110" height="50" as="geometry"/>
        </mxCell>
        <mxCell id="zGzCUsFRrdnao4zFaLlQ-56" value="api" style="swimlane;html=1;horizontal=0;startSize=20;rotation=90;" vertex="1" parent="5h9LeyQ9DCCSea4F9Fg9-1">
          <mxGeometry x="-40" y="388" width="934" height="246" as="geometry"/>
        </mxCell>
      </root>
    </mxGraphModel>
  </diagram>
  <diagram id="XM5ZmYt1m9fhcJY3KdHo" name="Page-13">
    <mxGraphModel dx="1422" dy="794" grid="1" gridSize="10" guides="1" tooltips="1" connect="1" arrows="1" fold="1" page="1" pageScale="1" pageWidth="827" pageHeight="1169" math="0" shadow="0">
      <root>
        <mxCell id="yjKBfuJOtDSQTvqBJD5P-0"/>
        <mxCell id="yjKBfuJOtDSQTvqBJD5P-1" parent="yjKBfuJOtDSQTvqBJD5P-0"/>
        <mxCell id="9HtA6VVqg-8Cvyjp9S5T-2" value="API" style="swimlane;html=1;horizontal=0;startSize=20;rotation=90;" parent="yjKBfuJOtDSQTvqBJD5P-1" vertex="1">
          <mxGeometry x="2" y="442" width="834" height="239" as="geometry"/>
        </mxCell>
        <mxCell id="RNWRGUg7w0QIDCSCRijM-0" style="edgeStyle=none;rounded=0;orthogonalLoop=1;jettySize=auto;html=1;startArrow=none;startFill=0;endArrow=classic;endFill=1;entryX=0.5;entryY=0;entryDx=0;entryDy=0;" parent="yjKBfuJOtDSQTvqBJD5P-1" source="RNWRGUg7w0QIDCSCRijM-1" edge="1">
          <mxGeometry relative="1" as="geometry">
            <mxPoint x="145" y="350" as="targetPoint"/>
          </mxGeometry>
        </mxCell>
        <mxCell id="RNWRGUg7w0QIDCSCRijM-44" style="edgeStyle=orthogonalEdgeStyle;rounded=0;orthogonalLoop=1;jettySize=auto;html=1;entryX=0.5;entryY=0;entryDx=0;entryDy=0;startArrow=none;startFill=0;endArrow=classic;endFill=1;" parent="yjKBfuJOtDSQTvqBJD5P-1" source="RNWRGUg7w0QIDCSCRijM-1" target="RNWRGUg7w0QIDCSCRijM-6" edge="1">
          <mxGeometry relative="1" as="geometry"/>
        </mxCell>
        <mxCell id="RNWRGUg7w0QIDCSCRijM-1" value="打开设计器" style="html=1;" parent="yjKBfuJOtDSQTvqBJD5P-1" vertex="1">
          <mxGeometry x="90" y="270" width="110" height="50" as="geometry"/>
        </mxCell>
        <mxCell id="RNWRGUg7w0QIDCSCRijM-4" style="edgeStyle=none;rounded=0;orthogonalLoop=1;jettySize=auto;html=1;entryX=0;entryY=0.5;entryDx=0;entryDy=0;startArrow=none;startFill=0;endArrow=classic;endFill=1;" parent="yjKBfuJOtDSQTvqBJD5P-1" source="RNWRGUg7w0QIDCSCRijM-6" target="RNWRGUg7w0QIDCSCRijM-8" edge="1">
          <mxGeometry relative="1" as="geometry"/>
        </mxCell>
        <mxCell id="RNWRGUg7w0QIDCSCRijM-5" style="rounded=0;orthogonalLoop=1;jettySize=auto;html=1;startArrow=none;startFill=0;endArrow=classic;endFill=1;" parent="yjKBfuJOtDSQTvqBJD5P-1" source="RNWRGUg7w0QIDCSCRijM-6" target="RNWRGUg7w0QIDCSCRijM-23" edge="1">
          <mxGeometry relative="1" as="geometry"/>
        </mxCell>
        <mxCell id="RNWRGUg7w0QIDCSCRijM-6" value="加载样式" style="html=1;" parent="yjKBfuJOtDSQTvqBJD5P-1" vertex="1">
          <mxGeometry x="91" y="430" width="110" height="50" as="geometry"/>
        </mxCell>
        <mxCell id="RNWRGUg7w0QIDCSCRijM-7" style="edgeStyle=none;rounded=0;orthogonalLoop=1;jettySize=auto;html=1;startArrow=none;startFill=0;endArrow=classic;endFill=1;" parent="yjKBfuJOtDSQTvqBJD5P-1" source="RNWRGUg7w0QIDCSCRijM-8" edge="1">
          <mxGeometry relative="1" as="geometry">
            <mxPoint x="405" y="520" as="targetPoint"/>
          </mxGeometry>
        </mxCell>
        <mxCell id="RNWRGUg7w0QIDCSCRijM-8" value="GetReportStyleList" style="html=1;" parent="yjKBfuJOtDSQTvqBJD5P-1" vertex="1">
          <mxGeometry x="351" y="430" width="110" height="50" as="geometry"/>
        </mxCell>
        <mxCell id="RNWRGUg7w0QIDCSCRijM-13" style="edgeStyle=none;rounded=0;orthogonalLoop=1;jettySize=auto;html=1;entryX=0;entryY=0.5;entryDx=0;entryDy=0;startArrow=none;startFill=0;endArrow=classic;endFill=1;" parent="yjKBfuJOtDSQTvqBJD5P-1" target="RNWRGUg7w0QIDCSCRijM-17" edge="1">
          <mxGeometry relative="1" as="geometry">
            <mxPoint x="611" y="534.7203389830509" as="sourcePoint"/>
          </mxGeometry>
        </mxCell>
        <mxCell id="RNWRGUg7w0QIDCSCRijM-14" style="edgeStyle=none;rounded=0;orthogonalLoop=1;jettySize=auto;html=1;entryX=0;entryY=0.5;entryDx=0;entryDy=0;startArrow=none;startFill=0;endArrow=classic;endFill=1;" parent="yjKBfuJOtDSQTvqBJD5P-1" target="RNWRGUg7w0QIDCSCRijM-17" edge="1">
          <mxGeometry relative="1" as="geometry">
            <mxPoint x="460" y="535" as="sourcePoint"/>
          </mxGeometry>
        </mxCell>
        <mxCell id="RNWRGUg7w0QIDCSCRijM-16" style="edgeStyle=none;rounded=0;orthogonalLoop=1;jettySize=auto;html=1;entryX=0.418;entryY=-0.02;entryDx=0;entryDy=0;entryPerimeter=0;startArrow=none;startFill=0;endArrow=classic;endFill=1;" parent="yjKBfuJOtDSQTvqBJD5P-1" source="RNWRGUg7w0QIDCSCRijM-17" target="RNWRGUg7w0QIDCSCRijM-19" edge="1">
          <mxGeometry relative="1" as="geometry"/>
        </mxCell>
        <mxCell id="RNWRGUg7w0QIDCSCRijM-17" value="校验七牛&lt;br&gt;合法性请求" style="html=1;" parent="yjKBfuJOtDSQTvqBJD5P-1" vertex="1">
          <mxGeometry x="600" y="510" width="110" height="50" as="geometry"/>
        </mxCell>
        <mxCell id="RNWRGUg7w0QIDCSCRijM-18" style="edgeStyle=none;rounded=0;orthogonalLoop=1;jettySize=auto;html=1;entryX=1;entryY=0.5;entryDx=0;entryDy=0;startArrow=none;startFill=0;endArrow=classic;endFill=1;" parent="yjKBfuJOtDSQTvqBJD5P-1" source="RNWRGUg7w0QIDCSCRijM-19" target="RNWRGUg7w0QIDCSCRijM-21" edge="1">
          <mxGeometry relative="1" as="geometry"/>
        </mxCell>
        <mxCell id="9HtA6VVqg-8Cvyjp9S5T-4" style="edgeStyle=orthogonalEdgeStyle;rounded=0;orthogonalLoop=1;jettySize=auto;html=1;entryX=0.5;entryY=0;entryDx=0;entryDy=0;startArrow=none;startFill=0;endArrow=classic;endFill=1;" parent="yjKBfuJOtDSQTvqBJD5P-1" source="RNWRGUg7w0QIDCSCRijM-19" target="RNWRGUg7w0QIDCSCRijM-29" edge="1">
          <mxGeometry relative="1" as="geometry"/>
        </mxCell>
        <mxCell id="RNWRGUg7w0QIDCSCRijM-19" value="生成fileurl" style="html=1;" parent="yjKBfuJOtDSQTvqBJD5P-1" vertex="1">
          <mxGeometry x="611" y="584" width="110" height="50" as="geometry"/>
        </mxCell>
        <mxCell id="RNWRGUg7w0QIDCSCRijM-20" style="edgeStyle=none;rounded=0;orthogonalLoop=1;jettySize=auto;html=1;entryX=1;entryY=0.5;entryDx=0;entryDy=0;startArrow=none;startFill=0;endArrow=classic;endFill=1;" parent="yjKBfuJOtDSQTvqBJD5P-1" source="RNWRGUg7w0QIDCSCRijM-21" target="RNWRGUg7w0QIDCSCRijM-23" edge="1">
          <mxGeometry relative="1" as="geometry"/>
        </mxCell>
        <mxCell id="RNWRGUg7w0QIDCSCRijM-21" value="生成&lt;br&gt;样式文件下载信息" style="html=1;" parent="yjKBfuJOtDSQTvqBJD5P-1" vertex="1">
          <mxGeometry x="354" y="584" width="110" height="50" as="geometry"/>
        </mxCell>
        <mxCell id="RNWRGUg7w0QIDCSCRijM-22" style="edgeStyle=none;rounded=0;orthogonalLoop=1;jettySize=auto;html=1;entryX=0.5;entryY=0;entryDx=0;entryDy=0;startArrow=none;startFill=0;endArrow=classic;endFill=1;" parent="yjKBfuJOtDSQTvqBJD5P-1" source="RNWRGUg7w0QIDCSCRijM-23" target="RNWRGUg7w0QIDCSCRijM-27" edge="1">
          <mxGeometry relative="1" as="geometry"/>
        </mxCell>
        <mxCell id="RNWRGUg7w0QIDCSCRijM-23" value="接收样式文件&lt;br&gt;下载信息" style="html=1;" parent="yjKBfuJOtDSQTvqBJD5P-1" vertex="1">
          <mxGeometry x="90" y="584" width="110" height="50" as="geometry"/>
        </mxCell>
        <mxCell id="RNWRGUg7w0QIDCSCRijM-24" style="edgeStyle=none;rounded=0;orthogonalLoop=1;jettySize=auto;html=1;entryX=0;entryY=0.5;entryDx=0;entryDy=0;startArrow=none;startFill=0;endArrow=classic;endFill=1;" parent="yjKBfuJOtDSQTvqBJD5P-1" source="RNWRGUg7w0QIDCSCRijM-27" target="RNWRGUg7w0QIDCSCRijM-29" edge="1">
          <mxGeometry relative="1" as="geometry"/>
        </mxCell>
        <mxCell id="Kok_G_XK71fI7I0zLPNx-0" style="edgeStyle=orthogonalEdgeStyle;rounded=0;orthogonalLoop=1;jettySize=auto;html=1;entryX=0.5;entryY=0;entryDx=0;entryDy=0;startArrow=none;startFill=0;endArrow=classic;endFill=1;" parent="yjKBfuJOtDSQTvqBJD5P-1" source="RNWRGUg7w0QIDCSCRijM-27" target="RNWRGUg7w0QIDCSCRijM-46" edge="1">
          <mxGeometry relative="1" as="geometry"/>
        </mxCell>
        <mxCell id="RNWRGUg7w0QIDCSCRijM-27" value="下载样式文件" style="html=1;" parent="yjKBfuJOtDSQTvqBJD5P-1" vertex="1">
          <mxGeometry x="88.5" y="660" width="110" height="50" as="geometry"/>
        </mxCell>
        <mxCell id="RNWRGUg7w0QIDCSCRijM-29" value="响应下载请求" style="html=1;" parent="yjKBfuJOtDSQTvqBJD5P-1" vertex="1">
          <mxGeometry x="610.5" y="660" width="110" height="50" as="geometry"/>
        </mxCell>
        <mxCell id="RNWRGUg7w0QIDCSCRijM-36" style="edgeStyle=none;rounded=0;orthogonalLoop=1;jettySize=auto;html=1;entryX=0.5;entryY=0;entryDx=0;entryDy=0;startArrow=none;startFill=0;endArrow=classic;endFill=1;" parent="yjKBfuJOtDSQTvqBJD5P-1" edge="1">
          <mxGeometry relative="1" as="geometry">
            <mxPoint x="405" y="420" as="sourcePoint"/>
            <mxPoint x="405" y="420" as="targetPoint"/>
          </mxGeometry>
        </mxCell>
        <mxCell id="RNWRGUg7w0QIDCSCRijM-45" value="请求生成&lt;br&gt;样式下载url" style="html=1;" parent="yjKBfuJOtDSQTvqBJD5P-1" vertex="1">
          <mxGeometry x="354" y="520" width="110" height="50" as="geometry"/>
        </mxCell>
        <mxCell id="Kok_G_XK71fI7I0zLPNx-2" style="edgeStyle=orthogonalEdgeStyle;rounded=0;orthogonalLoop=1;jettySize=auto;html=1;entryX=0.5;entryY=0;entryDx=0;entryDy=0;startArrow=none;startFill=0;endArrow=classic;endFill=1;" parent="yjKBfuJOtDSQTvqBJD5P-1" source="RNWRGUg7w0QIDCSCRijM-46" target="Kok_G_XK71fI7I0zLPNx-1" edge="1">
          <mxGeometry relative="1" as="geometry"/>
        </mxCell>
        <mxCell id="RNWRGUg7w0QIDCSCRijM-46" value="样式反序列化" style="html=1;" parent="yjKBfuJOtDSQTvqBJD5P-1" vertex="1">
          <mxGeometry x="90" y="745" width="110" height="50" as="geometry"/>
        </mxCell>
        <mxCell id="Kok_G_XK71fI7I0zLPNx-1" value="渲染控件" style="html=1;" parent="yjKBfuJOtDSQTvqBJD5P-1" vertex="1">
          <mxGeometry x="88.5" y="860" width="110" height="50" as="geometry"/>
        </mxCell>
        <mxCell id="9HtA6VVqg-8Cvyjp9S5T-0" value="浏览器" style="swimlane;html=1;horizontal=0;startSize=20;rotation=90;" parent="yjKBfuJOtDSQTvqBJD5P-1" vertex="1">
          <mxGeometry x="-243" y="437" width="834" height="249" as="geometry"/>
        </mxCell>
        <mxCell id="9HtA6VVqg-8Cvyjp9S5T-3" value="七牛云" style="swimlane;html=1;horizontal=0;startSize=20;rotation=90;" parent="yjKBfuJOtDSQTvqBJD5P-1" vertex="1">
          <mxGeometry x="243.5" y="440.5" width="834" height="239" as="geometry"/>
        </mxCell>
      </root>
    </mxGraphModel>
  </diagram>
  <diagram id="XY2G6QUzhwt9Wqs1HYNC" name="Page-14">
    <mxGraphModel dx="1422" dy="794" grid="1" gridSize="10" guides="1" tooltips="1" connect="1" arrows="1" fold="1" page="1" pageScale="1" pageWidth="827" pageHeight="1169" math="0" shadow="0">
      <root>
        <mxCell id="UFtr0ORRSoqycPg_Pd72-0"/>
        <mxCell id="UFtr0ORRSoqycPg_Pd72-1" parent="UFtr0ORRSoqycPg_Pd72-0"/>
        <mxCell id="UFtr0ORRSoqycPg_Pd72-15" style="edgeStyle=orthogonalEdgeStyle;rounded=0;orthogonalLoop=1;jettySize=auto;html=1;" edge="1" parent="UFtr0ORRSoqycPg_Pd72-1" source="UFtr0ORRSoqycPg_Pd72-14">
          <mxGeometry relative="1" as="geometry">
            <mxPoint x="275" y="346" as="targetPoint"/>
          </mxGeometry>
        </mxCell>
        <mxCell id="UFtr0ORRSoqycPg_Pd72-14" value="转换并新增样式" style="html=1;" vertex="1" parent="UFtr0ORRSoqycPg_Pd72-1">
          <mxGeometry x="220" y="190" width="110" height="50" as="geometry"/>
        </mxCell>
        <mxCell id="UFtr0ORRSoqycPg_Pd72-22" value="否" style="edgeStyle=orthogonalEdgeStyle;rounded=0;orthogonalLoop=1;jettySize=auto;html=1;entryX=0.5;entryY=0;entryDx=0;entryDy=0;" edge="1" parent="UFtr0ORRSoqycPg_Pd72-1" source="UFtr0ORRSoqycPg_Pd72-17" target="UFtr0ORRSoqycPg_Pd72-19">
          <mxGeometry relative="1" as="geometry">
            <mxPoint x="275" y="506" as="targetPoint"/>
          </mxGeometry>
        </mxCell>
        <mxCell id="UFtr0ORRSoqycPg_Pd72-26" value="是" style="edgeStyle=orthogonalEdgeStyle;rounded=0;orthogonalLoop=1;jettySize=auto;html=1;" edge="1" parent="UFtr0ORRSoqycPg_Pd72-1" source="UFtr0ORRSoqycPg_Pd72-17" target="UFtr0ORRSoqycPg_Pd72-24">
          <mxGeometry relative="1" as="geometry"/>
        </mxCell>
        <mxCell id="UFtr0ORRSoqycPg_Pd72-17" value="新增样式是否已存在" style="rhombus;whiteSpace=wrap;html=1;" vertex="1" parent="UFtr0ORRSoqycPg_Pd72-1">
          <mxGeometry x="235" y="346" width="80" height="80" as="geometry"/>
        </mxCell>
        <mxCell id="UFtr0ORRSoqycPg_Pd72-31" style="edgeStyle=orthogonalEdgeStyle;rounded=0;orthogonalLoop=1;jettySize=auto;html=1;entryX=0.5;entryY=0;entryDx=0;entryDy=0;" edge="1" parent="UFtr0ORRSoqycPg_Pd72-1" source="UFtr0ORRSoqycPg_Pd72-19" target="UFtr0ORRSoqycPg_Pd72-29">
          <mxGeometry relative="1" as="geometry"/>
        </mxCell>
        <mxCell id="UFtr0ORRSoqycPg_Pd72-19" value="在reportStyle表中复制新增一条记录，创建filekey" style="rounded=1;whiteSpace=wrap;html=1;" vertex="1" parent="UFtr0ORRSoqycPg_Pd72-1">
          <mxGeometry x="220" y="516" width="120" height="60" as="geometry"/>
        </mxCell>
        <mxCell id="UFtr0ORRSoqycPg_Pd72-34" style="edgeStyle=orthogonalEdgeStyle;rounded=0;orthogonalLoop=1;jettySize=auto;html=1;" edge="1" parent="UFtr0ORRSoqycPg_Pd72-1" source="UFtr0ORRSoqycPg_Pd72-20">
          <mxGeometry relative="1" as="geometry">
            <mxPoint x="500" y="740" as="targetPoint"/>
          </mxGeometry>
        </mxCell>
        <mxCell id="UFtr0ORRSoqycPg_Pd72-20" value="七牛执行&lt;br&gt;复制文件操作" style="rounded=1;whiteSpace=wrap;html=1;" vertex="1" parent="UFtr0ORRSoqycPg_Pd72-1">
          <mxGeometry x="440" y="610" width="120" height="60" as="geometry"/>
        </mxCell>
        <mxCell id="UFtr0ORRSoqycPg_Pd72-37" style="edgeStyle=orthogonalEdgeStyle;rounded=0;orthogonalLoop=1;jettySize=auto;html=1;entryX=1;entryY=0.5;entryDx=0;entryDy=0;" edge="1" parent="UFtr0ORRSoqycPg_Pd72-1" source="UFtr0ORRSoqycPg_Pd72-21" target="UFtr0ORRSoqycPg_Pd72-35">
          <mxGeometry relative="1" as="geometry"/>
        </mxCell>
        <mxCell id="UFtr0ORRSoqycPg_Pd72-21" value="回调" style="rounded=1;whiteSpace=wrap;html=1;" vertex="1" parent="UFtr0ORRSoqycPg_Pd72-1">
          <mxGeometry x="443" y="736" width="120" height="60" as="geometry"/>
        </mxCell>
        <mxCell id="UFtr0ORRSoqycPg_Pd72-32" style="edgeStyle=orthogonalEdgeStyle;rounded=0;orthogonalLoop=1;jettySize=auto;html=1;entryX=0;entryY=0.5;entryDx=0;entryDy=0;exitX=0.425;exitY=1.017;exitDx=0;exitDy=0;exitPerimeter=0;" edge="1" parent="UFtr0ORRSoqycPg_Pd72-1" source="UFtr0ORRSoqycPg_Pd72-23" target="UFtr0ORRSoqycPg_Pd72-29">
          <mxGeometry relative="1" as="geometry"/>
        </mxCell>
        <mxCell id="UFtr0ORRSoqycPg_Pd72-23" value="从reportstyle表中读取filekey" style="rounded=1;whiteSpace=wrap;html=1;" vertex="1" parent="UFtr0ORRSoqycPg_Pd72-1">
          <mxGeometry x="60" y="516" width="120" height="60" as="geometry"/>
        </mxCell>
        <mxCell id="UFtr0ORRSoqycPg_Pd72-27" value="是" style="edgeStyle=orthogonalEdgeStyle;rounded=0;orthogonalLoop=1;jettySize=auto;html=1;entryX=0.425;entryY=0.017;entryDx=0;entryDy=0;entryPerimeter=0;" edge="1" parent="UFtr0ORRSoqycPg_Pd72-1" source="UFtr0ORRSoqycPg_Pd72-24" target="UFtr0ORRSoqycPg_Pd72-23">
          <mxGeometry relative="1" as="geometry"/>
        </mxCell>
        <mxCell id="UFtr0ORRSoqycPg_Pd72-28" value="否" style="edgeStyle=orthogonalEdgeStyle;rounded=0;orthogonalLoop=1;jettySize=auto;html=1;entryX=0;entryY=0.5;entryDx=0;entryDy=0;" edge="1" parent="UFtr0ORRSoqycPg_Pd72-1" source="UFtr0ORRSoqycPg_Pd72-24" target="UFtr0ORRSoqycPg_Pd72-25">
          <mxGeometry relative="1" as="geometry">
            <Array as="points">
              <mxPoint x="20" y="386"/>
              <mxPoint x="20" y="861"/>
            </Array>
          </mxGeometry>
        </mxCell>
        <mxCell id="UFtr0ORRSoqycPg_Pd72-24" value="是否允许覆盖已存在样式" style="rhombus;whiteSpace=wrap;html=1;" vertex="1" parent="UFtr0ORRSoqycPg_Pd72-1">
          <mxGeometry x="70" y="346" width="80" height="80" as="geometry"/>
        </mxCell>
        <mxCell id="UFtr0ORRSoqycPg_Pd72-25" value="" style="ellipse;html=1;shape=endState;fillColor=#000000;strokeColor=#ff0000;" vertex="1" parent="UFtr0ORRSoqycPg_Pd72-1">
          <mxGeometry x="280" y="849" width="30" height="30" as="geometry"/>
        </mxCell>
        <mxCell id="UFtr0ORRSoqycPg_Pd72-33" style="edgeStyle=orthogonalEdgeStyle;rounded=0;orthogonalLoop=1;jettySize=auto;html=1;entryX=0;entryY=0.5;entryDx=0;entryDy=0;" edge="1" parent="UFtr0ORRSoqycPg_Pd72-1" source="UFtr0ORRSoqycPg_Pd72-29" target="UFtr0ORRSoqycPg_Pd72-20">
          <mxGeometry relative="1" as="geometry"/>
        </mxCell>
        <mxCell id="UFtr0ORRSoqycPg_Pd72-29" value="通知七牛&lt;br&gt;复制被转换的样式文件" style="rounded=1;whiteSpace=wrap;html=1;" vertex="1" parent="UFtr0ORRSoqycPg_Pd72-1">
          <mxGeometry x="220" y="610" width="120" height="60" as="geometry"/>
        </mxCell>
        <mxCell id="UFtr0ORRSoqycPg_Pd72-36" style="edgeStyle=orthogonalEdgeStyle;rounded=0;orthogonalLoop=1;jettySize=auto;html=1;entryX=0.5;entryY=0;entryDx=0;entryDy=0;" edge="1" parent="UFtr0ORRSoqycPg_Pd72-1" source="UFtr0ORRSoqycPg_Pd72-35" target="UFtr0ORRSoqycPg_Pd72-25">
          <mxGeometry relative="1" as="geometry"/>
        </mxCell>
        <mxCell id="UFtr0ORRSoqycPg_Pd72-35" value="更新样式&lt;br&gt;update reportstyle" style="rounded=1;whiteSpace=wrap;html=1;" vertex="1" parent="UFtr0ORRSoqycPg_Pd72-1">
          <mxGeometry x="235" y="740" width="120" height="60" as="geometry"/>
        </mxCell>
        <mxCell id="UFtr0ORRSoqycPg_Pd72-38" value="Teemo" style="swimlane;html=1;horizontal=0;startSize=20;rotation=90;" vertex="1" parent="UFtr0ORRSoqycPg_Pd72-1">
          <mxGeometry x="-205" y="305" width="810" height="380" as="geometry"/>
        </mxCell>
        <mxCell id="UFtr0ORRSoqycPg_Pd72-39" value="七牛云" style="swimlane;html=1;horizontal=0;startSize=20;rotation=90;" vertex="1" parent="UFtr0ORRSoqycPg_Pd72-1">
          <mxGeometry x="176" y="305" width="810" height="380" as="geometry"/>
        </mxCell>
      </root>
    </mxGraphModel>
  </diagram>
</mxfile>
